/* XPM */
static char *Body_vertical1705422482[] = {
/* columns rows colors chars-per-pixel */
"64 64 32 1 ",
"  c #FFFFFF",
". c #4C704B",
"X c #6A9E68",
"o c #6A9F68",
"O c #6B9F69",
"+ c #6BA069",
"@ c #6BA169",
"# c #6BA269",
"$ c #6CA26A",
"% c #6CA36A",
"& c #6CA46A",
"* c #6DA56B",
"= c #6DA66B",
"- c #6DA76B",
"; c #6EA76C",
": c #6EA86C",
"> c #6EA96C",
", c #6EAA6C",
"< c #6FAA6D",
"1 c #6FAB6D",
"2 c #6FAC6D",
"3 c #70AD6E",
"4 c #70AE6E",
"5 c #70AF6E",
"6 c #71B06F",
"7 c #71B16F",
"8 c #71B26F",
"9 c #72B270",
"0 c #72B370",
"q c #72B470",
"w c #73B571",
"e c #73B671",
/* pixels */
"      .....XXXXXXXXXqqeeeeeeeeeeeeeeeeeeeeeqXXXXXXXXX.....      ",
"      .....XXXXXXXXXqeeeeeeeeeeeeeeeeeeeeeeqXXXXXXXXX.....      ",
"      .....XXXXXXXXXqeeeeeeeeeeeeeeeeeeeeeqqXXXXXXXXX.....      ",
"      .....XXXXXXXXXqeeeeeeeeeeeeeeeeeeeeee6XXXXXXXXX.....      ",
"      .....XXXXXXXXX9eeeeeeeeeeeeeeeeeeeeee9XXXXXXXXX.....      ",
"      .....XXXXXXXXX6eeeeeeeeeeeeeeeeeeeeee3XXXXXXXXX.....      ",
"      .....XXXXXXXXX3qeeeeeeeeeeeeeeeeeeeeq1XXXXXXXXX.....      ",
"      .....XXXXXXXXX3eeeeeeeeeeeeeeeeeeeeeq1XXXXXXXXX.....      ",
"      .....XXXXXXXXX=qeeeeeeeeeeeeeeeeeeeee;XXXXXXXXX.....      ",
"      .....XXXXXXXXX=qeeeeeeeeeeeeeeeeeeeeq#XXXXXXXXX.....      ",
"      .....XXXXXXXXX#qeeeeeeeeeeeeeeeeeeeeeXXXXXXXXXX.....      ",
"      .....XXXXXXXXXX9eeeeeeeeeeeeeeeeeeeeqXXXXXXXXXX.....      ",
"      .....XXXXXXXXXX6eeeeeeeeeeeeeeeeeeee3XXXXXXXXXX.....      ",
"      .....XXXXXXXXXX3eeeeeeeeeeeeeeeeeeee1XXXXXXXXXX.....      ",
"      .....XXXXXXXXXX=eeeeeeeeeeeeeeeeeeee=XXXXXXXXXX.....      ",
"      .....XXXXXXXXXX#eeeeeeeeeeeeeeeeeeeeXXXXXXXXXXX.....      ",
"      .....XXXXXXXXXXXqqeeeeeeeeeeeeeeeeeqXXXXXXXXXXX.....      ",
"      .....XXXXXXXXXXX9eeeeeeeeeeeeeeeeee3XXXXXXXXXXX.....      ",
"      .....XXXXXXXXXXX1qeeeeeeeeeeeeeeeee1XXXXXXXXXXX.....      ",
"      .....XXXXXXXXXXX1eeeeeeeeeeeeeeeeeq=XXXXXXXXXXX.....      ",
"      .....XXXXXXXXXXX#qeeeeeeeeeeeeeeeee%XXXXXXXXXXX.....      ",
"      .....XXXXXXXXXXX%eeeeeeeeeeeeeeeeee%XXXXXXXXXXX.....      ",
"      .....XXXXXXXXXXX%qeeeeeeeeeeeeeeeeeXXXXXXXXXXXX.....      ",
"      .....XXXXXXXXXXX%eeeeeeeeeeeeeeeeeeXXXXXXXXXXXX.....      ",
"      .....XXXXXXXXXXXXeeeeeeeeeeeeeeeeeeXXXXXXXXXXXX.....      ",
"      .....XXXXXXXXXXXXqeeeeeeeeeeeeeeeeeXXXXXXXXXXXX.....      ",
"      .....XXXXXXXXXXX%eeeeeeeeeeeeeeeeeeXXXXXXXXXXXX.....      ",
"      .....XXXXXXXXXXX#eeeeeeeeeeeeeeeeeq%XXXXXXXXXXX.....      ",
"      .....XXXXXXXXXXX%qeeeeeeeeeeeeeeeee%XXXXXXXXXXX.....      ",
"      .....XXXXXXXXXXX;eeeeeeeeeeeeeeeeeq=XXXXXXXXXXX.....      ",
"      .....XXXXXXXXXXX1qeeeeeeeeeeeeeeeee;XXXXXXXXXXX.....      ",
"      .....XXXXXXXXXXX1qeeeeeeeeeeeeeeeeq3XXXXXXXXXXX.....      ",
"      .....XXXXXXXXXXX9eeeeeeeeeeeeeeeeee3XXXXXXXXXXX.....      ",
"      .....XXXXXXXXXXX9eeeeeeeeeeeeeeeeee9XXXXXXXXXXX.....      ",
"      .....XXXXXXXXXXXeeeeeeeeeeeeeeeeeeeeXXXXXXXXXXX.....      ",
"      .....XXXXXXXXXX=eeeeeeeeeeeeeeeeeeeq%XXXXXXXXXX.....      ",
"      .....XXXXXXXXXX1qeeeeeeeeeeeeeeeeeee1XXXXXXXXXX.....      ",
"      .....XXXXXXXXXX3eeeeeeeeeeeeeeeeeeee1XXXXXXXXXX.....      ",
"      .....XXXXXXXXXX9eeeeeeeeeeeeeeeeeeee6XXXXXXXXXX.....      ",
"      .....XXXXXXXXXXeeeeeeeeeeeeeeeeeeeeeqXXXXXXXXXX.....      ",
"      .....XXXXXXXXX%qeeeeeeeeeeeeeeeeeeeee=XXXXXXXXX.....      ",
"      .....XXXXXXXXX1qeeeeeeeeeeeeeeeeeeeeq;XXXXXXXXX.....      ",
"      .....XXXXXXXXX3eeeeeeeeeeeeeeeeeeeeee3XXXXXXXXX.....      ",
"      .....XXXXXXXXXqeeeeeeeeeeeeeeeeeeeeeq6XXXXXXXXX.....      ",
"      .....XXXXXXXXXqeeeeeeeeeeeeeeeeeeeeeeqXXXXXXXXX.....      ",
"      .....XXXXXXXXXeeeeeeeeeeeeeeeeeeeeeeeeXXXXXXXXX.....      ",
"      .....XXXXXXXX#eeeeeeeeeeeeeeeeeeeeeeee%XXXXXXXX.....      ",
"      .....XXXXXXXX%eeeeeeeeeeeeeeeeeeeeeeeeXXXXXXXXX.....      ",
"      .....XXXXXXXXX9eeeeeeeeeeeeeeeeeeeeeq9XXXXXXXXX.....      ",
"      .....XXXXXXXXX9eeeeeeeeeeeeeeeeeeeeee3XXXXXXXXX.....      ",
"      .....XXXXXXXXX1eeeeeeeeeeeeeeeeeeeeee1XXXXXXXXX.....      ",
"      .....XXXXXXXXX=qeeeeeeeeeeeeeeeeeeeeq=XXXXXXXXX.....      ",
"      .....XXXXXXXXX%eeeeeeeeeeeeeeeeeeeeee%XXXXXXXXX.....      ",
"      .....XXXXXXXXX%eeeeeeeeeeeeeeeeeeeeeq%XXXXXXXXX.....      ",
"      .....XXXXXXXXX#qeeeeeeeeeeeeeeeeeeeeeXXXXXXXXXX.....      ",
"      .....XXXXXXXXX%eeeeeeeeeeeeeeeeeeeeeq#XXXXXXXXX.....      ",
"      .....XXXXXXXXX#qeeeeeeeeeeeeeeeeeeeee#XXXXXXXXX.....      ",
"      .....XXXXXXXXX%eeeeeeeeeeeeeeeeeeeeee%XXXXXXXXX.....      ",
"      .....XXXXXXXXX=eeeeeeeeeeeeeeeeeeeeeq#XXXXXXXXX.....      ",
"      .....XXXXXXXXX=qeeeeeeeeeeeeeeeeeeeee%XXXXXXXXX.....      ",
"      .....XXXXXXXXX;eeeeeeeeeeeeeeeeeeeeee=XXXXXXXXX.....      ",
"      .....XXXXXXXXX1eeeeeeeeeeeeeeeeeeeeee1XXXXXXXXX.....      ",
"      .....XXXXXXXXX2qeeeeeeeeeeeeeeeeeeeeq1XXXXXXXXX.....      ",
"      .....XXXXXXXXX9eeeeeeeeeeeeeeeeeeeeee9XXXXXXXXX.....      "
};
