/* XPM */
static char *Body_up_to_right1707133379[] = {
/* columns rows colors chars-per-pixel */
"32 32 83 1 ",
"  c #FFFFFF",
". c #4C704B",
"X c #4C724B",
"o c #4D714C",
"O c #4D734C",
"+ c #4E734D",
"@ c #4D744D",
"# c #4D754D",
"$ c #4E744D",
"% c #4E754D",
"& c #4F744E",
"* c #4F754E",
"= c #4F764E",
"- c #4F774E",
"; c #4F774F",
": c #50774E",
"> c #50764F",
", c #50774F",
"< c #51774F",
"1 c #50784F",
"2 c #51784F",
"3 c #51794F",
"4 c #517B4F",
"5 c #507850",
"6 c #507950",
"7 c #517950",
"8 c #517B51",
"9 c #527A50",
"0 c #527A51",
"q c #537B52",
"w c #547C52",
"e c #547D53",
"r c #557D53",
"t c #557F54",
"y c #567F55",
"u c #578155",
"i c #578256",
"p c #588256",
"a c #588357",
"s c #598457",
"d c #598558",
"f c #5A8659",
"g c #5B8759",
"h c #5B875A",
"j c #5C895A",
"k c #5C895B",
"l c #5D8A5B",
"z c #5E8C5C",
"x c #5E8C5D",
"c c #5F8D5D",
"v c #5F8E5E",
"b c #619160",
"n c #629260",
"m c #639461",
"M c #669864",
"N c #679A65",
"B c #689B66",
"V c #689C66",
"C c #689C67",
"Z c #6A9E68",
"A c #6A9F68",
"S c #6AA068",
"D c #6BA169",
"F c #6BA269",
"G c #6CA36A",
"H c #6CA46A",
"J c #6CA56A",
"K c #6CA66A",
"L c #6DA76B",
"P c #6EA96C",
"I c #6EAA6C",
"U c #6FAC6D",
"Y c #6FAD6D",
"T c #6FAE6D",
"R c #70AE6E",
"E c #70AF6E",
"W c #70B06E",
"Q c #71B16F",
"! c #71B26F",
"~ c #72B470",
"^ c #72B570",
"/ c #73B571",
"( c #73B671",
/* pixels */
"   ..fZZZZ////((((((((SAAAj..   ",
"   ..fZZZZR///(((((((/AAZAl..   ",
"   +.sZZAZR/((((((((//SAZZM..>  ",
"   -.uZZAAR/((((((((//RSZZZy....",
"   5.wZZZZK/((((((((((WCZZABp...",
"   -.>ZZAAS/((((((((((/RZZZZCBcl",
"   -..CZAAS/(((((((((((/SAZZAACA",
"    ..mZAAAW((((((((((((/LZZAAAA",
"    ..lZZZZR((((((((((((//WSASAA",
"    1.5ZZZCK(/((((((((((//(/RSAA",
"    1..NAAAS//(/(((((((((((((///",
"     ..lZAAAW((/(((((((((((((///",
"     -.>ZZZZA///((((((((((((((((",
"     5..bZZZAAR/((((((((((((((((",
"      -.0AAZAZAR((((((((((((((((",
"      5..lZZAAZA!(((((((((((((((",
"       -.+BZZZZZS!///(((((((((((",
"        ..wCZZZZAS!///((((((((((",
"        1..jZZZZAAS!////((((((((",
"         -..lZZZAAASR///((((((((",
"          -..fZZAAZZZSR/////(/((",
"           +..tBZZZZAAZZSKLRW!//",
"            -..-nZZZAZZZAAZZAAAA",
"             >...rmZZZZZAAZZZAAA",
"               +..+5cNZZAZZZZZZZ",
"                >..+++wlmBZZZZZZ",
"                  -+......>qyysj",
"                     ->.........",
"                         -55<>..",
"                                ",
"                                ",
"                                "
};
