/* XPM */
static char *Body_right_to_up1705422481[] = {
/* columns rows colors chars-per-pixel */
"64 64 119 2 ",
"   c #FFFFFF",
".  c #4C704B",
"X  c #4C714B",
"o  c #4D714C",
"O  c #4D724C",
"+  c #4E724C",
"@  c #4E734C",
"#  c #4E734D",
"$  c #4E744D",
"%  c #4F744E",
"&  c #4F754E",
"*  c #4F764E",
"=  c #50764E",
"-  c #50764F",
";  c #50774F",
":  c #50784F",
">  c #51784F",
",  c #517750",
"<  c #517850",
"1  c #517950",
"2  c #527850",
"3  c #527950",
"4  c #517A50",
"5  c #527A51",
"6  c #537A51",
"7  c #527B51",
"8  c #537A52",
"9  c #537B52",
"0  c #527C51",
"q  c #537D52",
"w  c #547D53",
"e  c #547F53",
"r  c #557F53",
"t  c #557E54",
"y  c #567F54",
"u  c #558053",
"i  c #558054",
"p  c #558154",
"a  c #568154",
"s  c #568055",
"d  c #568155",
"f  c #568255",
"g  c #578156",
"h  c #578456",
"j  c #588257",
"k  c #588357",
"l  c #588556",
"z  c #598457",
"x  c #588557",
"c  c #598458",
"v  c #598558",
"b  c #5A8558",
"n  c #598758",
"m  c #5B8759",
"M  c #598858",
"N  c #5A8858",
"B  c #5A8958",
"V  c #5B8A59",
"C  c #5B8B59",
"Z  c #5B8B5A",
"A  c #5D8A5B",
"S  c #5B8C5A",
"D  c #5C8C5A",
"F  c #5C8D5B",
"G  c #5E8C5D",
"H  c #5F8D5D",
"J  c #5F8E5E",
"K  c #608E5E",
"L  c #608F5E",
"P  c #608F5F",
"I  c #61905F",
"U  c #619160",
"Y  c #629160",
"T  c #629260",
"R  c #629261",
"E  c #639361",
"W  c #639462",
"Q  c #649462",
"!  c #649562",
"~  c #649563",
"^  c #659663",
"/  c #659763",
"(  c #669864",
")  c #669965",
"_  c #679965",
"`  c #679A65",
"'  c #689B66",
"]  c #689C67",
"[  c #699C67",
"{  c #699D67",
"}  c #6A9D68",
"|  c #6A9E68",
" . c #6A9F68",
".. c #6BA069",
"X. c #6BA169",
"o. c #6BA269",
"O. c #6CA26A",
"+. c #6CA36A",
"@. c #6CA46A",
"#. c #6DA56B",
"$. c #6DA66B",
"%. c #6DA76B",
"&. c #6EA76C",
"*. c #6EA86C",
"=. c #6EA96C",
"-. c #6EAA6C",
";. c #6FAA6D",
":. c #6FAB6D",
">. c #6FAC6D",
",. c #70AD6E",
"<. c #70AE6E",
"1. c #70AF6E",
"2. c #71B06F",
"3. c #71B16F",
"4. c #72B270",
"5. c #72B370",
"6. c #72B470",
"7. c #73B571",
"8. c #73B671",
/* pixels */
"            $ X X . . ) } { } ....{ } } 8.8.8.8.8.8.8.8.8.8.8.8.8.8.8.8.8.8.8.8.8.8.8.8.{ } } ..{ { } ..{ . . . . .             ",
"            = o . . . ) } ..} { } { ..{ 8.8.8.8.8.8.8.8.8.8.8.8.8.8.8.8.8.8.8.8.8.8.8.3...} { ..} ..} { ... . . . .             ",
"            . . . . . } ..} ..{ } ..} } 8.8.8.8.8.8.8.8.8.8.8.8.8.8.8.8.8.8.8.8.8.8.8.8.{ { } } ..} ..{ } . . . . .             ",
"          S . . . . 8 } { { ..} { ..} O.8.8.8.8.8.8.8.8.8.8.8.8.8.8.8.8.8.8.8.8.8.8.8.3.} ....{ { { ..} { . . . . o             ",
"          = . . . . m } } } ..{ { } ..=.8.8.8.8.8.8.8.8.8.8.8.8.8.8.8.8.8.8.8.8.8.8.8.,.{ ....} } ..{ } { X . . . $             ",
"      M $ . . . . . / { ..{ ..} ..} { 3.8.8.8.8.8.8.8.8.8.8.8.8.8.8.8.8.8.8.8.8.8.8.8.,.} } { { } { ..} Q X . . . >             ",
". . . . . . . . . g } ..{ ..{ } ..{ @.8.8.8.8.8.8.8.8.8.8.8.8.8.8.8.8.8.8.8.8.8.8.8.8.=...{ } ......{ { Q . . . . 0             ",
". . . . . . . . = { { ..} } { ..} } >.8.8.8.8.8.8.8.8.8.8.8.8.8.8.8.8.8.8.8.8.8.8.8.8.=...} { ..{ } } ..E . . . . u             ",
". . . . X X X 8 Q } { } ....{ } } ..8.8.8.8.8.8.8.8.8.8.8.8.8.8.8.8.8.8.8.8.8.8.8.8.8.@...{ } } ..} } { G . . . . h             ",
". . . . . X g } } } ..} { } { ..} >.8.8.8.8.8.8.8.8.8.8.8.8.8.8.8.8.8.8.8.8.8.8.8.8.8.@.} { ..{ { { ....m . . . . M             ",
"= $ 8 l H { ..{ ....{ { } { } ..@.8.8.8.8.8.8.8.8.8.8.8.8.8.8.8.8.8.8.8.8.8.8.8.8.8.8.{ } ..{ ..} ..} } g . . . . M             ",
"} } } } } } } { { } } ......} { ,.8.8.8.8.8.8.8.8.8.8.8.8.8.8.8.8.8.8.8.8.8.8.8.8.8.8.} { ..} } } { } { 8 . . . .               ",
"} } ..{ { } ......} } { { { } =.8.8.8.8.8.8.8.8.8.8.8.8.8.8.8.8.8.8.8.8.8.8.8.8.8.8.,...{ } ..{ ....{ } . X X . o               ",
"..{ ..} ..} { } { { ....} ..@.8.8.8.8.8.8.8.8.8.8.8.8.8.8.8.8.8.8.8.8.8.8.8.8.8.8.8.>.} { ..} { { } ..) . . . . 8               ",
"{ ..{ } ..{ } { } ..{ } { @.3.8.8.8.8.8.8.8.8.8.8.8.8.8.8.8.8.8.8.8.8.8.8.8.8.8.8.8.@.} } } ......} { E . . . . e               ",
"} } { ..} { ....} { ..} @.8.8.8.8.8.8.8.8.8.8.8.8.8.8.8.8.8.8.8.8.8.8.8.8.8.8.8.8.8.@.} ..{ { } } } } l . . . X m               ",
"..{ ..{ } } ..{ } ..{ @.8.8.8.8.8.8.8.8.8.8.8.8.8.8.8.8.8.8.8.8.8.8.8.8.8.8.8.8.8.8...} ..} } { } } ..8 . . . .                 ",
"..} { { ..{ ..} } ..>.8.8.8.8.8.8.8.8.8.8.8.8.8.8.8.8.8.8.8.8.8.8.8.8.8.8.8.8.8.8.3.{ { { { ......{ { X . . . X                 ",
"{ { } ..} } { @.,.8.8.8.8.8.8.8.8.8.8.8.8.8.8.8.8.8.8.8.8.8.8.8.8.8.8.8.8.8.8.8.8.=.} ..} ..{ } } ..H . . . X 8                 ",
"} ......@.>.3.8.8.8.8.8.8.8.8.8.8.8.8.8.8.8.8.8.8.8.8.8.8.8.8.8.8.8.8.8.8.8.8.8.8.@.{ ..} { ..} } } g . . . X l                 ",
"8.8.8.8.8.8.8.8.8.8.8.8.8.8.8.8.8.8.8.8.8.8.8.8.8.8.8.8.8.8.8.8.8.8.8.8.8.8.8.8.3.} } ..} ..{ { ..{ . . . . o                   ",
"8.8.8.8.8.8.8.8.8.8.8.8.8.8.8.8.8.8.8.8.8.8.8.8.8.8.8.8.8.8.8.8.8.8.8.8.8.8.8.8.@.{ } { { ..} ..{ E . . . . $                   ",
"8.8.8.8.8.8.8.8.8.8.8.8.8.8.8.8.8.8.8.8.8.8.8.8.8.8.8.8.8.8.8.8.8.8.8.8.8.8.8.>...} ..{ { } ..} } g X . . . t                   ",
"8.8.8.8.8.8.8.8.8.8.8.8.8.8.8.8.8.8.8.8.8.8.8.8.8.8.8.8.8.8.8.8.8.8.8.8.8.8.8...{ { ..} ..} { { ..X . . . .                     ",
"8.8.8.8.8.8.8.8.8.8.8.8.8.8.8.8.8.8.8.8.8.8.8.8.8.8.8.8.8.8.8.8.8.8.8.8.8.8.@.} } ..{ { } ..} ..m . . . . =                     ",
"8.8.8.8.8.8.8.8.8.8.8.8.8.8.8.8.8.8.8.8.8.8.8.8.8.8.8.8.8.8.8.8.8.8.8.8.8.@.} ..{ ..} ..} { } } = . . . . t                     ",
"8.8.8.8.8.8.8.8.8.8.8.8.8.8.8.8.8.8.8.8.8.8.8.8.8.8.8.8.8.8.8.8.8.8.8.8.=.{ } ..{ } ..} ....{ E o . . . .                       ",
"8.8.8.8.8.8.8.8.8.8.8.8.8.8.8.8.8.8.8.8.8.8.8.8.8.8.8.8.8.8.8.8.8.8.8.=.{ ..} { ..} { { { } } 0 . . . . 8                       ",
"8.8.8.8.8.8.8.8.8.8.8.8.8.8.8.8.8.8.8.8.8.8.8.8.8.8.8.8.8.8.8.8.8.8.=.{ } { } ..{ } ....} { E . . . . .                         ",
"8.8.8.8.8.8.8.8.8.8.8.8.8.8.8.8.8.8.8.8.8.8.8.8.8.8.8.8.8.8.8.8.8.=.} ..} ..} { ..} { } } { 8 . . . . 8                         ",
"8.8.8.8.8.8.8.8.8.8.8.8.8.8.8.8.8.8.8.8.8.8.8.8.8.8.8.8.8.8.8.8.@.} { } ..} ..{ ..{ } } } m . . . . .                           ",
"8.8.8.8.8.8.8.8.8.8.8.8.8.8.8.8.8.8.8.8.8.8.8.8.8.8.8.8.8.8.8.@.{ ....} { { ..} } { ..} { $ . . . X 8                           ",
"8.8.8.8.8.8.8.8.8.8.8.8.8.8.8.8.8.8.8.8.8.8.8.8.8.8.8.8.8.3.@.} } ..{ } ....{ } { } ..{ k . . . . X                             ",
"8.8.8.8.8.8.8.8.8.8.8.8.8.8.8.8.8.8.8.8.8.8.8.8.8.8.8.8.8.O...{ } { ..} { } { ....} { E . . . . . g                             ",
"8.8.8.8.8.8.8.8.8.8.8.8.8.8.8.8.8.8.8.8.8.8.8.8.8.8.8.8.O.{ } ......{ { } { } ....{ ) $ . . . . $                               ",
"8.8.8.8.8.8.8.8.8.8.8.8.8.8.8.8.8.8.8.8.8.8.8.8.8.8.8.@.} } { ..{ } } ......} { } } 8 . . . . . M                               ",
"8.8.8.8.8.8.8.8.8.8.8.8.8.8.8.8.8.8.8.8.8.8.8.8.8.8.=.} ..{ } } { ....} { { } ..{ m X . . . X g                                 ",
"8.8.8.8.8.8.8.8.8.8.8.8.8.8.8.8.8.8.8.8.8.8.8.8.8.3...} } { ..{ } } { { } ..} { H . . . . o $                                   ",
"8.8.8.8.8.8.8.8.8.8.8.8.8.8.8.8.8.8.8.8.8.8.8.8.,.O.{ } } ..{ ....{ } ..} ....L . . . . . o                                     ",
"8.8.8.8.8.8.8.8.8.8.8.8.8.8.8.8.8.8.8.8.8.3.=.O.{ } { ..{ ..} } ..} { ..} } H X . . . . . S                                     ",
"8.8.8.8.8.8.8.8.8.8.8.8.8.8.8.8.8.8.3.,.@.} ..{ { } ....{ } ..{ { { } ..{ L . . . . . . l                                       ",
"8.8.8.8.8.8.8.8.8.8.8.8.8.8.3.,.@.O.{ ..{ } ..} ..} { } { ..} { } ..} { m . . . . . . g                                         ",
"8.8.8.8.8.8.8.8.3.3.,.@.O.} } } } { } } { ..{ } ..{ } { } } ....} { { 8 . . . . X X u                                           ",
"3.3.3.,.=.@.O.{ ..} } { { { ..{ } ....{ } } { ..} { ......{ { } ..R 8 X . . . . X g                                             ",
"{ ....} { } ..{ { } ......} } { } { { ......{ } ..{ } } { ..{ { h X . . . . . . h                                               ",
"} } { { } } ..} ..} { } { { ........} } { } { ..} { ..{ } } Q 8 X X . . . . . M                                                 ",
"..{ } ..{ ..{ } ..{ } { } ..{ } { } ..{ } { } ..} ..{ { ) g . . X . . . . $ H                                                   ",
"..} { ..} } { ..} { ....} { ..} { ..} { ....} { } { ) g X X . . . . . . 0                                                       ",
"{ { } ..} ..{ { } ..{ } ....{ } ..{ } } ..{ { } E e . . . . . . . . $ M                                                         ",
"} ..} { { ..} ..} { ..} { } { ..} } ..{ ..Q m $ . . . . . . . . . g                                                             ",
"..} ..{ { } ..{ ....{ { | { } ..} } E k 8 . . . . . . . X . . > M                                                               ",
"{ { ..} ..} { { { } } ..| ) I M e . X . X . . . . . . . X > D                                                                   ",
"} { { ) Q Q R I A m y , . . . . . . . . . . . . . . . 8 M                                                                       ",
". . . . . o . . . . . . . . . . . . . . . . . . . g                                                                             ",
". . . . . . . . . . . . . . . . X . . . . o u S                                                                                 ",
". . . . . . . . . . . . . . . . X X 8 l                                                                                         ",
". X X X X X X X . . . . . > g l                                                                                                 ",
". $ $ > $ 8 u g l N D                                                                                                           ",
"                                                                                                                                ",
"                                                                                                                                ",
"                                                                                                                                ",
"                                                                                                                                ",
"                                                                                                                                ",
"                                                                                                                                "
};
