/* XPM */
static char *Body_vertical1707133379[] = {
/* columns rows colors chars-per-pixel */
"32 32 31 1 ",
"  c #FFFFFF",
". c #4C704B",
"X c #5A8659",
"o c #5B8759",
"O c #6A9E68",
"+ c #6A9F68",
"@ c #6AA068",
"# c #6CA36A",
"$ c #6CA46A",
"% c #6CA56A",
"& c #6DA86B",
"* c #6EA86C",
"= c #6EA96C",
"- c #6EAA6C",
"; c #6EAB6C",
": c #6FAB6D",
"> c #6FAC6D",
", c #6FAD6D",
"< c #6FAE6D",
"1 c #70AE6E",
"2 c #70AF6E",
"3 c #70B06E",
"4 c #71B06F",
"5 c #71B16F",
"6 c #71B26F",
"7 c #71B36F",
"8 c #72B370",
"9 c #72B470",
"0 c #72B570",
"q c #73B571",
"w c #73B671",
/* pixels */
"   ..XOOOOwwwwwwwwwwwwOOOOo..   ",
"   ..XOOOO8wwwwwwwwwwwOOOOo..   ",
"   ..XOOOO3wwwwwwwwww3OOOOX..   ",
"   ..XOOO@3wwwwwwwwww3OOOOX..   ",
"   ..XOOOO>wwwwwwwwww>OOOOo..   ",
"   ..XOOOO-wwwwwwwwww;OOOOo..   ",
"   ..XOOOO%wwwwwwwwww$OOOOo..   ",
"   ..XOOOO@wwwwwwwwwwOOOOOo..   ",
"   ..XOOOOO8wwwwwwqq3OOOOOo..   ",
"   ..XOOOOO2wwwwwwwq2OOOOOo..   ",
"   ..XOOOOO>wwwwwwqq2OOOOOo..   ",
"   ..XOOOOO;wwwwwwqq;OOOOOo..   ",
"   ..XOOOOO-wwwwwwww-OOOOOo..   ",
"   ..XOOOOO>wwwwwwww-OOOOOo..   ",
"   ..XOOOOO>wwwwwwww2OOOOOo..   ",
"   ..XOOOOO3wwwwwwww2OOOOOo..   ",
"   ..XOOOOOwwwwwwwww3@OOOOo..   ",
"   ..XOOOOOqwwwwwwwwq@OOOOo..   ",
"   ..XOOOO$qwwwwwwwww@OOOOo..   ",
"   ..XOOOO;wwwwwwwwww-OOOOo..   ",
"   ..XOOOO2wwwwwwwwww2OOOOo..   ",
"   ..XOOOO3wwwwwwwwwq3OOOOo..   ",
"   ..XOOOOqqwwwwwwwwwwOOOOo..   ",
"   ..XOOO@wqwwwwwwwwwwOOOOo..   ",
"   ..XOOOO3qwwwwwwwwq8OOOOo..   ",
"   ..XOOOO3qwwwwwwwwq2OOOOo..   ",
"   ..XOOOO2qwwwwwwwwq1OOOOo..   ",
"   ..XOOOO-qwwwwwwwww-OOOOo..   ",
"   ..XOOOO1qwwwwwwwww;OOOOo..   ",
"   ..XOOOO;qwwwwwwwww2OOOOo..   ",
"   ..XOOOO2wwwwwwwwwq2OOOOo..   ",
"   ..XOOOO3wwwwwwwwwq8OOOOo..   "
};
