/* XPM */
static char *Body_up_to_left1705422482[] = {
/* columns rows colors chars-per-pixel */
"64 64 114 2 ",
"   c #FFFFFF",
".  c #4C704B",
"X  c #4C714B",
"o  c #4D714C",
"O  c #4D724C",
"+  c #4E724C",
"@  c #4E734D",
"#  c #4E744D",
"$  c #4F744D",
"%  c #4F744E",
"&  c #4F754E",
"*  c #4F764E",
"=  c #50764E",
"-  c #50764F",
";  c #50774F",
":  c #51784F",
">  c #517750",
",  c #517850",
"<  c #517950",
"1  c #527950",
"2  c #527951",
"3  c #527A50",
"4  c #527A51",
"5  c #537A51",
"6  c #527B51",
"7  c #537A52",
"8  c #537B52",
"9  c #527C51",
"0  c #537C51",
"q  c #537D52",
"w  c #547D53",
"e  c #557D53",
"r  c #557F53",
"t  c #557E54",
"y  c #567F54",
"u  c #558053",
"i  c #558054",
"p  c #558154",
"a  c #568055",
"s  c #568255",
"d  c #568355",
"f  c #578355",
"g  c #578156",
"h  c #578456",
"j  c #588256",
"k  c #588357",
"l  c #588556",
"z  c #598457",
"x  c #588557",
"c  c #588657",
"v  c #598458",
"b  c #598558",
"n  c #5A8558",
"m  c #598758",
"M  c #5B8759",
"N  c #598858",
"B  c #5A8958",
"V  c #5A8959",
"C  c #5B8A59",
"Z  c #5B8B59",
"A  c #5B8B5A",
"S  c #5C885A",
"D  c #5C895B",
"F  c #5B8C5A",
"G  c #5C8C5A",
"H  c #5C8D5B",
"J  c #5E8C5D",
"K  c #5F8D5D",
"L  c #608E5E",
"P  c #608F5E",
"I  c #608F5F",
"U  c #61905F",
"Y  c #619160",
"T  c #629160",
"R  c #629260",
"E  c #629261",
"W  c #639361",
"Q  c #639462",
"!  c #649562",
"~  c #659663",
"^  c #669764",
"/  c #669864",
"(  c #669965",
")  c #679965",
"_  c #689B66",
"`  c #699C67",
"'  c #699D67",
"]  c #6A9D68",
"[  c #6A9E68",
"{  c #6A9F68",
"}  c #6BA069",
"|  c #6BA169",
" . c #6BA269",
".. c #6CA26A",
"X. c #6CA36A",
"o. c #6CA46A",
"O. c #6DA56B",
"+. c #6DA66B",
"@. c #6DA76B",
"#. c #6EA86C",
"$. c #6EA96C",
"%. c #6FAA6D",
"&. c #6FAB6D",
"*. c #6FAC6D",
"=. c #70AE6E",
"-. c #70AF6E",
";. c #71B06F",
":. c #71B16F",
">. c #71B26F",
",. c #72B270",
"<. c #72B370",
"1. c #72B470",
"2. c #73B571",
"3. c #73B671",
/* pixels */
"                                                                                                                                ",
"                                                                                                                                ",
"                                                                                                                                ",
"                                                                                                                                ",
"                                                                                                                                ",
"                                                                                                                                ",
". . . o # : 9 u h m Z                                                                                                           ",
". . . . . . . . . . . . . = u m                                                                                                 ",
". . . . . . . . . . . . . . . . . . 7 z                                                                                         ",
". . . . . . . . . . . . . . . . . . . . o o w                                                                                   ",
". . . . . . . . . o . . . . . . . . . . . . . . = t                                                                             ",
"{ ] { { _ ^ ~ I J m j 7 o . . . . . . . . . . . . . . 8                                                                         ",
"] { ] { { ] { ] { ] { ] { _ I m 8 . . . . . . . . . . . . >                                                                     ",
"{ ] { ] ] { ] { ] { ] { { { ] { ] ] I j = . . . . . . . . . o 7                                                                 ",
"] { ] { { ] { ] { ] { ] { ] { ] ] { ] { ] T y . . . . . . . . . . d                                                             ",
"{ ] { ] ] { ] { ] { ] { ] { ] { { ] { ] { { { ] m > . . . . . . . . # A                                                         ",
"] { ] { ] { ] { ] { ] { ] { ] { ] { ] { ] { ] { { ] I 8 o . . . . . . . d                                                       ",
"{ ] { ] { ] { ] { ] { ] { ] { ] { ] { ] { ] { ] ] { ] ] T 8 . . . . . . o =                                                     ",
"] { ] { ] { ] { ] { { { ] { ] { ] { ] { ] { ] { { ] { ] { { v = . . . . . . o Z                                                 ",
"{ ] { ] { ] { ] { { { { { ] { ] { ] { ] { ] { ] ] { ] { { { ] _ d . . . . . . . z                                               ",
"3.1.1.1.=.=.=.+.O.O.' { { ' { { ] { { { ] { ] { { ] { ] { ] { ] { I > . . . . . X d                                             ",
"3.2.2.3.2.2.2.2.3.3.1.1.=.=.O.O.{ ] { _ { ] { ] ] { ] { ] { ] { { { ^ 7 . . . . X X d                                           ",
"3.3.3.3.3.3.2.2.3.3.3.3.2.2.3.3.2.,.=...{ { ] { { ] { ] { ] { ] { ] { { v . . . . . . u                                         ",
"3.3.3.3.3.3.3.2.3.3.3.3.2.2.3.3.2.2.2.2.=...{ ] ] { ] { ] { ] { ] { ] { { J . . . . . . z                                       ",
"3.3.3.3.3.3.3.3.3.3.3.3.3.3.3.3.2.2.3.3.3.3.=...' { { { { ] { ] { ] { ] { ] L . . . . . . m                                     ",
"3.3.3.3.3.3.3.3.3.3.3.3.3.3.3.3.2.2.3.3.3.3.1.1.O.{ { { ] { ] { ] { ] { ] { { I . . . . . o                                     ",
"3.3.3.3.3.3.3.3.3.3.3.3.3.3.3.3.3.3.3.3.3.3.3.3.2.+.{ ] { ] { ] { ] { ] { ] { ] L . . . . . o                                   ",
"3.3.3.3.3.3.3.3.3.3.3.3.3.3.3.3.3.3.3.3.3.3.3.3.2.2.+.{ ] { ] { ] { ] { ] { ] { { v . . . . o w                                 ",
"3.3.3.3.3.3.3.3.3.3.3.3.3.3.3.3.3.3.3.3.3.3.3.3.2.2.3.%.{ { { { { ] { ] { ] { ] { ] 8 . . . . . Z                               ",
"3.3.3.3.3.3.3.3.3.3.3.3.3.3.3.3.3.3.3.3.3.3.3.3.3.3.3.3.+.{ { { ] { ] { ] { ] { ] { _ > . . . . .                               ",
"3.3.3.3.3.3.3.3.3.3.3.3.3.3.3.3.3.3.3.3.3.3.3.3.3.3.3.3.2.%.' { { ] { ] { ] { ] { ] { T . . . . o 9                             ",
"3.3.3.3.3.3.3.3.3.3.3.3.3.3.3.3.3.3.3.3.3.3.3.3.3.3.3.3.2.2.O.{ ] { ] { ] { ] { { { { { m . . . . . F                           ",
"3.3.3.3.3.3.3.3.3.3.3.3.3.3.3.3.3.3.3.3.3.3.3.3.3.3.3.3.3.3.3.O.{ ] { ] { ] { ] { ] { ] { > . . . . >                           ",
"3.3.3.3.3.3.3.3.3.3.3.3.3.3.3.3.3.3.3.3.3.3.3.3.3.3.3.3.3.3.3.1...{ { { ] { ] { ] { ] { { ^ . . . . . A                         ",
"3.3.3.3.3.3.3.3.3.3.3.3.3.3.3.3.3.3.3.3.3.3.3.3.3.3.3.3.3.3.3.3.,...{ { { ] { ] { ] { ] { ] t . . . . >                         ",
"3.3.3.3.3.3.3.3.3.3.3.3.3.3.3.3.3.3.3.3.3.3.3.3.3.3.3.3.3.3.3.3.2.,.| { ] { ] { ] { ] { ] { ^ . . . . . A                       ",
"3.3.3.3.3.3.3.3.3.3.3.3.3.3.3.3.3.3.3.3.3.3.3.3.3.3.3.3.3.3.3.3.3.3.,.O.{ { { { { ] { ] { { { t . . . . 7                       ",
"3.3.3.3.3.3.3.3.3.3.3.3.3.3.3.3.3.3.3.3.3.3.3.3.3.3.3.3.3.3.3.3.3.3.1.2.+.{ { ] ] { ] { ] { { ^ . . . . .                       ",
"3.3.3.3.3.3.3.3.3.3.3.3.3.3.3.3.3.3.3.3.3.3.3.3.3.3.3.3.3.3.3.3.3.3.2.2.2.,.] { { ] { ] { ] { ] t . . . . d                     ",
"3.3.3.3.3.3.3.3.3.3.3.3.3.3.3.3.3.3.3.3.3.3.3.3.3.3.3.3.3.3.3.3.3.3.2.2.2.2.=.{ ] { ] { ] { ] { T . . . . o                     ",
"3.3.3.3.3.3.3.3.3.3.3.3.3.3.3.3.3.3.3.3.3.3.3.3.3.3.3.3.3.3.3.3.3.3.3.3.3.3.3.O.' { { { { ] { ] { = . . . . G                   ",
"3.3.3.3.3.3.3.3.3.3.3.3.3.3.3.3.3.3.3.3.3.3.3.3.3.3.3.3.3.3.3.3.3.3.3.3.3.3.3.%.{ { ] { ] { ] { { m . . . . u                   ",
"3.3.3.3.3.3.3.3.3.3.3.3.3.3.3.3.3.3.3.3.3.3.3.3.3.3.3.3.3.3.3.3.3.3.3.3.3.3.3.1.{ ] { ] { ] { ] { ^ . . . . .                   ",
"3.3.3.3.3.3.3.3.3.3.3.3.3.3.3.3.3.3.3.3.3.3.3.3.3.3.3.3.3.3.3.3.3.3.3.3.3.3.3.3...{ ] { ] { ] { ] { : . . . . G                 ",
"{ ] { ..%.;.2.2.3.3.3.3.3.3.3.3.3.3.3.3.3.3.3.3.3.3.3.3.3.3.3.3.3.3.3.3.3.3.3.3.%.{ { ] { ] { ] { ] v . . . . h                 ",
"] { ] ] ' { O.=.2.1.3.3.3.3.3.3.3.3.3.3.3.3.3.3.3.3.3.3.3.3.3.3.3.3.3.3.3.3.3.3.=.{ ] { ] { ] { ] { E . . . . 7                 ",
"{ ] ] { { { ' ' ..#.3.1.3.3.3.3.3.3.3.3.3.3.3.3.3.3.3.3.3.3.3.3.3.3.3.3.3.3.3.3.2...{ ] { ] { ] { ] { o . . . .                 ",
"] { { ] { { { { { ' O.;.3.3.3.3.3.3.3.3.3.3.3.3.3.3.3.3.3.3.3.3.3.3.3.3.3.3.3.3.2.+.{ { ] { ] { ] { { e . . . .                 ",
"{ ] { ] ] { ] { ] { ] { O.2.2.2.3.3.3.3.3.3.3.3.3.3.3.3.3.3.3.3.3.3.3.3.3.3.3.3.2.=.{ ] ] { ] { { ] { n . . . . m               ",
"] { ] { { ] { ] { ] { ] { ..1.2.3.3.3.3.3.3.3.3.3.3.3.3.3.3.3.3.3.3.3.3.3.3.3.3.2.=.] { { ] { ] ] { ] I . . . . d               ",
"{ ] { ] ] { ] { ] { ] { { { O.1.3.3.3.3.3.3.3.3.3.3.3.3.3.3.3.3.3.3.3.3.3.3.3.3.2.2.' { ] { ] { { ] ] _ . . . . =               ",
"] { ] { { ] { ] { ] { ] { { ' O.2.3.3.3.3.3.3.3.3.3.3.3.3.3.3.3.3.3.3.3.3.3.3.3.2.2...] { ] { ] ] { { ] . . . . o               ",
"{ _ _ ] ] ] ] { ] { ] { { { ] { O.2.2.3.3.3.3.3.3.3.3.3.3.3.3.3.3.3.3.3.3.3.3.3.2.2.#.' ] { ] { { ] { ] > . . . .               ",
". . = 8 n ^ { { { ] { ] { ] { ] ' %.2.3.3.3.3.3.3.3.3.3.3.3.3.3.3.3.3.3.3.3.3.3.2.2.=.{ { ] { ] ] { ] { t . . . . G             ",
". . . . o . j { ] { ] { ] { ] { { ..3.3.3.3.3.3.3.3.3.3.3.3.3.3.3.3.3.3.3.3.3.2.2.2.=.' ] { ] { { ] { ] v o . . . Z             ",
". . . . o o . = T ] { ] { ] { ] { { =.3.3.3.3.3.3.3.3.3.3.3.3.3.3.3.3.3.3.3.3.2.2.2.,.{ { ] { ] ] { ] { n o . . o h             ",
". . . . . . . . > { ] { ] { ] { ] { ..2.2.2.3.3.3.3.3.3.3.3.3.3.3.3.3.3.3.3.3.3.3.3.2.' | ' ] { { ] { { J . . . . d             ",
". # . . . . . . . v { { { ] { ] { ] { =.3.2.3.3.3.3.3.3.3.3.3.3.3.3.3.3.3.3.3.3.3.3.3...{ { { ] ] { ] { T . . . . w             ",
"      G # . . . . . ] { ] { ] { ] { ] =.3.3.3.3.3.3.3.3.3.3.3.3.3.3.3.3.3.3.3.3.3.3.1.O.{ { ] { { ] { { ~ . . . . 9             ",
"          o . . . . J { { ] { ] { ] { +.3.3.3.3.3.3.3.3.3.3.3.3.3.3.3.3.3.3.3.3.3.3.2.#.{ { { ] ] { { ' / . . . . 7             ",
"          Z . . . . v ] ] { ] { ] { ] ] 3.3.3.3.3.3.3.3.3.3.3.3.3.3.3.3.3.3.3.3.3.3.3.*.{ ] { ] { ] { ] ( . . . . 7             ",
"            . . . . > { { ] { ] { ] { { 3.3.3.3.3.3.3.3.3.3.3.3.3.3.3.3.3.3.3.3.3.3.3.;.] { ] { ] { ] { _ . . . . #             ",
"            . . . . o { ] { ] { { { { ' 3.3.3.3.3.3.3.3.3.3.3.3.3.3.3.3.3.3.3.3.3.3.2.;.{ ] { ] { ] { ] _ . . . . o             ",
"            . . . . > ] { ] { ] { { { | 3.3.3.3.3.3.3.3.3.3.3.3.3.3.3.3.3.3.3.3.2.2.2.,.] { ] { ] { ] { ' . . . X X             "
};
