/* XPM */
static char *Body_up_to_left1707133379[] = {
/* columns rows colors chars-per-pixel */
"32 32 84 1 ",
"  c #FFFFFF",
". c #4C704B",
"X c #4C714B",
"o c #4D724C",
"O c #4D734C",
"+ c #4E734D",
"@ c #4E744C",
"# c #4E744D",
"$ c #4F744D",
"% c #4E754D",
"& c #4F754D",
"* c #4F744E",
"= c #4F754E",
"- c #4F774E",
"; c #4F764F",
": c #50764F",
"> c #51764F",
", c #50774F",
"< c #50784E",
"1 c #50794F",
"2 c #517A4F",
"3 c #507850",
"4 c #517950",
"5 c #507A50",
"6 c #517A50",
"7 c #537A51",
"8 c #537B52",
"9 c #537C52",
"0 c #527E52",
"q c #547C52",
"w c #547D53",
"e c #547E53",
"r c #557F54",
"t c #567F54",
"y c #568155",
"u c #578155",
"i c #578256",
"p c #588356",
"a c #598457",
"s c #598558",
"d c #5A8658",
"f c #5A8659",
"g c #5B8759",
"h c #5B885A",
"j c #5C895A",
"k c #5D8A5B",
"l c #5D8A5C",
"z c #5E8C5C",
"x c #5F8D5D",
"c c #5F8E5D",
"v c #629160",
"b c #629360",
"n c #639461",
"m c #649562",
"M c #659663",
"N c #679965",
"B c #679A65",
"V c #689B66",
"C c #689C66",
"Z c #699C67",
"A c #6A9E68",
"S c #6A9F68",
"D c #6AA068",
"F c #6BA169",
"G c #6BA269",
"H c #6BA369",
"J c #6CA46A",
"K c #6CA56A",
"L c #6CA66A",
"P c #6DA66B",
"I c #6DA76B",
"U c #6EA96C",
"Y c #6EAA6C",
"T c #6FAC6D",
"R c #6FAD6D",
"E c #70AE6E",
"W c #70AF6E",
"Q c #70B06E",
"! c #71B16F",
"~ c #71B26F",
"^ c #72B470",
"/ c #72B570",
"( c #73B571",
") c #73B671",
/* pixels */
"                                ",
"                                ",
"                                ",
"..+-4<-                         ",
".........>-                     ",
"ffauq>......->                  ",
"AAAAAAZnhq....+<                ",
"AAAAAAAAAANl-...-               ",
"AAAAAAAAAAAAAb4...>             ",
"AAAAAAAAAAAAAAAx-..-            ",
"~)~WTUKFAAAAAAAAN0..-           ",
")))))))))WFAAAAAAAf..+          ",
")))))))))))TZFAAAAAk..-         ",
"))))))))))))~DAZAAAAh..-        ",
")))))))))))))~DFAAAAAr..0       ",
"))))))))))))))~ZAAAAAN-.+       ",
")))))))))))))))~AAAAAAn..<      ",
"))))))))))))))))WAAAAAZy..      ",
")))))))))))))))))TFAAAAm..<     ",
")))))))))))))))))))FAAAA0.-     ",
")))))))))))))))))))TZFAAx.+     ",
"))))))))))))))))))))FZAAC..-    ",
"AAGW))))))))))))))))KAAAA0.-    ",
"AAAAAW))))))))))))))TZAAAl..    ",
"AAAAAAP)))))))))))))~AAAAn..    ",
"AAAAAAAK)))))))))))))AAAAV..+   ",
"fkmAAAAAU))))))))))))FAAAA>.<   ",
"+..uNAAAA^)))))))))))KAAAA4+4   ",
"....uAAAAU)))))))))))UAAAAq.-   ",
"  -.+NAAAG)))))))))))TAAAAa.-   ",
"   ..xAAAA)))))))))))~AAAAf.-   ",
"   ..hAAAA))))))))))))AAAAa..   "
};
