/* XPM */
static char *Body_up_to_right1705422482[] = {
/* columns rows colors chars-per-pixel */
"64 64 120 2 ",
"   c #FFFFFF",
".  c #4C704B",
"X  c #4C714B",
"o  c #4D714C",
"O  c #4D724C",
"+  c #4E734D",
"@  c #4E744D",
"#  c #4F754E",
"$  c #4F764E",
"%  c #50754E",
"&  c #50764F",
"*  c #50774F",
"=  c #51774F",
"-  c #50784F",
";  c #51784F",
":  c #517750",
">  c #517850",
",  c #517950",
"<  c #527950",
"1  c #527951",
"2  c #527A51",
"3  c #537A51",
"4  c #537A52",
"5  c #537B52",
"6  c #527C51",
"7  c #537C52",
"8  c #547C53",
"9  c #547D53",
"0  c #547E52",
"q  c #547E53",
"w  c #547F53",
"e  c #557F53",
"r  c #557E54",
"t  c #567F54",
"y  c #558054",
"u  c #558154",
"i  c #568154",
"p  c #568055",
"a  c #578055",
"s  c #578155",
"d  c #568255",
"f  c #568355",
"g  c #578156",
"h  c #578456",
"j  c #588256",
"k  c #588357",
"l  c #598357",
"z  c #588556",
"x  c #588457",
"c  c #598457",
"v  c #588557",
"b  c #598557",
"n  c #598757",
"m  c #598458",
"M  c #5A8558",
"N  c #5A8559",
"B  c #598758",
"V  c #5B8759",
"C  c #598858",
"Z  c #5A8858",
"A  c #5A8959",
"S  c #5A8A59",
"D  c #5B8B5A",
"F  c #5D895B",
"G  c #5B8C5A",
"H  c #5C8D5B",
"J  c #5E8B5C",
"K  c #5E8C5D",
"L  c #5F8D5E",
"P  c #5F8E5E",
"I  c #608F5E",
"U  c #608F5F",
"Y  c #61905F",
"T  c #619160",
"R  c #629160",
"E  c #629260",
"W  c #629261",
"Q  c #639361",
"!  c #639462",
"~  c #649562",
"^  c #649563",
"/  c #659763",
"(  c #669764",
")  c #669864",
"_  c #669965",
"`  c #679A65",
"'  c #689B66",
"]  c #699C67",
"[  c #699D67",
"{  c #6A9D68",
"}  c #6A9E68",
"|  c #6A9F68",
" . c #6B9F69",
".. c #6BA069",
"X. c #6BA169",
"o. c #6BA269",
"O. c #6CA26A",
"+. c #6CA36A",
"@. c #6CA46A",
"#. c #6DA56B",
"$. c #6DA66B",
"%. c #6DA76B",
"&. c #6EA86C",
"*. c #6EA96C",
"=. c #6EAA6C",
"-. c #6FAA6D",
";. c #6FAB6D",
":. c #6FAC6D",
">. c #70AD6E",
",. c #70AE6E",
"<. c #70AF6E",
"1. c #71B06F",
"2. c #71B16F",
"3. c #71B26F",
"4. c #72B270",
"5. c #72B370",
"6. c #72B470",
"7. c #72B570",
"8. c #73B571",
"9. c #73B671",
/* pixels */
"            . . . . . } } } } } } } } } 9.9.9.9.9.9.9.9.9.9.9.9.9.9.9.9.9.9.9.9.9.9.9.9...} } } } } } } } . . . . .             ",
"            . . . . . } } } } } } } } } 3.9.9.9.9.9.9.9.9.9.9.9.9.9.9.9.9.9.9.9.9.9.9.9.} } } } } } } } } . . . . .             ",
"            . . . . . } } } } } } } } } :.9.9.9.9.9.9.9.9.9.9.9.9.9.9.9.9.9.9.9.9.9.9.9...} } } } } } } } # . . . .             ",
"            O . . . . [ } } } } } } } } :.9.9.9.9.9.9.9.9.9.9.9.9.9.9.9.9.9.9.9.9.9.9.9...[ } } } } } } } g . . . . C           ",
"            # . . . . ' } } } } } } } } ;.9.9.9.9.9.9.9.9.9.9.9.9.9.9.9.9.9.9.9.9.9.9.9.@.} } } } } } } } K . . . . #           ",
"            ; . . . . ) } } } } } } } } @.9.9.9.9.9.9.9.9.9.9.9.9.9.9.9.9.9.9.9.9.9.9.9.;.} } } } } } } } ' . . . . . O V       ",
"            6 . . . . ~ } } } } } } } } ..9.9.9.9.9.9.9.9.9.9.9.9.9.9.9.9.9.9.9.9.9.9.9.4.} } } } } } } } } h . . . . . . . . . ",
"            e . . . . R } } } } } } } } } 9.9.9.9.9.9.9.9.9.9.9.9.9.9.9.9.9.9.9.9.9.9.9.9...} } } } } } } } } 2 . . . . . . . . ",
"            g . . . . K } } } } } } } } } 4.9.9.9.9.9.9.9.9.9.9.9.9.9.9.9.9.9.9.9.9.9.9.9.;.} } } } } } } } } ~ 2 . . . . . . . ",
"            C O . . . V } } } } } } } } } :.9.9.9.9.9.9.9.9.9.9.9.9.9.9.9.9.9.9.9.9.9.9.9.9...} } } } } } } } } } l . . . . . . ",
"            C O . . . g } } } } } } } } } ;.9.9.9.9.9.9.9.9.9.9.9.9.9.9.9.9.9.9.9.9.9.9.9.9.:.} } } } } } } } } } } } Y V 2 # # ",
"              . . . . 2 } } } } } } } } } $.9.9.9.9.9.9.9.9.9.9.9.9.9.9.9.9.9.9.9.9.9.9.9.9.9.@.} } } } } } } } } } } } [ } } [ ",
"              . . . . . } } } } } } } } } ..9.9.9.9.9.9.9.9.9.9.9.9.9.9.9.9.9.9.9.9.9.9.9.9.9.9.@.} } } } } } } } } } } } } } } ",
"              * . . . . ) } } } } } } } } } 9.9.9.9.9.9.9.9.9.9.9.9.9.9.9.9.9.9.9.9.9.9.9.9.9.9.4.+.} } } } } } } } } } } } } } ",
"              g . . . . R } } } } } } } } } 3.9.9.9.9.9.9.9.9.9.9.9.9.9.9.9.9.9.9.9.9.9.9.9.9.9.9.4.@.} } } } } } } } } } } } } ",
"              C . . . . V } } } } } } } } } ;.9.9.9.9.9.9.9.9.9.9.9.9.9.9.9.9.9.9.9.9.9.9.9.9.9.9.9.9.$.} } } } } } } } } } } } ",
"                . . . . 2 } } } } } } } } } $.9.9.9.9.9.9.9.9.9.9.9.9.9.9.9.9.9.9.9.9.9.9.9.9.9.9.9.9.9.>.+.} } } } } } } } } } ",
"                O . . . . [ } } } } } } } } ..9.9.9.9.9.9.9.9.9.9.9.9.9.9.9.9.9.9.9.9.9.9.9.9.9.9.9.9.9.9.9.$.} } } } } } } } } ",
"                6 . . . . U } } } } } } } } } 4.9.9.9.9.9.9.9.9.9.9.9.9.9.9.9.9.9.9.9.9.9.9.9.9.9.9.9.9.9.9.9.9.;.+.} ..} } } } ",
"                V . . . . t } } } } } } } } } ;.9.9.9.9.9.9.9.9.9.9.9.9.9.9.9.9.9.9.9.9.9.9.9.9.9.9.9.9.9.9.9.9.9.9.>.@.+.} } } ",
"                  . . . . O } } } } } } } } } @.9.9.9.9.9.9.9.9.9.9.9.9.9.9.9.9.9.9.9.9.9.9.9.9.9.9.9.9.9.9.9.9.9.9.9.9.9.9.9.9.",
"                  * . . . . R } } } } } } } } } 3.9.9.9.9.9.9.9.9.9.9.9.9.9.9.9.9.9.9.9.9.9.9.9.9.9.9.9.9.9.9.9.9.9.9.9.9.9.9.9.",
"                  z . . . . g [ } } } } } } } } ;.9.9.9.9.9.9.9.9.9.9.9.9.9.9.9.9.9.9.9.9.9.9.9.9.9.9.9.9.9.9.9.9.9.9.9.9.9.9.9.",
"                    . . . . . [ } } } } } } } } @.9.9.9.9.9.9.9.9.9.9.9.9.9.9.9.9.9.9.9.9.9.9.9.9.9.9.9.9.9.9.9.9.9.9.9.9.9.9.9.",
"                    ; . . . . V } } } } } } } } } ;.9.9.9.9.9.9.9.9.9.9.9.9.9.9.9.9.9.9.9.9.9.9.9.9.9.9.9.9.9.9.9.9.9.9.9.9.9.9.",
"                    V . . . . : } } } } } } } } } } 4.9.9.9.9.9.9.9.9.9.9.9.9.9.9.9.9.9.9.9.9.9.9.9.9.9.9.9.9.9.9.9.9.9.9.9.9.9.",
"                      . . . . . R } } } } } } } } } ..;.9.9.9.9.9.9.9.9.9.9.9.9.9.9.9.9.9.9.9.9.9.9.9.9.9.9.9.9.9.9.9.9.9.9.9.9.",
"                      g . . . . 2 } } } } } } } } } } } @.3.9.9.9.9.9.9.9.9.9.9.9.9.9.9.9.9.9.9.9.9.9.9.9.9.9.9.9.9.9.9.9.9.9.9.",
"                        . . . . . R } } } } } } } } } } } ..9.9.9.9.9.9.9.9.9.9.9.9.9.9.9.9.9.9.9.9.9.9.9.9.9.9.9.9.9.9.9.9.9.9.",
"                        e . . . . 2 } } } } } } } } } } } ....9.9.9.9.9.9.9.9.9.9.9.9.9.9.9.9.9.9.9.9.9.9.9.9.9.9.9.9.9.9.9.9.9.",
"                          . . . . . V } } } } } } } } } } } } @.9.9.9.9.9.9.9.9.9.9.9.9.9.9.9.9.9.9.9.9.9.9.9.9.9.9.9.9.9.9.9.9.",
"                          e . . . . O } } } } } } } } } } } } } @.9.9.9.9.9.9.9.9.9.9.9.9.9.9.9.9.9.9.9.9.9.9.9.9.9.9.9.9.9.9.9.",
"                            . . . . . l } } } } } } } } } } } } } @.9.9.9.9.9.9.9.9.9.9.9.9.9.9.9.9.9.9.9.9.9.9.9.9.9.9.9.9.9.9.",
"                            h . . . . . R } } } } } } } } } } } } } @.9.9.9.9.9.9.9.9.9.9.9.9.9.9.9.9.9.9.9.9.9.9.9.9.9.9.9.9.9.",
"                              # . . . . # ) } } } } } } } } } } } } } ;.9.9.9.9.9.9.9.9.9.9.9.9.9.9.9.9.9.9.9.9.9.9.9.9.9.9.9.9.",
"                              G . . . . . 2 } } } } } } } } } } } } } } ;.9.9.9.9.9.9.9.9.9.9.9.9.9.9.9.9.9.9.9.9.9.9.9.9.9.9.9.",
"                                g . . . . . l } } } } } } } } } } } } } } $.9.9.9.9.9.9.9.9.9.9.9.9.9.9.9.9.9.9.9.9.9.9.9.9.9.9.",
"                                  - . . . . . J } } } } } } } } } } } } } } ;.9.9.9.9.9.9.9.9.9.9.9.9.9.9.9.9.9.9.9.9.9.9.9.9.9.",
"                                    . . . . . . U } } } } } } } } } } } } } [ @.9.9.9.9.9.9.9.9.9.9.9.9.9.9.9.9.9.9.9.9.9.9.9.9.",
"                                    G . . . . . . U } } } } } } } } } } } } } } ..:.9.9.9.9.9.9.9.9.9.9.9.9.9.9.9.9.9.9.9.9.9.9.",
"                                      n . . . . . . K } } } } } } } } } } } } } } } @.>.9.9.9.9.9.9.9.9.9.9.9.9.9.9.9.9.9.9.9.9.",
"                                        h . . . . . O V } } } } } } } } } } } } } } } } +.;.4.9.9.9.9.9.9.9.9.9.9.9.9.9.9.9.9.9.",
"                                          g . . . . . . 2 ' } } } } } } } } } } } } } } } } } +.@.;.>.>.9.9.9.9.9.9.9.9.9.9.9.9.",
"                                            h . . . . . . : R } } } } } } } } } } } } } } } } } } } } } } } +.@.@.>.>.3.3.9.9.9.",
"                                              z O . . . . . . l } } } } } } } } } } } } } } } } } } } } } } } } } } } } } } } } ",
"                                                C O . . . . . . 2 ~ } } } } } } } } } } } } } } } } } } } } } } } } } } } } } } ",
"                                                    # . . . . . . . t ( } } } } } } } } } } } } } } } } } } } } } } } } } } } } ",
"                                                      8 . . . . . . . . t ( } } } } } } } } } } } } } } } } } } } } } } } } } } ",
"                                                        C # O . . . . . . . t U } } } } } } } } } } } } } } } } } } } } } } } } ",
"                                                            e . . . . . . . . . # l ! } } } } } } } } } } } } } } } } } } } } } ",
"                                                              C & . . . . . . . . . . : V R } } } } } } } } } } } } } } } } } } ",
"                                                                  V # . . . . . . . . . . . . 2 V U ( } } } } } } } } } } } } } ",
"                                                                      z * . . . . . . . . . . . . . . . * t l F K R ~ ( ) ' } } ",
"                                                                            e O . . . . . . . . . . . . . . . . O . . . . . . . ",
"                                                                                V 2 O . . . . . . . . . . . . . . . . . . . . . ",
"                                                                                        h 2 . . . . . . . . . . . . . . . . . . ",
"                                                                                                n g 2 . . . . O . . . . . . . . ",
"                                                                                                          K C z g t 6 ; # # . . ",
"                                                                                                                                ",
"                                                                                                                                ",
"                                                                                                                                ",
"                                                                                                                                ",
"                                                                                                                                ",
"                                                                                                                                "
};
