/* XPM */
static char *Body_horizontal1707133378[] = {
/* columns rows colors chars-per-pixel */
"32 32 29 1 ",
"  c #FFFFFF",
". c #4C704B",
"X c #5A8659",
"o c #5B8759",
"O c #6A9E68",
"+ c #6A9F68",
"@ c #6AA068",
"# c #6BA169",
"$ c #6BA269",
"% c #6CA36A",
"& c #6CA66A",
"* c #6DA76B",
"= c #6DA86B",
"- c #6EAA6C",
"; c #6EAB6C",
": c #6FAC6D",
"> c #6FAD6D",
", c #70AD6E",
"< c #70AE6E",
"1 c #70AF6E",
"2 c #70B06E",
"3 c #71B06F",
"4 c #71B16F",
"5 c #71B26F",
"6 c #72B370",
"7 c #72B470",
"8 c #72B570",
"9 c #73B571",
"0 c #73B671",
/* pixels */
"                                ",
"                                ",
"                                ",
"................................",
"................................",
"XXXXXXXXXXXXXXXXXXXXXXXXXXXXXXXX",
"OOOOOOOOOOOOOOOOOOOOOOOOOOOOOOOO",
"OOOOOOOOOOOOOOOOOOOOOOOOOOOOOOOO",
"OOOOOOOOOOOOOOOOOOOOOOOOOOOOOOOO",
"OOOOOOOOOOOOOOOOOOOOOO@OOOOOOOOO",
"00751:=%OOOOOOOOO%&-160075:11156",
"00070070751:::167700000070707007",
"00000000700000000000000000000000",
"00000000000000000000000000000000",
"00000000000000000000000000000000",
"00000000000000000000000000000000",
"00000000000000000000000000000000",
"00000000000000000000000000000000",
"00000000000000000000000000000000",
"00000000000000070000000000000000",
"00000007761111150000000007070000",
"00761--%OOOOOOOOO%&-5700761:1167",
"OOOOOOOOOOOOOOOOOOOOOOO@OOOOOOOO",
"OOOOOOOOOOOOOOOOOOOOOOOOOOOOOOOO",
"OOOOOOOOOOOOOOOOOOOOOOOOOOOOOOOO",
"OOOOOOOOOOOOOOOOOOOOOOOOOOOOOOOO",
"Xooooooooooooooooooooooooooooooo",
"................................",
"................................",
"                                ",
"                                ",
"                                "
};
