/* XPM */
static char *Body_right_to_up1707133379[] = {
/* columns rows colors chars-per-pixel */
"32 32 87 1 ",
"  c #FFFFFF",
". c #4C704B",
"X c #4C714B",
"o c #4D724C",
"O c #4E734C",
"+ c #4E734D",
"@ c #4D744C",
"# c #4E744C",
"$ c #4F744C",
"% c #4E744D",
"& c #4F744D",
"* c #4E754D",
"= c #4F754D",
"- c #4F764D",
"; c #4F744E",
": c #4F754E",
"> c #4F764E",
", c #4F774E",
"< c #4F784E",
"1 c #50774E",
"2 c #50764F",
"3 c #50774F",
"4 c #51794F",
"5 c #517A4F",
"6 c #507750",
"7 c #507850",
"8 c #517950",
"9 c #527850",
"0 c #537B52",
"q c #537C52",
"w c #547C53",
"e c #557D53",
"r c #547E52",
"t c #557E53",
"y c #557E54",
"u c #567F55",
"i c #568055",
"p c #578156",
"a c #578256",
"s c #588357",
"d c #598457",
"f c #598458",
"g c #598558",
"h c #5A8659",
"j c #5B8659",
"k c #5B885A",
"l c #5C885A",
"z c #5C895A",
"x c #5C895B",
"c c #5D8A5B",
"v c #5D8B5C",
"b c #5F8D5D",
"n c #5F8E5D",
"m c #629260",
"M c #639462",
"N c #649462",
"B c #649562",
"V c #679965",
"C c #689A66",
"Z c #689B66",
"A c #689C66",
"S c #699C67",
"D c #6A9E68",
"F c #6A9F68",
"G c #6AA068",
"H c #6BA069",
"J c #6BA169",
"K c #6BA269",
"L c #6CA36A",
"P c #6CA46A",
"I c #6CA56A",
"U c #6CA66A",
"Y c #6DA66B",
"T c #6DA76B",
"R c #6EA96C",
"E c #6EAA6C",
"W c #6FAC6D",
"Q c #6FAD6D",
"! c #70AE6E",
"~ c #70AF6E",
"^ c #71B06F",
"/ c #71B16F",
"( c #71B26F",
") c #72B470",
"_ c #72B570",
"` c #73B571",
"' c #73B671",
/* pixels */
"   +.dDDDD_`''''''''`_DDDDj..   ",
"   ..xDDDS``''''''''_)DDDDg..   ",
"  >..BDDDT''''''''''_)DDDDg.+   ",
"....iDDDD/''''''''''_/DDDDs.1   ",
"..+iZDDDK_`''''''''''!DDDDw.4   ",
"znVDDDDD/'``''''''''_EDDDD1.8   ",
"SDDDDDDT''''''''''''`TSDDZ..>   ",
"DDDDDST_''''''''''''`LDDDB..    ",
"DDDDDE_``'''''''''``)DDDDx..    ",
"DDKE_'``'''''''''''`!DDDD8.>    ",
"''_'''''''''''''''``LDDDD..>    ",
"''''''''''''''''''_!DDDDx+.     ",
"''''''''''''''''''(KDDDD1.>     ",
"''''''''''''''``'(KDDDDm..1     ",
"'''''''''''''''_/KSDDDD0.+      ",
"''''''''''''''')DDDDDDb..6      ",
"'''''''''''''`!KDDDDDZ>.+       ",
"'''''''''''''/SDDDDDDw..        ",
"''''''`'''''_LDDDDDDg+.8        ",
"''''''``''(!LSDDDDSn..>         ",
"'`''_``/!TSDDDDDDDj..>          ",
"_/!WTTDDSKDDDDDDVu..>           ",
"DDSKDDDDDDDDKSKm>..>            ",
"DDDSDDDDDDDDSBw...4             ",
"DDDDDDDDDDSbw...>w              ",
"DDDDDDZBxw.....4                ",
"gdsi8++.....>5                  ",
"+...+....><                     ",
".+>188+                         ",
"                                ",
"                                ",
"                                "
};
