/* XPM */
static char *Body_right_to_down1707133378[] = {
/* columns rows colors chars-per-pixel */
"32 32 84 1 ",
"  c #FFFFFF",
". c #4C704B",
"X c #4C714B",
"o c #4D714C",
"O c #4D724C",
"+ c #4E734D",
"@ c #4E744D",
"# c #4F744D",
"$ c #4E754D",
"% c #4F754D",
"& c #4E764D",
"* c #4F764D",
"= c #4F744E",
"- c #4F764E",
"; c #4F764F",
": c #50764E",
"> c #50774E",
", c #50764F",
"< c #50774F",
"1 c #50784F",
"2 c #507950",
"3 c #517950",
"4 c #517951",
"5 c #527A50",
"6 c #527A51",
"7 c #537A51",
"8 c #527C50",
"9 c #547C52",
"0 c #547D53",
"q c #557E54",
"w c #557F54",
"e c #578155",
"r c #578156",
"t c #578256",
"y c #588256",
"u c #598457",
"i c #598458",
"p c #598558",
"a c #5A8659",
"s c #5B8659",
"d c #5B875A",
"f c #5C895A",
"g c #5C895B",
"h c #5D8A5B",
"j c #5D8B5C",
"k c #5E8C5C",
"l c #5E8C5D",
"z c #608F5E",
"x c #61915F",
"c c #619160",
"v c #639361",
"b c #639461",
"n c #659763",
"m c #679A65",
"M c #689B66",
"N c #699C67",
"B c #6A9E68",
"V c #6A9F68",
"C c #6AA068",
"Z c #6BA169",
"A c #6BA269",
"S c #6BA369",
"D c #6CA36A",
"F c #6CA46A",
"G c #6CA56A",
"H c #6DA66B",
"J c #6DA76B",
"K c #6EA96C",
"L c #6EAA6C",
"P c #6FAB6D",
"I c #6FAC6D",
"U c #6FAD6D",
"Y c #70AE6E",
"T c #70AF6E",
"R c #70B06E",
"E c #70B16E",
"W c #71B16F",
"Q c #71B26F",
"! c #71B36F",
"~ c #72B370",
"^ c #72B470",
"/ c #72B570",
"( c #73B571",
") c #73B671",
/* pixels */
"                                ",
"                                ",
"                                ",
"                         ,22,:..",
"                     1,.........",
"                  1,......,0euud",
"                2@....0hbNBBBBNB",
"               @...,hMNVCNBBBBBB",
"             2...2xBBBBBBBBBBBBB",
"            +..@zBBBBBBNBBBBBBBB",
"           @..0mNBBBBBNNBBSJKYQ~",
"          @..dBBBBBBBCJYQ!))))))",
"         @..hBBBBBBSYQ))))))))))",
"        @+.dBBBBBBS)))))))))))))",
"        +.qBBBBBBNY)))))))))))))",
"       +.+MBBBBBBY))))))))))))))",
"      1..cBBBBBBQ)))))))))))))))",
"      +.0BBBBBCQ))))))))))))))))",
"     ,..bBBBBCQ)))))))))))))))))",
"     @.2BBBBBQ))))))))))))))))))",
"     ..kBBBBY^))))))))))))))))))",
"    ,..NBBNJ))))))))))))))))))))",
"    ,.0BBBNY))))))))))))))~QYSBS",
"    ..hBBBB^))))))))))))))YBNBBN",
"    ..vBBBS)))))))))))))QJBBBBBB",
"    ..MBBBJ^))))))))))))JBBBBBBB",
"   1.,BBBBK))))))))))))YBBBBBbjs",
"   2.2BBBNY)))))))))))^SBBBMy...",
"   1.0BBBBQ)))))))))))YBBBBy+...",
"   ,.yBBBBQ^))))))))))JNBNM..@  ",
"   +.yBBBB^)))))))))))BBBBz..   ",
"   +.dBBBB^)))))))))))BBBBh..   "
};
