/* XPM */
static char *Body_right_to_down1705422482[] = {
/* columns rows colors chars-per-pixel */
"64 64 118 2 ",
"   c #FFFFFF",
".  c #4C704B",
"X  c #4C714B",
"o  c #4D714C",
"O  c #4D724C",
"+  c #4E724C",
"@  c #4E734D",
"#  c #4E744D",
"$  c #4F744E",
"%  c #4F754E",
"&  c #4F764E",
"*  c #50764F",
"=  c #50774F",
"-  c #50784F",
";  c #51784F",
":  c #517750",
">  c #517850",
",  c #527850",
"<  c #527950",
"1  c #527A50",
"2  c #527A51",
"3  c #537A51",
"4  c #537A52",
"5  c #537B52",
"6  c #527C51",
"7  c #537C52",
"8  c #537D52",
"9  c #547C52",
"0  c #547D53",
"q  c #557D53",
"w  c #547E52",
"e  c #547E53",
"r  c #547F53",
"t  c #557F53",
"y  c #557E54",
"u  c #558053",
"i  c #558054",
"p  c #558154",
"a  c #568154",
"s  c #568055",
"d  c #578055",
"f  c #568255",
"g  c #578355",
"h  c #578156",
"j  c #578456",
"k  c #588256",
"l  c #588357",
"z  c #598357",
"x  c #588556",
"c  c #588457",
"v  c #598557",
"b  c #598757",
"n  c #598458",
"m  c #5A8558",
"M  c #598758",
"N  c #5A8659",
"B  c #5B8759",
"V  c #598858",
"C  c #5A8959",
"Z  c #5A8A59",
"A  c #5B8A59",
"S  c #5B8B5A",
"D  c #5C885A",
"F  c #5C8B5A",
"G  c #5C8C5A",
"H  c #5E8B5C",
"J  c #5E8C5C",
"K  c #5F8D5D",
"L  c #5F8D5E",
"P  c #608F5E",
"I  c #608F5F",
"U  c #61905F",
"Y  c #619160",
"T  c #629160",
"R  c #629260",
"E  c #639361",
"W  c #639462",
"Q  c #649562",
"!  c #659663",
"~  c #659763",
"^  c #669864",
"/  c #669965",
"(  c #679965",
")  c #679A65",
"_  c #689A66",
"`  c #689B66",
"'  c #699D67",
"]  c #6A9D68",
"[  c #6A9E68",
"{  c #6A9F68",
"}  c #6B9F69",
"|  c #6BA069",
" . c #6BA169",
".. c #6BA269",
"X. c #6CA26A",
"o. c #6CA36A",
"O. c #6CA46A",
"+. c #6CA56A",
"@. c #6DA56B",
"#. c #6DA66B",
"$. c #6DA76B",
"%. c #6EA86C",
"&. c #6EA96C",
"*. c #6EAA6C",
"=. c #6FAA6D",
"-. c #6FAB6D",
";. c #6FAC6D",
":. c #70AE6E",
">. c #70AF6E",
",. c #71B06F",
"<. c #71B16F",
"1. c #71B26F",
"2. c #72B270",
"3. c #72B370",
"4. c #72B470",
"5. c #72B570",
"6. c #73B571",
"7. c #73B671",
/* pixels */
"                                                                                                                                ",
"                                                                                                                                ",
"                                                                                                                                ",
"                                                                                                                                ",
"                                                                                                                                ",
"                                                                                                                                ",
"                                                                                                          S S f u 7 = = O . . . ",
"                                                                                                S e = . . . . . . X . . . . . . ",
"                                                                                        b 7 . . . . . . . . . . . . . . . . . . ",
"                                                                                  b % . . . . . . . . . . . . . . . . . . . . . ",
"                                                                            n = . . . . . . . . . . . . . . . . . . . . . . . . ",
"                                                                        f . . . . . . . . . . . . . . O 3 f S L U W ) ) ' ] ] ] ",
"                                                                    e . . . . . . . . . . . . 7 b I _ ' | ' ] ] ] ' ' | | | ' ] ",
"                                                                u . . . . . . . . . . % k U ] ] ] ] ] ] ] ' | ' | | ] ] ' ] ' | ",
"                                                            f O . . . . . . . . . f R ] ' | ' ' ' | ] ] ] | ' | ' ] | ' ] ' ] | ",
"                                                        D % O . . . . . . . = b ' ] ] ] ] ] ] | ] ] ' | ' | ] ] ' | ] ' | | ] ' ",
"                                                      f . . . . . . . . 9 U ] ' ] ' ' | ' | | ] | | ' ] ' ] | | ' ] | ' ] ] | ' ",
"                                                    - . . . . . . . - E ' ' | | | | ] ] ] ] ' ' ' ] ' | | ] ' ] ' | ] ' | ' | ] ",
"                                                S O . . . . . . = b ' ] ] ] ' ] ' ] | ' | ' ] | ] ' ] | | ' ] ' ] ] | | ' | ' ] ",
"                                              b . . . . . . . f _ ] | ] ' | | ] ' | ] ' | ] ' | | | ] ' ] ' | | | ' ' ] ] ] ' | ",
"                                            j . . . . . X % U | ] ] ] | ] | ' ' ] ] | ' | ' ] ] ' ] ' | ' ' ' ' | | | :.>.>.,.,.",
"                                          f . . . . . . 3 ) ' ] ] ] ] ' ' | ] | | ' | ] ] ' | ' ' | | | O.:.,.1.6.6.6.7.6.6.7.7.",
"                                        f . . . . . . b ' ] | ' | ] | ' ' ] | ] ] ' ' ] ' | | O.:.>.1.7.6.6.7.7.6.7.7.7.7.7.7.7.",
"                                      b . . . . . O D | ] ] ] ' ' ' | ] | ] ' ' | | ] O.*.,.6.7.6.6.6.7.6.6.7.7.7.7.7.7.7.7.7.7.",
"                                    S . . . . . . U ' ] ' ] | | ] | ' ] | | ' ] O.*.,.7.7.7.7.7.7.7.7.7.7.7.7.7.7.7.7.7.7.7.7.7.",
"                                    . . . . . . U ' ' | | ] ' ] ] ' | ] ' ] ] >.7.7.7.7.7.7.7.7.7.7.7.7.7.7.7.7.7.7.7.7.7.7.7.7.",
"                                  % . . . . X L ] ' ] | | ' ] ' | | ' ' ] ] 1.6.7.7.7.7.7.7.7.7.7.7.7.7.7.7.7.7.7.7.7.7.7.7.7.7.",
"                                e . . . . . n ' | | ] ' ] ' | | ' ] ] | ] :.7.6.7.7.7.7.7.7.7.7.7.7.7.7.7.7.7.7.7.7.7.7.7.7.7.7.",
"                              S . . . . . 3 ] | ' ] | ' ] | ' ] ] ' ' | O.7.7.7.7.7.7.7.7.7.7.7.7.7.7.7.7.7.7.7.7.7.7.7.7.7.7.7.",
"                              O . . . . 3 ) ' | ' | ] ' ] ' | ] | | ] O.1.7.7.7.7.7.7.7.7.7.7.7.7.7.7.7.7.7.7.7.7.7.7.7.7.7.7.7.",
"                            e . . . . . R ] ] ] ] ] | | | | ' ' ' ] | 1.7.7.7.7.7.7.7.7.7.7.7.7.7.7.7.7.7.7.7.7.7.7.7.7.7.7.7.7.",
"                          S . . . . . n ] ] | ' | ' ' ] ' ] ] | | O.6.7.7.7.7.7.7.7.7.7.7.7.7.7.7.7.7.7.7.7.7.7.7.7.7.7.7.7.7.7.",
"                          = . . . X 3 ' ] ' ' | ' | | ] | ] ] ] O.1.7.7.7.7.7.7.7.7.7.7.7.7.7.7.7.7.7.7.7.7.7.7.7.7.7.7.7.7.7.7.",
"                        b . . . . X R | | | ] ] ] ] ' ' ' ' | O.7.7.7.7.7.7.7.7.7.7.7.7.7.7.7.7.7.7.7.7.7.7.7.7.7.7.7.7.7.7.7.7.",
"                        % . . . . y ' ] ' ] | ' | ' ] | ] | *.7.7.7.7.7.7.7.7.7.7.7.7.7.7.7.7.7.7.7.7.7.7.7.7.7.7.7.7.7.7.7.7.7.",
"                      b . . . . X ! | ] ' | ] ' | ] ] ] ' *.7.7.7.7.7.7.7.7.7.7.7.7.7.7.7.7.7.7.7.7.7.7.7.7.7.7.7.7.7.7.7.7.7.7.",
"                      3 . . . . y ] ] | ' ] | | ' ' ] | O.7.7.7.7.7.7.7.7.7.7.7.7.7.7.7.7.7.7.7.7.7.7.7.7.7.7.7.7.7.7.7.7.7.7.7.",
"                      . . . . . ! ] ] ' | ] ' ] ] | ' *.7.7.7.7.7.7.7.7.7.7.7.7.7.7.7.7.7.7.7.7.7.7.7.7.7.7.7.7.7.7.7.7.7.7.7.7.",
"                    e . . . . 7 | ] | ' | ' ] ' ] | O.7.7.7.7.7.7.7.7.7.7.7.7.7.7.7.7.7.7.7.7.7.7.7.7.7.7.7.7.7.7.7.7.7.7.7.7.7.",
"                    O . . . . U ' ' | ] ] ' | | ] O.7.7.7.7.7.7.7.7.7.7.7.7.7.7.7.7.7.7.7.7.7.7.7.7.7.7.7.7.7.7.7.7.7.7.7.7.7.7.",
"                  n X . . . % ] ] | ' ] | | ' ] | 7.7.7.7.7.7.7.7.7.7.7.7.7.7.7.7.7.7.7.7.7.7.7.7.7.7.7.7.7.7.7.7.7.7.7.7.7.7.7.",
"                  3 X . . . b ] ] ' | ] ' ] ' | ;.7.7.7.7.7.7.7.7.7.7.7.7.7.7.7.7.7.7.7.7.7.7.7.7.7.7.7.7.7.7.7.7.7.7.7.7.7.7.7.",
"                  O . . . O W ] | | ' ' ] ' ] O.7.7.7.7.7.7.7.7.7.7.7.7.7.7.7.7.7.7.7.7.7.7.7.7.7.7.7.7.7.7.7.7.7.7.7.7.7.7.7.7.",
"                S . . . . % ] ] ' ] ] | | | ' <.7.7.7.7.7.7.7.7.7.7.7.7.7.7.7.7.7.7.7.7.7.7.7.7.7.7.7.7.7.7.7.7.7.7.7.7.7.7.7.7.",
"                f X X . . b ' | ' | | ] ' ' O.7.7.7.7.7.7.7.7.7.7.7.7.7.7.7.7.7.7.7.7.7.7.7.7.7.7.7.7.7.6.7.7.1.7.,.>.O.O.| | | ",
"                3 . . . . W ] ] ] ] ' ' ] | *.7.7.7.7.7.7.7.7.7.7.7.7.7.7.7.7.7.7.7.7.7.7.7.7.7.7.7.7.7.6.1.7.:.O.] ] ' | ] | ] ",
"                . . . . . ] | ' | ' ] | ' | ,.7.7.7.7.7.7.7.7.7.7.7.7.7.7.7.7.7.7.7.7.7.7.7.7.7.7.7.7.7.6.>.O.] | ' ] | ' | ' ] ",
"                . . . X 3 ] ] ' | ] ' | ] | 7.7.7.7.7.7.7.7.7.7.7.7.7.7.7.7.7.7.7.7.7.7.7.7.7.7.7.7.7.6.*.] ] ' | ] ' | ] ] ' | ",
"              b X . . . n ] ] | ' ] | | ' O.7.7.7.7.7.7.7.7.7.7.7.7.7.7.7.7.7.7.7.7.7.7.7.7.7.7.7.7.6.O.' ] | | ' ] | ' ] ] | ' ",
"              f . . . . I ] ] ' | ] ' ] ' *.7.7.7.7.7.7.7.7.7.7.7.7.7.7.7.7.7.7.7.7.7.7.7.7.7.7.7.1.O.| | ] ' ] ' | ] ' | ' | ] ",
"              3 . . . . ~ ] | ' | ' ] ' ] *.7.7.7.7.7.7.7.7.7.7.7.7.7.7.7.7.7.7.7.7.7.7.7.7.7.7.7.O.' ] | ' ] ' ] ] | | ' | ' ] ",
"              O . . . . ' ' | ] ] ' | | ] ,.7.7.7.7.7.7.7.7.7.7.7.7.7.7.7.7.7.7.7.7.7.7.7.7.7.7.*.] ' | ] ' | | | ' ' ] ] ] ' | ",
"              . . . . = ] ] | ' | ' ] ] ] 7.7.7.7.7.7.7.7.7.7.7.7.7.7.7.7.7.7.7.7.7.7.7.7.7.7.;.' ] ] | ' ] ' ] | ] ] ] | ' _ ' ",
"              . . . . e | ' | ] ] ' | ' ] 7.7.7.7.7.7.7.7.7.7.7.7.7.7.7.7.7.7.7.7.7.7.7.7.7.7.O.| ] ' | ' | | ] ' ' ( D e = . . ",
"            S . . . . b ' | ' ] ] | ] | | 7.7.7.7.7.7.7.7.7.7.7.7.7.7.7.7.7.7.7.7.7.7.7.7.7.*.] ' ' ] ] ] ] | ' ] k . . . . . . ",
"            b . . . . D ] ] ' | ' | ] | O.7.7.7.7.7.7.7.7.7.7.7.7.7.7.7.7.7.7.7.7.7.7.7.7.7.| ' ] | | ' | ' ' ! - . . . . . . . ",
"            f . . . . I ] ] ] ] | ' ] ] *.7.7.7.7.7.7.7.7.7.7.7.7.7.7.7.7.7.7.7.7.7.7.7.7.;.] | ' | | ] ] ] ] 3 . . . . . . . . ",
"            f X . . . U ] ] ' | ] ' | ' ;.7.7.7.7.7.7.7.7.7.7.7.7.7.7.7.7.7.7.7.7.7.7.7.7.O.' | ] ] ' ' ] ] b . . . . . . . O . ",
"            7 X . . . R ] ' ] | ] | ' | >.6.6.7.7.7.7.7.7.7.7.7.7.7.7.7.7.7.7.7.7.7.7.7.,.' ] ] | ' ] | ] ] . . . . . = D       ",
"            3 . . . . ! | | ] ' ' | ] ] >.6.7.7.7.7.7.7.7.7.7.7.7.7.7.7.7.7.7.7.7.7.7.7.O.| | ' | ] ' | ] U . . . . =           ",
"            = . . . . ) ' ' ] | ] | ' ' 7.7.7.7.7.7.7.7.7.7.7.7.7.7.7.7.7.7.7.7.7.7.7.7.| ] ] ' ' ' ] | ] n . . . . V           ",
"            % . . . . _ ] | ] ' ' | ] | ,.7.7.7.7.7.7.7.7.7.7.7.7.7.7.7.7.7.7.7.7.7.7.7.| ' | | ] | ] ' ' e . . . .             ",
"            O . . . . ) | ] | ' ' ] | ] 7.7.7.7.7.7.7.7.7.7.7.7.7.7.7.7.7.7.7.7.7.7.7.7.' | ' ] | ] | ' ] = . . . .             ",
"            % . . . X ' ' ' | ] | ] ' ' 7.7.7.7.7.7.7.7.7.7.7.7.7.7.7.7.7.7.7.7.7.7.7.7.] ' | ] ' ' | ] ] = . . . .             "
};
