/* XPM */
static char *Cactus1708448839[] = {
/* columns rows colors chars-per-pixel */
"64 64 199 2 ",
"   c #051E05",
".  c #062402",
"X  c #092505",
"o  c #042900",
"O  c #092C00",
"+  c #112D07",
"@  c #132C09",
"#  c #053300",
"$  c #0A3400",
"%  c #013E00",
"&  c #0B3B00",
"*  c #133107",
"=  c #15330A",
"-  c #19360C",
";  c #143C08",
":  c #1B3516",
">  c #223E16",
",  c #014500",
"<  c #0E4300",
"1  c #0C4E00",
"2  c #154302",
"3  c #144B02",
"4  c #1A4A02",
"5  c #15430B",
"6  c #0E5500",
"7  c #135401",
"8  c #1C5702",
"9  c #145D00",
"0  c #1D4713",
"q  c #264A09",
"w  c #2D5D06",
"e  c #264718",
"r  c #304918",
"t  c #29521F",
"y  c #166200",
"u  c #1B6101",
"i  c #1E6B01",
"p  c #1A7200",
"a  c #276203",
"s  c #216E02",
"d  c #386808",
"f  c #227201",
"g  c #297803",
"h  c #2B7C04",
"j  c #357205",
"k  c #357F05",
"l  c #3E7A07",
"z  c #3D7611",
"x  c #345B2B",
"c  c #375430",
"v  c #3D642C",
"b  c #3C6233",
"n  c #506314",
"m  c #46731C",
"M  c #657619",
"N  c #405736",
"B  c #465F3E",
"V  c #517B29",
"C  c #4D713A",
"Z  c #4A6040",
"A  c #4C6F44",
"S  c #56774F",
"D  c #5B7553",
"F  c #64795E",
"G  c #677B60",
"H  c #697C61",
"J  c #2C8004",
"K  c #3D8506",
"L  c #3E8D06",
"P  c #348C0A",
"I  c #3B8E09",
"U  c #3A910B",
"Y  c #438D07",
"T  c #458608",
"R  c #49880A",
"E  c #4D8D09",
"W  c #558F0E",
"Q  c #439107",
"!  c #4B9507",
"~  c #439309",
"^  c #4B9309",
"/  c #47980D",
"(  c #4D9909",
")  c #519B07",
"_  c #51930C",
"`  c #529C08",
"'  c #5E9E0C",
"]  c #539316",
"[  c #649E0D",
"{  c #6D9213",
"}  c #57A209",
"|  c #5CA40B",
" . c #59A808",
".. c #5DA210",
"X. c #61A70D",
"o. c #64A90D",
"O. c #6BAC0E",
"+. c #6CB10B",
"@. c #74B40F",
"#. c #7CBA0F",
"$. c #6AAC1B",
"%. c #69AE1F",
"&. c #77AF14",
"*. c #6FB010",
"=. c #76B512",
"-. c #7AB611",
";. c #77B810",
":. c #7DBB10",
">. c #6DB420",
",. c #7BB823",
"<. c #688659",
"1. c #6B8864",
"2. c #738B6D",
"3. c #798E73",
"4. c #7D9678",
"5. c #82BE0F",
"6. c #8DAF1A",
"7. c #84B717",
"8. c #83BD12",
"9. c #94AC2C",
"0. c #87C012",
"q. c #8AC212",
"w. c #8FC913",
"e. c #8DC11B",
"r. c #92C516",
"t. c #93CB14",
"y. c #9DCD17",
"u. c #95C61C",
"i. c #9ECD19",
"p. c #A0CF18",
"a. c #A4D119",
"s. c #ACD51C",
"d. c #B5DA1D",
"f. c #BADD1E",
"g. c #BEE11F",
"h. c #8CC222",
"j. c #94C525",
"k. c #9BCA22",
"l. c #B1C22C",
"z. c #B5D921",
"x. c #BDDD22",
"c. c #BFE021",
"v. c #C0DF27",
"b. c #C1CA32",
"n. c #C4E323",
"m. c #CAE625",
"M. c #CEE926",
"N. c #CEE729",
"B. c #D2EC26",
"V. c #D9EC2C",
"C. c #DEF32C",
"Z. c #C9E335",
"A. c #D2EA31",
"S. c #DFF034",
"D. c #E3F52E",
"F. c #E8F92F",
"G. c #E0EE38",
"H. c #EBF730",
"J. c #EFF93B",
"K. c #F2FA3C",
"L. c #F9FE3F",
"P. c #83957F",
"I. c #E6F343",
"U. c #FDFE41",
"Y. c #F6FA4D",
"T. c #FBFD4D",
"R. c #EAF353",
"E. c #FAFC51",
"W. c #F5F959",
"Q. c #8B9C85",
"!. c #8C8B94",
"~. c #8BA085",
"^. c #8FA58A",
"/. c #93A68E",
"(. c #98AB8F",
"). c #97A494",
"_. c #99AA94",
"`. c #9FB395",
"'. c #A2B39D",
"]. c #A6B3A2",
"[. c #ADB7A8",
"{. c #B0BAAC",
"}. c #B5B8B7",
"|. c #B1C0AD",
" X c #B9C4B4",
".X c #BDC7B8",
"XX c #C3CCBF",
"oX c #C4CEC1",
"OX c #CCCDCF",
"+X c #C9D2C6",
"@X c #D0D7CE",
"#X c #D2DACE",
"$X c #D8DCD7",
"%X c #DCE2DA",
"&X c #E6E8E5",
"*X c #EFEFEF",
"=X c #EDF0EC",
"-X c #F2F3F1",
";X c #FFFFFF",
/* pixels */
"*X*X*X*X*X;X;X;X;X;X;X*X*X*X*X*X*X*X*X;X;X;X;X;X;X*X*X*X*X*X*X*X*X;X;X;X;X;X;X*X*X*X*X*X*X*X*X;X;X;X;X;X;X*X*X*X*X*X*X*X*X;X;X;X",
"*X*X*X*X*X;X;X;X;X;X;X*X*X*X*X*X*X*X*X;X;X;X;X;X;X*X*X*X*X*X*X*X*X;X;X;X;X;X;X*X*X*X*X*X*X*X*X;X;X;X;X;X;X*X*X*X*X*X*X*X*X;X;X;X",
";X;X;X;X;X*X*X*X*X*X*X;X;X;X;X;X;X;X;X*X*X*X*X*X*X;X;X;X;X;X;X;X;X*X*X*X*X*X*X;X;X;X;X;X;X;X;X*X*X*X*X*X*X;X;X;X;X;X;X;X;X*X*X*X",
";X;X;X;X;X*X*X*X*X*X*X;X;X;X;X;X;X;X;X*X*X*X*X*X*X;X;X;X;X;X;X;X;X*X*X*X*X*X*X;X;X;X;X;X;X;X;X*X*X*X*X*X*X;X;X;X;X;X;X;X;X*X*X*X",
";X;X;X;X;X*X*X*X*X*X*X;X;X;X;X;X;X;X;X*X*X*X*X*X*X;X;X;X;X;X;X;X;X*X*X*X*X*X*X;X;X;X;X;X;X;X;X*X*X*X*X*X*X;X;X;X;X;X;X;X;X*X*X*X",
";X;X;X;X;X*X*X*X*X*X*X;X;X;X;X;X;X;X;X*X*X*X*X*X*X;X;X;X;X;X;X;X;X*X*X*X*X*X*X;X;X;X;X;X;X;X;X*X*X*X*X*X*X;X;X;X;X;X;X;X;X*X*X*X",
"*X*X*X*X*X;X;X;X;X;X;X*X*X*X*X*X*X*X*X;X;X;X;X;X;X*X*X*X*X*X*X*X*X;X;X;X;X;X;X*X*X*X*X*X*X*X*X;X;X;X;X;X;X*X*X*X*X*X*X*X*X;X;X;X",
"*X*X*X*X*X;X;X;X;X;X;X*X*X*X*X*X*X*X*X;X;X;X;X;X;X*X*X*X*X*X*X*X*X;X;X;X;X;X;X*X*X*X*X*X*X*X*X;X;X;X;X;X;X*X*X*X*X*X*X*X*X;X;X;X",
"*X*X*X*X*X;X;X;X;X;X;X*X*X*X*X*X*X*X*X;X;X;X;X;X;X*X*X*X*X*Xc O O $ & $ O '.;X*X*X*X*X*X*X*X*X;X;X;X;X;X;X*X*X*X*X*X*X*X*X;X;X;X",
"*X*X*X*X*X;X;X;X;X;X;X*X*X*X*X*X*X*X*X;X;X;X;X;X;X*X*X*Xx # g h a.8.) s 1 * * $X*X*X*X*X*X*X*X;X;X;X;X;X;X*X*X*X*X*X*X*X*X;X;X;X",
";X;X;X;X;X*X*X*X*X*X*X;X;X;X;X;X;X;X;X*X*X*X*X*X*X;Xb % 1 1 h K z.n.B.7.o.; + ;X;X;X;X;X;X;X;X*X*X*X*X*X*X;X;X;X;X;X;X;X;X*X*X*X",
";X;X;X;X;X*X*X*X*X*X*X;X;X;X;X;X;X;X;X*X*X*X*X*X*X;Xt & & 4 :.w.d.G.Y.@.@.K Y N B ;X;X;X;X;X;X*X*X*X*X*X*X;X;X;X;X;X;X;X;X*X*X*X",
";X;X;X;X;X*X*X*X*X*X*X;X;X;X;X;X;X;X;X*X*X*X*X*X*X-X0 < y W B.c.d.I.Y.+.@.L Q + * ;X;X;X;X;X;X*X*X*X*X*X*X;X;X;X;X;X;X;X;X*X*X*X",
";X;X;X;X;X*X*X*X*X*X*X;X;X;X;X;X;X;X;X*X*X*X*X*Xx & & 3 k &.B.f.f.R.W.0.q.L Q @ * ;X;X;X;X;X;X*X*X*X*X*X*X;X;X;X;X;X;X;X;X*X*X*X",
"*X*X*X*X*X;X;X;X;X;X;X*X*X*X*X*X*X*X*X;X;X;X;X;X;X&X& 7 h u.M.N.M.Y.Y.p.p.u.8.@ * *X*X*X*X*X*X;X;X;X;X;X;X*X*X*X*X*X*X*X*X;X;X;X",
"*X*X*X*X*X;X;X;X;X;X;X*X*X*X*X*X*X*X*X;X;X;X;X;X;X@X& 8 h z.m.A.A.E.Y.y.p.m.N.= - *X*X*X*X*X3.& * = ;X;X;X*X*X*X*X*X*X*X*X;X;X;X",
"*X*X*X*X*X;X;X;X;X;X;X*X*X*X*X*X*X*X*X;X;X;X;X;X;X/.& E o.s.d.W.W.Y.T.y.y.m.B.& t *X*X*X(.4 ] %.f.p.  Z ;X*X*X*X*X*X*X*X*X;X;X;X",
"*X*X*X*X*X;X;X;X;X;X;X*X*X*X*X*X*X*X*X;X;X;X;X;X;XD & | =.n.v.E.Y.Y.E.y.y.m.D.& b &X*X*X<.; $.%.K.b.  3.;X*X*X*X*X*X*X*X*X;X;X;X",
";X;X;X;X;X*X*X*X*X*X*X;X;X;X;X;X;X;X;X*X*X*X*X*X*Xb & O.@.m.m.E.E.Y.T.p.y.m.C.& & 4 '.;XC & 7.5.L.l.2 (.*X;X;X;X;X;X;X;X;X*X*X*X",
";X;X;X;X;X*X*X*X*X*X*X;X;X;X;X;X;X;X;X*X*X*X*X*X=X& & ;.@.M.m.d.d.Y.Y.y.a.m.x.& 2.;X;X;X4 4 8.r.Y.9.4 oX*X;X;X;X;X;X;X;X;X*X*X*X",
";X;X;X;X;X*X*X*X*X*X*X;X;X;X;X;X;X;X;X*X*X*X*X*X*X& & :.=.D.C.n.c.=.=.,.h.M.6.& _.;Xv 4 4 w r.s.J.M + r r ;X;X;X;X;X;X;X;X*X*X*X",
";X;X;X;X;X*X*X*X*X*X*X;X;X;X;X;X;X;X;X*X*X*X*X*X*X& & :.+.D.C.K.U.p.y.,.j.B.{ % |.;X;X%X4 d w.x.J.n ; }. X;X;X;X;X;X;X;X;X*X*X*X",
"*X*X*X*X*X;X;X;X;X;X;X*X*X*X*X*X*X*X*X;X;X;X;X+X#X& & q.0.8.:.K.K.I.S.,.k.B.d & +X*X=X X4 R w.a.d.q @ -X;X*X*X*X*X*X*X*X*X;X;X;X",
"*X*X*X*X*X;X;X;X;X;X;X*X*X*X*X*X*X*X*X;X;X;X;X1.S & & w.t.a.i.J.K.0.0.,.x.D.; & *X*X*X'.4 [ 0.n.m.= * ;X;X=X*X*X*X*X*X*X*X;X;X;X",
"*X*X*X*X*X;X;X;X;X;X;X*X*X*X*X*X*X*X*X;X;X;X;X;X;X& $ i s a.a.K.S.q.q.0.M.V.o 0 *X@X4 z ^ 7.u.C.V.X * ].{.*X*X*X*X*X*X*X*X;X;X;X",
"*X*X*X*X*X;X;X;X;X;X;X*X*X*X*X*X*X*X*X;X;X;X;X;X;X& $ f s p.z.Y.Z.w.^ p N.V.# 4 & a ` ` ` j.j.B.m.X * [._.*X*X*X*X*X*X*X*X;X;X;X",
";X;X;X;X;X*X*X*X*X*X*X;X;X;X;X;X;X;X;X*X*X*X*X*X*X& # Q ^ d.s.y.^ y ` } e.r.& 2 & j ` ) ` k.k.n.n.X * *X*X;X;X;X;X;X;X;X;X*X*X*X",
";X;X;X;X;X*X*X*X*X*X*X;X;X;X;X> * o O *X*X*X*X*X*X& # Q ) d.g.M.o.` 8.0.0.=.9 g Y ) ` #.:.d.x.| o.* + *X*X;X;X;X;X;X;X;X;X*X*X*X",
";X;X;X;X;X*X*X*X*X*X*X;X;X;X;X* * >.>.& & *X*X*X%X& 2 I O.d.n.M.y.p.0.0.0.[ y 9 9 } ) X.o.*.@.9 9 @X#X*X*X;X;X;X;X;X;X;X;X*X*X*X",
";X;X;X;X;X*X*X*X*X*X*X;X;X;X;X& & H.D.& & *X*X*X+X& 8 L j.E.e.-.q.w.0.0.0.E 9 9 9 | ` ` ` ` ` 1 1 m V *X*X;X;X;X;X;X;X;X;X*X*X*X",
"*X*X*X*X*X;X;X;X;X;X;X*X*X5 & & & L.L.$ & ;X;X;X X& a I 8.p.-.@.@.-.0.' J s 9 7 7 ! ! ) ` }  .- = ;X;X;X;X*X*X*X*X*X*X*X*X;X;X;X",
"*X*X*X*X*X;X;X;X;X;X;X*X*X*X*X& & Y.Y.& & ;X;X;X_.O 7 6 r.p.@.@.@.:.0.T s < < /.^.P.2.F F B N ;X;X;X;X;X;X*X*X*X*X*X*X*X*X;X;X;X",
"*X*X*X*X*X;X;X;X;X;X;X*X*X*X*X1 1 C.V.& 5 ;X;X;XP.O 7 9 d.s.#.#.@.:.8.g s & & *X*X*X*X*X*X*X*X;X;X;X;X;X;X*X*X*X*X*X*X*X*X;X;X;X",
"*X*X*X*X*X;X;X;X;X;X;X*X*X*X*X1 , m.m.a.7.& 1.;XF O u s d.i.0.u.s.t.u.i s $ & =X*X*X*X*X*X*X*X;X;X;X;X;X;X*X*X*X*X*X*X*X*X;X;X;X",
";X;X;X;X;X*X*X*X*X*X*X;X;X;X;X1 , i.r.P L } a & $ O 9 y y T w.z.M.-.*.Y Y $ & ;X;X;X;X;X;X;X;X*X*X*X*X*X*X;X;X;X;X;X;X;X;X*X*X*X",
";X;X;X;X;X*X*X*X*X*X*X;X;X;X;X;X;X# 4 ( =.7.E T $ X y 9 y ^ 0.z.m.O.X.X.X.# & ;X;X;X;X;X;X;X;X*X*X*X*X*X*X;X;X;X;X;X;X;X;X*X*X*X",
";X;X;X;X;X*X*X*X*X*X*X;X;X;X;X;X;X;X`.& s h s s 9 9 9 9 9 _ ..n.n.X.X.X.X.& & ;X;X;X;X;X;X;X;X*X*X*X*X*X*X;X;X;X;X;X;X;X;X*X*X*X",
";X;X;X;X;X*X*X*X*X*X*X;X;X;X;X;X;X;X}.!.: . @ = y 9 9 k Q *.=.E.Y.} X.X.X.* * ;X;X;X;X;X;X;X;X*X*X*X*X*X*X;X;X;X;X;X;X;X;X*X*X*X",
"*X*X*X*X*X;X;X;X;X;X;X*X*X*X*X*X*X*X$XOX).2.H v 9 9 9 Y ) | | U.J.}  .;.:.* - *X*X*X*X*X*X*X*X;X;X;X;X;X;X*X*X*X*X*X*X*X*X;X;X;X",
"*X*X*X*X*X;X;X;X;X;X;X*X*X*X*X*X*X*X*X;X;X;X;X~.& 7 y Y ! y.i.L.J.C.D.0.t.& 5 *X*X*X*X*X*X*X*X;X;X;X;X;X;X*X*X*X*X*X*X*X*X;X;X;X",
"*X*X*X*X*X;X;X;X;X;X;X*X*X*X*X*X*X*X*X;X;X;X;X1.& i i x.M.y.a.J.J.@.@.@.:.* : *X*X*X*X*X*X*X*X;X;X;X;X;X;X*X*X*X*X*X*X*X*X;X;X;X",
"*X*X*X*X*X;X;X;X;X;X;X*X*X*X*X*X*X*X*X;X;X;X;XA & f f F.C.d.d.C.C.=.@.* > ;X;X*X*X*X*X*X*X*X*X;X;X;X;X;X;X*X*X*X*X*X*X*X*X;X;X;X",
";X;X;X;X;X*X*X*X*X*X*X;X;X;X;X;X;X;X;X*X*X*X*Xx & f i s.y.M.B.@.@.%.$.( T * G ;X;X;X;X;X;X;X;X*X*X*X*X*X*X;X;X;X;X;X;X;X;X*X*X*X",
";X;X;X;X;X*X*X*X*X*X*X;X;X;X;X;X;X;X;X*X*X*X*Xt & f f g.d.0.8.m.M.d.s.` l * Q.;X;X;X;X;X;X;X;X*X*X*X*X*X*X;X;X;X;X;X;X;X;X*X*X*X",
";X;X;X;X;X*X*X*X*X*X*X;X;X;X;X;X;X;X;X*X*X*X*X5 & s i d.d.0.q.| } d.a.` j 4 XX;X;X;X;X;X;X;X;X*X*X*X*X*X*X;X;X;X;X;X;X;X;X*X*X*X",
";X;X;X;X;X*X*X*X*X*X*X;X;X;X;X;X;X;X;X*X*X*X*X& & i f ` ` p.p.@.@.=.) i 5 = *X;X;X;X;X;X;X;X;X*X*X*X*X*X*X;X;X;X;X;X;X;X;X*X*X*X",
"*X*X*X*X*X;X;X;X;X;X;X*X*X*X*X*X*X*X*X;X;X;X;X& & 4 2 ` } i.y.@.@.=.Q f 2 0 ;X*X*X*X*X*X*X*X*X;X;X;X;X;X;X*X*X*X*X*X*X*X*X;X;X;X",
"*X*X*X*X*X;X;X;X;X;X;X*X*X*X*X*X*X*X*X;X;X;X;X& & 4 2 ` ` a.8.g ` t.d & .X#X;X*X*X*X*X*X*X*X*X;X;X;X;X;X;X*X*X*X*X*X*X*X*X;X;X;X",
"*X*X*X*X*X;X;X;X;X;X;X*X*X*X*X*X*X*X*X;X;X;X;X& & 4 ; P U p.:.` `  .4 & =X;X;X*X*X*X*X*X*X*X*X;X;X;X;X;X;X*X*X*X*X*X*X*X*X;X;X;X",
"*X*X*X*X*X;X;X;X;X;X;X*X*X*X*X*X*X*X*X;X;X;X;X$ & 1 1 P / p.=.` ` ` & % ;X;X;X*X*X*X*X*X*X*X*X;X;X;X;X;X;X*X*X*X*X*X*X*X*X;X;X;X",
";X;X;X;X;X*X*X*X*X*X*X;X;X;X;X;X;X;X;X*X*X*X*X*X$X& 4 Q ! ! ` ` ` ! # x *X*X*X;X;X;X;X;X;X;X;X*X*X*X*X*X*X;X;X;X;X;X;X;X;X*X*X*X",
";X;X;X;X;X*X*X*X*X*X*X;X;X;X;X;X;X;X;X*X*X*X*X*XXX& 8 L ! ` ` ` ` Y o S *X*X*X;X;X;X;X;X;X;X;X*X*X*X*X*X*X;X;X;X;X;X;X;X;X*X*X*X",
";X;X;X;X;X*X*X*X*X*X*X;X;X;X;X;X;X;X;X*X*X*X*X*X].& 7 f I ~ / ( ` T # Q.*X*X*X;X;X;X;X;X;X;X;X*X*X*X*X*X*X;X;X;X;X;X;X;X;X*X*X*X",
";X;X;X;X;X*X*X*X*X*X*X;X;X;X;X;X;X;X;X*X*X*X*X*X~.& u i P P P P ` j $ XX*X*X*X;X;X;X;X;X;X;X;X*X*X*X*X*X*X;X;X;X;X;X;X;X;X*X*X*X",
"*X*X*X*X*X;X;X;X;X;X;X*X*X*X*X*X*X*X*X;X;X;X;X;X4.& i f P P P I ` w * &X;X;X;X*X*X*X*X*X*X*X*X;X;X;X;X;X;X*X*X*X*X*X*X*X*X;X;X;X",
"*X*X*X*X*X;X;X;X;X;X;X*X*X*X*X*X*X*X*X;X;X;X;X;X^.x 1 7 U P P ~ ( q = =X;X;X;X*X*X*X*X*X*X*X*X;X;X;X;X;X;X*X*X*X*X*X*X*X*X;X;X;X",
"*X*X*X*X*X;X;X;X;X;X;X*X*X*X*X*X*X*X*X;X;X;X;X;X;X*X4.G D B c e - #X;X;X;X;X;X*X*X*X*X*X*X*X*X;X;X;X;X;X;X*X*X*X*X*X*X*X*X;X;X;X",
"*X*X*X*X*X;X;X;X;X;X;X*X*X*X*X*X*X*X*X;X;X;X;X;X;X*X*X*X*X*X*X*X*X;X;X;X;X;X;X*X*X*X*X*X*X*X*X;X;X;X;X;X;X*X*X*X*X*X*X*X*X;X;X;X",
";X;X;X;X;X*X*X*X*X*X*X;X;X;X;X;X;X;X;X*X*X*X*X*X*X;X;X;X;X;X;X;X;X*X*X*X*X*X*X;X;X;X;X;X;X;X;X*X*X*X*X*X*X;X;X;X;X;X;X;X;X*X*X*X",
";X;X;X;X;X*X*X*X*X*X*X;X;X;X;X;X;X;X;X*X*X*X*X*X*X;X;X;X;X;X;X;X;X*X*X*X*X*X*X;X;X;X;X;X;X;X;X*X*X*X*X*X*X;X;X;X;X;X;X;X;X*X*X*X",
";X;X;X;X;X*X*X*X*X*X*X;X;X;X;X;X;X;X;X*X*X*X*X*X*X;X;X;X;X;X;X;X;X*X*X*X*X*X*X;X;X;X;X;X;X;X;X*X*X*X*X*X*X;X;X;X;X;X;X;X;X*X*X*X",
";X;X;X;X;X*X*X*X*X*X*X;X;X;X;X;X;X;X;X*X*X*X*X*X*X;X;X;X;X;X;X;X;X*X*X*X*X*X*X;X;X;X;X;X;X;X;X*X*X*X*X*X*X;X;X;X;X;X;X;X;X*X*X*X",
"*X*X*X*X*X;X;X;X;X;X;X*X*X*X*X*X*X*X*X;X;X;X;X;X;X*X*X*X*X*X*X*X*X;X;X;X;X;X;X*X*X*X*X*X*X*X*X;X;X;X;X;X;X*X*X*X*X*X*X*X*X;X;X;X",
"*X*X*X*X*X;X;X;X;X;X;X*X*X*X*X*X*X*X*X;X;X;X;X;X;X*X*X*X*X*X*X*X*X;X;X;X;X;X;X*X*X*X*X*X*X*X*X;X;X;X;X;X;X*X*X*X*X*X*X*X*X;X;X;X"
};
