/* XPM */
static char *Collectible1705595432[] = {
/* columns rows colors chars-per-pixel */
"64 64 251 2 ",
"   c #FFFFFF",
".  c #6E4D2A",
"X  c #714B29",
"o  c #724B29",
"O  c #724B2A",
"+  c #754B2B",
"@  c #724C29",
"#  c #724C2A",
"$  c #734C2A",
"%  c #734D2A",
"&  c #754E2B",
"*  c #774B2C",
"=  c #774F2C",
"-  c #7B492F",
";  c #7B4D2D",
":  c #784E2D",
">  c #78502C",
",  c #79512D",
"<  c #7A512D",
"1  c #7B532E",
"2  c #7E502E",
"3  c #7D532F",
"4  c #7F532F",
"5  c #7D542F",
"6  c #7D4A30",
"7  c #5B6A3A",
"8  c #3A7F44",
"9  c #3B7F44",
"0  c #3B7F45",
"q  c #4A7741",
"w  c #427E44",
"e  c #4F7B44",
"r  c #854F32",
"t  c #854835",
"y  c #92453D",
"u  c #835832",
"i  c #845933",
"p  c #865A34",
"a  c #895C35",
"s  c #8A5D35",
"d  c #8A5D36",
"f  c #8B5E36",
"g  c #AC4A3B",
"h  c #AD4C3D",
"j  c #B84A3F",
"k  c #846137",
"l  c #9C4343",
"z  c #9D4444",
"x  c #9E5943",
"c  c #A14343",
"v  c #A04545",
"b  c #A24444",
"n  c #A34444",
"m  c #A34747",
"M  c #A44444",
"N  c #A64444",
"B  c #A74444",
"V  c #A84444",
"C  c #AA4444",
"Z  c #AB4444",
"A  c #AE4545",
"S  c #AF4545",
"D  c #A44848",
"F  c #A54949",
"G  c #A64A4A",
"H  c #A74A4A",
"J  c #AA4848",
"K  c #A84B4B",
"L  c #A94B4B",
"P  c #AA4C4C",
"I  c #AB4D4D",
"U  c #AC4D4D",
"Y  c #AD4E4E",
"T  c #AE4E4E",
"R  c #B34545",
"E  c #B64545",
"W  c #B94646",
"Q  c #BB4646",
"!  c #BD4646",
"~  c #BE4646",
"^  c #BF4746",
"/  c #B74B4B",
"(  c #B75454",
")  c #B85555",
"_  c #B95555",
"`  c #BC5858",
"'  c #BD5858",
"]  c #BF5858",
"[  c #BF5959",
"{  c #C34747",
"}  c #C44747",
"|  c #C54747",
" . c #C74747",
".. c #C84747",
"X. c #C94747",
"o. c #CA4747",
"O. c #C64943",
"+. c #CC4848",
"@. c #CD4848",
"#. c #CE4848",
"$. c #CF4848",
"%. c #CF4D4D",
"&. c #D34848",
"*. c #D54848",
"=. c #D84948",
"-. c #D84949",
";. c #DA4949",
":. c #DB4949",
">. c #DB4A4A",
",. c #DB4B4B",
"<. c #DC4B4B",
"1. c #DC4C4C",
"2. c #DC4D4D",
"3. c #DD4E4E",
"4. c #C15B5B",
"5. c #C25B5B",
"6. c #C35C5C",
"7. c #C45C5C",
"8. c #C65E5E",
"9. c #C75E5E",
"0. c #C75F5F",
"q. c #C85F5F",
"w. c #CB5E5E",
"e. c #DD5050",
"r. c #DE5151",
"t. c #DE5252",
"y. c #DE5353",
"u. c #DF5454",
"i. c #DF5656",
"p. c #DF5757",
"a. c #D55C5C",
"s. c #E05757",
"d. c #E05858",
"f. c #E05959",
"g. c #E15B5B",
"h. c #E15C5C",
"j. c #E25D5D",
"k. c #E25E5E",
"l. c #E25F5F",
"z. c #C96060",
"x. c #CA6060",
"c. c #CB6161",
"v. c #CC6161",
"b. c #CD6262",
"n. c #CE6363",
"m. c #CF6363",
"M. c #D06363",
"N. c #D06464",
"B. c #D16464",
"V. c #D26565",
"C. c #D46666",
"Z. c #D46767",
"A. c #D66868",
"S. c #D76868",
"D. c #D76969",
"F. c #D86969",
"G. c #D96A6A",
"H. c #DA6A6A",
"J. c #DB6B6B",
"K. c #DD6C6C",
"L. c #DD6D6D",
"P. c #DE6D6D",
"I. c #DF6E6E",
"U. c #E26060",
"Y. c #E36161",
"T. c #E36262",
"R. c #E46565",
"E. c #E56767",
"W. c #E56969",
"Q. c #E66969",
"!. c #E66A6A",
"~. c #E66B6B",
"^. c #E06E6E",
"/. c #E16F6F",
"(. c #E66C6C",
"). c #E76D6D",
"_. c #E76F6F",
"`. c #E37070",
"'. c #E47171",
"]. c #E57272",
"[. c #E67272",
"{. c #E77272",
"}. c #E67372",
"|. c #E77373",
" X c #E87070",
".X c #E87171",
"XX c #E87272",
"oX c #E97373",
"OX c #E87474",
"+X c #E97474",
"@X c #3B8045",
"#X c #3D8146",
"$X c #3F8046",
"%X c #3E8147",
"&X c #3D8246",
"*X c #3E8247",
"=X c #3F8247",
"-X c #3E8347",
";X c #3E8348",
":X c #408147",
">X c #408348",
",X c #408349",
"<X c #408448",
"1X c #42844A",
"2X c #41864A",
"3X c #42874B",
"4X c #45864C",
"5X c #478B4E",
"6X c #478C4F",
"7X c #48884F",
"8X c #4A8F51",
"9X c #4B8F51",
"0X c #4E9254",
"qX c #4E9354",
"wX c #519254",
"eX c #539357",
"rX c #549657",
"tX c #569159",
"yX c #5A945C",
"uX c #5F975F",
"iX c #539858",
"pX c #549859",
"aX c #5A9E5E",
"sX c #619861",
"dX c #679C65",
"fX c #689D67",
"gX c #6A9E68",
"hX c #6A9F68",
"jX c #60A462",
"kX c #62A664",
"lX c #66A967",
"zX c #6BA069",
"xX c #6BA169",
"cX c #6CA36A",
"vX c #6DA56B",
"bX c #6DA76B",
"nX c #67AB68",
"mX c #69AD69",
"MX c #6AAD6A",
"NX c #6BAE6B",
"BX c #6CAF6B",
"VX c #6EA86C",
"CX c #6FAA6D",
"ZX c #6FAB6D",
"AX c #70AE6E",
"SX c #71B06F",
"DX c #71B16F",
"FX c #72B370",
"GX c #71B470",
"HX c #72B470",
"JX c #73B671",
/* pixels */
"                                                                                                                                ",
"                                                                                                                                ",
"                                                                              $ o o                                             ",
"                                                                          $ o 5 f ,                                             ",
"                                                                        $ , f k 7 q *X@X*X1X1X;X*X8 *X*X                        ",
"                                                                        = f e 0 wXjXBXSXgXgXgXgXfXfXsXtX7X8 *X                  ",
"                                                                      $ u f w rXJXJXJXJXFXvXgXgXgXgXgXgXgXgXyX4X;X              ",
"                                                                      $ f f $ :X5XmXJXJXJXJXFXVXxXgXgXgXgXgXgXgXuX*X8           ",
"                                                                    $ 5 f $     @X*X8XlXJXJXJXJXJXJXFXVXbXvXgXgXfXfX*X          ",
"                                                                    $ p , $         @X*X<XiXBXJXJXJXJXJXJXJXJXJXAXAXrX*X        ",
"                                      l l l l l l l l l l l         $ f o                 *X*X<X0XaXkXmXFXJXJXJXSXJXnX*X        ",
"                                  l l l l l l l l l l l l l l l     > 1 $                         *X;X*X@X;X<X6X0XiX9X*X        ",
"                              l l l l l l T ( ' 5./ A b l l l l l - 3 $                                                         ",
"                          l l l l l L n.`.OXOXQ.:.:.:.:.@.W l l l 6 u * l z l l l l l l                                         ",
"                        l l l l F B.OXoXOXOXl.:.:.:.:.:.:.:.@.V l + 3 t l l l l l l l l l l l l                                 ",
"                      l l l l T J.OXOXoXoXs.:.:.:.:.:.:.:.:.:.:.^ $ = y l l l l l l l l l l l l l l                             ",
"                    l l l l w.OXOXOXoX Xs.:.:.:.:.:.:.:.:.:.:.:.O.; $ w.m.m.Z.D.a.&.o.| W B l l l l l                           ",
"                  l l l l n.+X+X+XOXoXs.:.:.:.:.:.:.:.:.:.:.:.:.j 3 r OXOXOXQ.r.:.:.:.:.:.:.#.A l l l l                         ",
"                  l l l 9.OXOXOX+X+Xj.:.:.:.:.:.:.:.:.:.:.:.:.:.g r x OXOXU.:.:.:.:.:.:.:.:.:.:.o.c l l l                       ",
"                l l l ' oXOXOXOX+X+X1.:.:.:.:.:.:.:.:.:.:.:.:.:.=.g |.OXE.:.:.:.:.:.:.:.:.:.:.:.:.@.b l l l                     ",
"              l l l L OX+X+X+X+XoXoX:.:.:.:.:.:.:.:.:.:.:.:.:.:.=.p.OXOXp.:.:.:.:.:.:.:.:.:.:.:.:.:.@.l l l                     ",
"              l l l C.OX+X+X+X+XoXQ.:.:.:.:.:.:.:.:.:.:.:.:.:.:.:.l.OXOXi.:.:.:.:.:.:.:.:.:.:.:.:.:.:.| l l l                   ",
"            l l l T +X+X+X+X+X+XoXT.:.:.:.:.:.:.:.:.:.:.:.:.:.:.:.E.OXOX3.:.:.:.:.:.:.:.:.:.:.:.:.:.:.:.M l l                   ",
"            l l l J.+X+X+X+X+X+XoXr.:.:.:.:.:.:.:.:.:.:.:.:.:.:.:.).OX X:.:.:.:.:.:.:.:.:.:.:.:.:.:.:.:.~ l l l                 ",
"            l l I OXOXOX+X+X+X+X X:.:.:.:.:.:.:.:.:.:.:.:.:.:.:.:. XOXR.:.:.:.:.:.:.:.:.:.:.:.:.:.:.:.:.*.l l l                 ",
"          l l l n.oXOXOX+X+X+X+XU.:.:.:.:.:.:.:.:.:.:.:.:.:.:.:.:.E. Xs.:.:.:.:.:.:.:.:.:.:.:.:.:.:.:.:.:.M l l                 ",
"          l l l oX+XOX+X+X+XOXoXr.:.:.:.:.:.:.:.:.:.:.:.:.:.:.:.:.:.:.:.:.:.:.:.:.:.:.:.:.:.:.:.:.:.:.:.:.R l l                 ",
"          l l T oX+X+X+X+X+XOX X:.:.:.:.:.:.:.:.:.:.:.:.:.:.:.:.:.:.:.:.:.:.:.:.:.:.:.:.:.:.:.:.:.:.:.:.:.W l l                 ",
"          l l 5.OXOX+X+X+X+XOXT.:.:.:.:.:.:.:.:.:.:.:.:.:.:.:.:.:.:.:.:.:.:.:.:.:.:.:.:.:.:.:.:.:.:.:.:.:.| l l l               ",
"        l l l n.+X+X+X+X+X+XoXs.:.:.:.:.:.:.:.:.:.:.:.:.:.:.:.:.:.:.:.:.:.:.:.:.:.:.:.:.:.:.:.:.:.:.:.:.:.| l l l               ",
"        l l l F.+X+X+X+X+X+X+X1.:.:.:.:.:.:.:.:.:.:.:.:.:.:.:.:.:.:.:.:.:.:.:.:.:.:.:.:.:.:.:.:.:.:.:.:.:.o.l l l               ",
"        l l l /.+X+X+X+X+X+X X:.:.:.:.:.:.:.:.:.:.:.:.:.:.:.:.:.:.:.:.:.:.:.:.:.:.:.:.:.:.:.:.:.:.:.:.:.:.@.l l l               ",
"        l l l [.+X+X+X+XOXoX X:.:.:.:.:.:.:.:.:.:.:.:.:.:.:.:.:.:.:.:.:.:.:.:.:.:.:.:.:.:.:.:.:.:.:.:.:.:.o.l l l               ",
"        l l l oX+X+X+X+XOXoXQ.:.:.:.:.:.:.:.:.:.:.:.:.:.:.:.:.:.:.:.:.:.:.:.:.:.:.:.:.:.:.:.:.:.:.:.:.:.:.o.l l l               ",
"        l l l [.+X+X+X+XOX+XoX:.:.:.:.:.:.:.:.:.:.:.:.:.:.:.:.:.:.:.:.:.:.:.:.:.:.:.:.:.:.:.:.:.:.:.:.:.:.| l l l               ",
"        l l l [.+X+X+X+X+X+X+Xj.:.:.:.:.:.:.:.:.:.:.:.:.:.:.:.:.:.:.:.:.:.:.:.:.:.:.:.:.:.:.:.:.:.:.:.:.=.~ l l l               ",
"        l l l P.+X+X+X+X+X+X+X+XT.:.:.:.:.:.:.:.:.:.:.:.:.:.:.:.:.:.:.:.:.:.:.:.:.:.:.:.:.:.:.:.:.:.:.:.:.E l l                 ",
"        l l l V.+X+X+X+X+X+X+X+XOXf.:.:.:.:.:.:.:.:.:.:.:.:.:.:.:.:.:.:.:.:.:.:.:.:.:.:.:.:.:.:.:.:.:.:.=.R l l                 ",
"        l l l w.+X+X+X+X+X+X+X+X+XQ.:.:.:.:.:.:.:.:.:.:.:.:.:.:.:.:.:.:.:.:.:.:.:.:.:.:.:.:.:.:.:.:.:.:.:.N l l                 ",
"          l l ' +X+X+X+X+X+X+X+X+X+X:.:.:.:.:.:.:.:.:.:.:.:.:.:.:.:.:.:.:.:.:.:.:.:.:.:.:.:.:.:.:.:.:.:.=.l l l                 ",
"          l l F oXOXOXOXOX+X+X+X+X+X1.:.:.:.:.:.:.:.:.:.:.:.:.:.:.:.:.:.:.:.:.:.:.:.:.:.:.:.:.:.:.:.:.:.@.l l l                 ",
"          l l z /.OXOXOX+X+X+X+X+X+Xs.:.:.:.:.:.:.:.:.:.:.:.:.:.:.:.:.:.:.:.:.:.:.:.:.:.:.:.:.:.:.:.:.:.~ l l l                 ",
"          l l l w.OX+XOX+X+X+X+X+X+Xs.:.:.:.:.:.:.:.:.:.:.:.:.:.:.:.:.:.:.:.:.:.:.:.:.:.:.:.:.:.:.:.:.:.V l l                   ",
"            l l T +X+XOX+X+X+X+X+X+Xf.:.:.:.:.:.:.:.:.:.:.:.:.:.:.:.:.:.:.:.:.:.:.:.:.:.:.:.:.:.:.:.:.:.l l l                   ",
"            l l l P.OXOX+X+X+X+XoXoXl.:.:.:.:.:.:.:.:.:.:.:.:.:.:.:.:.:.:.:.:.:.:.:.:.:.:.:.:.:.:.:.:.| l l l                   ",
"            l l l 5.OXOX+X+X+X+XOXoXT.:.:.:.:.:.:.:.:.:.:.:.:.:.:.:.:.:.:.:.:.:.:.:.:.:.:.:.:.:.:.:.:.V l l                     ",
"              l l c +X+X+X+X+X+XOX+XQ.:.:.:.:.:.:.:.:.:.:.:.:.:.:.:.:.:.:.:.:.:.:.:.:.:.:.:.:.:.:.:.*.l l l                     ",
"              l l l n.+X+X+X+X+X+X+XOX:.:.:.:.:.:.:.:.:.:.:.:.:.:.:.:.:.:.:.:.:.:.:.:.:.:.:.:.:.:.:.~ l l l                     ",
"                l l b OXOXOXOXOX+X+X+Xj.:.:.:.:.:.:.:.:.:.:.:.:.:.:.:.:.:.:.:.:.:.:.:.:.:.:.:.:.:.#.l l l                       ",
"                l l l 9.OXOX+XOX+X+X+XoX1.:.:.:.:.:.:.:.:.:.:.:.:.:.:.:.:.:.:.:.:.:.:.:.:.:.:.:.:.L l l l                       ",
"                  l l l F.+X+X+X+X+X+X+XoXr.:.:.:.:.:.:.:.:.:.:.:.:.:.:.:.:.:.:.:.:.:.:.:.:.1.U.B.l l l                         ",
"                  l l l T +X+X+X+X+X+X+XoXoXl.1.:.:.:.:.:.:.:.:.:.:.:.:.:.:.:.:.:.:.:.1.p.Q.oX[.M l l l                         ",
"                    l l l 5.oXoXOXOXOX+X+X+X+XoXE.f.s.:.:.:.:.:.:.:.:.:.:.:.:.s.f.T.).OXOX+X+Xw.z z l                           ",
"                      l l l z.oXOXoXOX+X+X+X+X+XOXOX+X+XoXoXQ.Q.E.E.Q.Q. XoXoXOXOXOXOXOXOXOXF.l l l                             ",
"                      l l l l z.oXoX+X+X+X+X+X+X+X+X+X+XoXOXOX+X+X+XOXOX+X+X+X+X+X+XOX+XOXJ.F l l l                             ",
"                        l l l z n.+X+X+X+X+X+XOX+X+X+X+XoXoXOX+X+X+X+XOX+X+X+X+X+X+X+X+XJ.T l l l                               ",
"                          l l l l ' OXOXOXOXOXOX+X+XOXOX+X+XOXOX+X+XOXOX+X+X+X+XOXOXOXF.I l l l                                 ",
"                            l l l l L C.+XOXOXOX+XOXOXOX+X+X+XOX+X+XOXOX+X+X+X+XOXoXn.l l l l                                   ",
"                              l l l l l T C.oXoX+X+XoXoX+X+XOXOX+XoXoXoXOXoX+X/.6.F l l l l                                     ",
"                                  l l l l l F ' B.J.[.oX+X+XOX[.[./.D.n.9.( F l l l l l l                                       ",
"                                    l l l l l l l l l l l l l l l l l l l l l l l l l                                           ",
"                                          l l l l l l l l l l l l l l l l l l l l                                               ",
"                                                l l l l l l l l l l l l l                                                       ",
"                                                                                                                                "
};
