/* XPM */
static char *Exit1706023258[] = {
/* columns rows colors chars-per-pixel */
"64 64 31 1 ",
"  c black",
". c #2B2824",
"X c #B4966D",
"o c #B5986C",
"O c #BA9C6E",
"+ c #B79770",
"@ c #B69A70",
"# c #BC9E71",
"$ c #BDA16F",
"% c #BFA172",
"& c #C09F72",
"* c #C2A46F",
"= c #C4AA6F",
"- c #C3A473",
"; c #C6AC73",
": c #C8AE75",
"> c #C4A378",
", c #CAAF79",
"< c #C6B076",
"1 c #CAB276",
"2 c #CCB47A",
"3 c #CFB97F",
"4 c #D0B77E",
"5 c #D1B97F",
"6 c #D3BD83",
"7 c #D6C086",
"8 c #D9C087",
"9 c #D7C388",
"0 c #DAC68B",
"q c #DCC88D",
"w c #DFCB90",
/* pixels */
"%#:::-1313,66q6;-#:::-2424156q64;#o2;:1:36:66q93--#1=::123316906",
"#O1:111266666q1-#@1:1::::::::::::::::::::::7q99;oo#::1;335667696",
"o-121111669900:#@#111::::::::::::::::::::::79q6-o@-1:21316609qq;",
"-;1:266;66605;XX--2:1::::::::::::::::::::::66q-%:-;3:267666696:+",
"-:2336767000,%o::::::oooXoooooooooooooooooo::::::;:223669890q;#@",
";2552;66q7q;X##::::::oooooooooooooooooooooo::::::;:62:560q6q,@#@",
"-1:2367060;%X%>::::::oooooooooooooooooooooo::::::-2:5:56q6q:#X##",
"1161162600%X:::Xooooo......................ooooo+:::16666qq#+-XX",
"::1666q00;X-:::oooooo......................oooooo:::6669q6:@#&-*",
"1;1660qq#:::Xoo......                      ......ooo:::0q&-O----",
"1q6660,;o:::ooo......                      ......ooo:::=-@@#*=;;",
"32666:#X%:::ooo......                      ......ooo:::OX+&#:;:2",
"q200;+%::ooo...                                  ...ooo::&X1,21:",
"6q-Xoo@::ooo...                                  ...ooo::;22:265",
"00@O#--::ooo...                                  ...ooo::1:25:64",
"6--::::oo...                                        ...oo::15056",
"-#:::::oo...                                        ...oo:::6906",
"-o;,:::oo...                                        ...oo:::q69q",
"#>22:::oo...                                        ...oo:::00q;",
"&;2::::oo...                                        ...oo:::08,o",
"*:21:::oo...                                        ...oo:::0;Oo",
"::::ooo..                                              ..ooo:::O",
"-:::ooo..                                              ..ooo:::O",
"1:::ooo..                                              ..ooo::1o",
"1:::oXo..                                              ..ooo:::-",
"1:::ooo..                                              ..ooo:::-",
"1:::ooo..                                              ..ooo:::;",
"5:::ooo..                                              ..ooo:::1",
"9:::ooo..                                              ..ooo:::1",
"8:::ooo..                                              ..ooo::::",
"0:::ooo..                                              ..ooo:::4",
"0:::ooo..                                              ..ooo::::",
"::::ooo..                                              ..ooo:::6",
"O:::ooo..                                              ..ooo:::6",
"o1::ooo..                                              ..ooo:::2",
"::::Xoo..                                              ..ooo::,-",
"-:::ooo..                                              ..ooo:::o",
"::::ooo..                                              ..ooo:::%",
"-:::ooo..                                              ..ooo:::o",
"-:::ooo..                                              ..ooo:::%",
"2:::ooo..                                              ..ooo;::-",
"2:::ooo..                                              ..ooo::1-",
"1:::ooo..                                              ..ooo:::-",
"6w1;:::oo...                                        ...oo::::212",
"6100:::oo...                                        ...oo:::::=2",
"636::::oo...                                        ...oo:::12:;",
"q9$#::;oo...                                        ...oo:::7665",
"0-O-:::oo...                                        ...oo::1560:",
":--;:::Xo...                                        ...oo:::1666",
"OO;;,2:::ooo...                                  ...ooo::3663606",
"OO::111::ooo...                                  ...ooo::56996q:",
"o&122:2::ooo...                                  ...ooo::960660:",
"-::2366:::::ooo......                      ......ooo:::666q691;@",
"::1536660:::ooo......                      ......ooo:::66066q--#",
"-:13216:9;::ooo......                      ......ooo:::39666;oXX",
"-112296690%%:::oooooo......................oooooo:::256699q-#@%%",
"1<665600q:##:::o+oooo......................oooooo:::66000q:##-@-",
"1:32560q0%#-O--::::::oooooooooooooooooooooo:::::::136560q6-o#O--",
"1:268q00-%-%---::::::oooooooooooooooooooooo::::::;:66000q%%o&---",
"3q3390,-O##-;11::::;:oooooooooooooooXoooooo1::::1606466;O##--:::",
"32665,>@&&o:;;1166668::::::::::::::::::::::-1:126;269::#oO*O,::1",
"8306-o#-Oo:221:1q6q6;::::::::::::::::::::::111139646o$O%&O+2121:",
"9q-@ooo--12:;66q6q;+@:::;::::::<::;::::::::1;562000#Oo+o-=11:256",
"9q##&*--1:;6262qqwo@----1::62<3666qO-#--<;163;6696qO-&-*;:=25254"
};
