/* XPM */
static char *Floor1705573648[] = {
/* columns rows colors chars-per-pixel */
"64 64 35 1 ",
"  c #B4976C",
". c #B6996D",
"X c #BA9C6E",
"o c #B79770",
"O c #B69970",
"+ c #BC9D71",
"@ c #BFA26E",
"# c #BFA072",
"$ c #C09F74",
"% c #C2A56F",
"& c #C3AA6E",
"* c #C3A473",
"= c #C6AB74",
"- c #C9AE75",
"; c #C6AA79",
": c #CAAE78",
"> c #C7B177",
", c #CAB176",
"< c #C7B178",
"1 c #CCB47A",
"2 c #CFB97F",
"3 c #D0B77E",
"4 c #D1B87E",
"5 c #CDB381",
"6 c #CFBB80",
"7 c #D1B681",
"8 c #D3BD83",
"9 c #D8BF86",
"0 c #D6C186",
"q c #D9C187",
"w c #D7C388",
"e c #DAC58B",
"r c #DCC88D",
"t c #DFCA90",
"y c #E2CC92",
/* pixels */
"#+-*==,21,188e6=$X-*==,2>1<88e8-*X=*=*1211168e8=*+-===12-1128e8=",
"+X,,,,14488w8e2++X,-,114486e0e1XX+1-1,,278808e4*+.1,,,1288808e7*",
".*,-,,2188eweq=+.*,,,,1,88eeew=+.*,1,1,,88ewwe=+.$,1>,1188eewe=+",
"*-,,28828e8w1* +*=,,18818e8w1*oX*=--180,8e8w2*oX*=--,80=8w801;O+",
"*-,220800wee*+.**,1128800wee=+.#*>,148888wee=$o%*=,240800eee=#O#",
"*:11,2200e0*..+#*,12128800e* .+#==,2124899e= ..$==,21,4288e=  .*",
"*1=2104e08;..+#*@,*1188e00;+.##*#1*3488w8w=$ $$$*1*3208e8r*+ ##*",
"1,4480wee=#X*.#*1,086000e-#X#O@*,,8848wwr1$X*.%$,,0428wwr4*X*O#*",
",-1888eee*X++**,,=1888rrr*X+***,,1,888err= +%**-,-,888err-+++**,",
"14188wr1+##***=-,4,81er<*++****=,3>82ee1*#+***==12=81er2$+X%**=*",
"1e826w:*++**=*-,1w828e:*X+%*===,,0438w1*++#=&&,,1w226r:*+++*&--1",
"61we5#*+#X@>,,1461ww8##+*X%==,1643ee4+$.#*#=--1282e08##+$**-=-14",
"e2w*; $X..&,11,4r4e5=.##. &,1,=1r0e8=.#@. =,1,=2r9e8= +*..=,11,1",
"we#++o+*=:,1344eee*++O@*=:-4288ewr#O+o#*=>,2248eer*++.+*=,,1144r",
"ww+#**&*11,21420eeX+#***,:=82819er+@****,=*81w,eey++***%,,,8101e",
"2#*====,1124008e2**====-1122988w4@%===;,224408008@*==-=-2143404e",
"++,*---21-288e8-*.---*11,1128e8=*X,**=:111-88e9-*#-===-111:88e8-",
"+X--,,14882w8e4*+.--,-12282e8e2*++,-,=12188e8e8*+X-1-,12266e8e8*",
"X*,-=12,80eeee=++*,,=11,80eeee-++#,->,2188eeee-++%,1-,1,88eeer=+",
"*=1-288280801*o.*=,-288180801*++**11188=8w8q4=..**1-188>888w2=o+",
"&=,128809err=+o%&=1124000err=. %*=1188888err=X.$%=,224808wrr=X.#",
"*,221280www*o..$*,11128889e*.o.%=,121188w8e=  .**=121281w8r= ..*",
"*1*4488r8w=X $$**1=2188e8w=+ $$$%1&1488r8w:+ $*$*1*1104r8r;+ ++*",
"1,8228w0r1$X*.%*1,822q00r1$X*.$*,,822988r8++*.X$1102280wr7*X*OX*",
",=1488ere*.+$*%,,,,488eer%++**&-1,1040eer*.++*%-,1,888ree-o+***-",
",,1w8rt6++##***-,1,08ee0+++*=**:,,*84er8$*****&=,1=82ee0$$+****=",
",e848e-*XX**&==,,e448e-*XX+*&*,,18888e==XX$&==-,,0888t:=+.*%&-=1",
"410e2##@#.%>,,12410e8#*.*X@,=,,284we9@*.$X@-=-1382ew8*#.$$@=--,4",
"r1r*; #...=,1,,2r2r5=.X# O=111-1r8t8= ++. =,1,=1rqrw= X#..=,,,=1",
"0e#+. +*=-:1288ewr*.+.X**-,1,00e0e*Oo+X*==,1,80e8r=O+ X**=11,98r",
"ee+*#***1:,2,84qer.##**&1,>4,81qeyX@***%,>>4101eet++#%%%1-,8341e",
"4@*==<=>118408804*==;<*,134480008X*===;=>424808q9.*==>=-,344488e",
"*X-===,<2>188e8=*X--==111>,49e8-*X===*,12,-88e9;*#-===,111=68r0=",
"+X=-1-12-62e8q9*+.--<=11182e8w9$++,=,,13182e8e9*++:1=,12161e8e0*",
"#*,-=12,88eeee=X#*,,<11,80e0er-++*1,,,1,88eeer-++&11>1>>80eert=+",
"*-1=2884888e4%o.*=1=1881808e4*o **1,140>888w2=o.$*,=188=888w2=.O",
"*=,1288w0rrr=+ **=13688w8rer=X **>,188880err=X $*-1140808eer-+ #",
"=1141280ewr*..X*=11121880qe=o.X*=,,21188q9r-..X$*-141,82w9r-..+*",
"*,=3288e8q,. X$**,-4688e8w=X $$$*1=,208e8e-X $%*&,=3480e8r-+ $++",
"1,0,1880e4*X* X*1,811088e8*X% X*1,811028e9*.$ X*3,811820r9*.*..*",
",,,880eee*+++**,,,1888eer*..***-1,1488eer= +***-,,1888eer=.+$**-",
",-188ee0*++****-,-=84eew*X*#**&-,,=08ee0*+******1,=88ree+$X%****",
"1e848e1*X+*%*==110888r1*XX***&-1>0448y-=XX$*&&-,>0858e-=+X*%&=-3",
"218e7=$.@.X,-,13228e0*@.%X.==,1344eee*$.@@X=>,,243wwe=#.$$.-=-11",
"e1r*; *.X.,,11,5w8r5= ++..=,11=2e0r8*o+# .,,11=2r0ee*.**..,,1,-1",
"wr*+...**=,,,08r8r=.+ .**,,,,88rwe=.+  **,1=,84r0r=.X .*&,,=-94r",
"ee+$***&1,,2,84wetX@#*&*1,>4104qerX$$&%%,>=4101err++#*%%,&,8141r",
"8;&=*>*,-28480888**,*=*-,484888q0.&&*>*=,84840808.*==>*=,4430040",
"#+,==*,12>180e0=*X=--*1>1,>89e8-**=-*=1<11=89e9-**=-==,>11>88e8-",
"+.-,>,12,82e6w0**.-,,,,2-81e8eq*$.=,,=18,01e8eq**.-1=>12-81e8ee*",
"X*,->,1,88eere-++*,,=,1>88eeee=+X*,,,>1=88eeet-X+%,1>11=88eeer=+",
"*=1-120288808= .*=1-,881888e8*O *=1=188>888q8- .**1=188=888e8=..",
"*=1,346e8rer=. **-1126800rrr=+ **-1368808eer-X.$*=1184808rre:+ $",
"-,22120wwqt*.+.$=,141200e8r=+o.*=,131188e8r1..X*-,181,02e8t-.+o*",
"*1=4440e8e:$ +$**,=4888e8e=+ +$*%,=3888e8r-+ $$**,=1880e8e-$ *+*",
"1,8,1020e8*.*..*1,8>>868r8#O+O.*1,0,:868rw* $ X*3:9,,010re$o+  *",
",-1888ere*X+$**-1-1888rrr*o$*=%=1,1088err=o++**-11,888eer:.$X**-",
",-18wrer+*X$***:,=,88ere$X$%***=,==88eee+*****%=,,*8weee%$$$&**%",
"1e828e:*+X*&&=-,,e888e-*X+%%*=-1>0848r,=XX***=-1,0888e::+o$%%=-1",
"248e8:#.$..,=-,8518e0-*.*XX-=-,244qwe;*.%X.--=1384w8r:*.$$.=--,1",
"e1r;=.*O.X=-3,,4e2r1= #X .,,11,2e9r8= +#..=,,1=2reee= +*..-131,1",
"0r*+.  **,1--88r0r:++ X**,1-:88e9r:.+ O*=,1,>04r8r=.+ .*&,1,=44r",
"er+#+*%=,1-2184qee+X#**%1-=2182eeeX@#**@,>>2101err++%*&%,&,4143r",
"8%*==>*==28888880#*==1*,=2888888w.%>*>#=>4440440e.**=&X==4488048"
};
