/* XPM */
static char *Head_down1705422482[] = {
/* columns rows colors chars-per-pixel */
"64 64 146 2 ",
"   c #FFFFFF",
".  c #374E36",
"X  c #374F36",
"o  c #384F37",
"O  c #395138",
"+  c #395238",
"@  c #3A5239",
"#  c #3A5339",
"$  c #3B543A",
"%  c #3C543B",
"&  c #3C553B",
"*  c #3F5A3E",
"=  c #405D3F",
"-  c #446143",
";  c #456044",
":  c #456144",
">  c #476446",
",  c #486447",
"<  c #4A6D49",
"1  c #4B6E4A",
"2  c #4C704B",
"3  c #4C714B",
"4  c #4D714C",
"5  c #4D724C",
"6  c #4E724C",
"7  c #4E734D",
"8  c #4F734E",
"9  c #4E744D",
"0  c #4F744E",
"q  c #4F754E",
"w  c #4F764E",
"e  c #50754E",
"r  c #50744F",
"t  c #50764F",
"y  c #50774F",
"u  c #50784F",
"i  c #517550",
"p  c #517750",
"a  c #537752",
"s  c #517850",
"d  c #527850",
"f  c #527950",
"g  c #527951",
"h  c #527A51",
"j  c #537A51",
"k  c #527B51",
"l  c #537A52",
"z  c #537B52",
"x  c #547C52",
"c  c #547C53",
"v  c #547D53",
"b  c #557D53",
"n  c #557954",
"m  c #567955",
"M  c #567A55",
"N  c #577A56",
"B  c #557E54",
"V  c #567F54",
"C  c #587A57",
"Z  c #587C57",
"A  c #597C58",
"S  c #597D58",
"D  c #5A7C59",
"F  c #5A7D59",
"G  c #5B7E5A",
"H  c #5C7F5B",
"J  c #578055",
"K  c #568255",
"L  c #568355",
"P  c #578355",
"I  c #578156",
"U  c #588256",
"Y  c #588257",
"T  c #588357",
"R  c #5C805B",
"E  c #598458",
"W  c #5A8558",
"Q  c #5B8759",
"!  c #5D805C",
"~  c #5E815D",
"^  c #5F825E",
"/  c #5F835E",
"(  c #5D8A5B",
")  c #5C8C5A",
"_  c #5C8D5B",
"`  c #5D8A5C",
"'  c #5D8B5C",
"]  c #5E8C5C",
"[  c #5F8D5D",
"{  c #5D8E5C",
"}  c #5D8F5C",
"|  c #5F8E5E",
" . c #5E905C",
".. c #5E905D",
"X. c #5F925D",
"o. c #608F5E",
"O. c #61905F",
"+. c #619160",
"@. c #629160",
"#. c #629260",
"$. c #629261",
"%. c #639361",
"&. c #659263",
"*. c #649462",
"=. c #649562",
"-. c #649663",
";. c #659663",
":. c #639962",
">. c #639A62",
",. c #679965",
"<. c #679A65",
"1. c #689B66",
"2. c #699C67",
"3. c #699D67",
"4. c #6A9E68",
"5. c #6A9F68",
"6. c #6BA069",
"7. c #6BA169",
"8. c #6CA26A",
"9. c #6CA36A",
"0. c #6BA769",
"q. c #6CA46A",
"w. c #6DA56B",
"e. c #6DA66B",
"r. c #6DA76B",
"t. c #6CA96A",
"y. c #6CAA6A",
"u. c #6CAA6B",
"i. c #6DAB6B",
"p. c #6EA86C",
"a. c #6EA96C",
"s. c #6EAA6C",
"d. c #6FAA6D",
"f. c #6FAB6D",
"g. c #6FAC6D",
"h. c #70AD6E",
"j. c #70AE6E",
"k. c #70AF6E",
"l. c #71B06F",
"z. c #71B16F",
"x. c #71B26F",
"c. c #72B270",
"v. c #72B470",
"b. c #72B570",
"n. c #73B571",
"m. c #73B671",
/* pixels */
"            5 1 5 1 g 4.4.4.4.4.4.4.4.7.n.n.m.m.m.m.m.m.m.m.m.m.m.m.m.m.m.m.m.m.m.m.m.m.7.7.4.4.4.4.4.4.4.g 5 1 5 1             ",
"          x 1 5 1 5 W 4.4.4.4.4.4.4.4.t.m.n.m.m.m.m.m.m.m.m.m.m.m.m.m.m.m.m.m.m.m.m.m.m.s.4.4.4.4.4.4.4.4.W 1 5 1 5 V           ",
"          5 2 2 5 5 o.4.4.4.4.4.4.4.4.g.m.m.m.m.m.m.m.m.m.m.m.m.m.m.m.m.m.m.m.m.m.m.m.m.g.4.4.4.4.4.4.4.4.+.5 1 5 1 5           ",
"        U 2 2 2 1 e 4.4.4.4.4.4.4.4.4.n.m.m.m.m.m.m.m.m.m.m.m.m.m.m.m.m.m.m.m.m.m.m.m.m.n.4.4.4.4.4.4.4.4.4.9 3 1 5 5 U         ",
"        x 2 2 2 1 W 4.4.4.4.4.4.4.4.q.n.m.m.m.m.m.m.m.m.m.m.m.m.m.m.m.m.m.m.m.m.m.m.m.m.n.q.4.4.4.4.4.4.4.4.T 3 5 1 5 x         ",
"        9 2 2 2 5 -.4.4.4.4.4.4.4.4.g.n.m.m.m.m.m.m.m.m.m.m.m.m.m.m.m.m.m.m.m.m.m.m.m.m.n.s.4.4.4.4.4.4.4.4.*.3 1 5 1 9         ",
"        2 2 2 2 t 4.4.4.4.4.4.4.4.4.n.m.m.m.m.m.m.m.m.m.m.m.m.m.m.m.m.m.m.m.m.m.m.m.m.m.n.c.4.4.4.4.4.4.4.4.4.t 5 1 2 2         ",
"      U 2 2 2 2 I 4.4.4.4.4.4.4.4.7.n.m.m.m.m.m.m.m.m.m.m.m.m.m.m.m.m.m.m.m.m.m.m.m.m.m.m.n.7.4.4.4.4.4.4.4.4.I 1 5 2 2 U       ",
"      V 2 2 2 2 ` 4.4.4.4.4.4.4.4.s.n.m.m.m.m.m.m.m.m.m.m.m.m.m.m.m.m.m.m.m.m.m.m.m.m.m.m.m.t.4.4.4.4.4.4.4.4.` 5 1 5 1 V       ",
"      g 2 2 2 2 +.4.4.4.4.4.4.4.4.x.m.m.m.m.m.m.m.m.m.m.m.m.m.m.m.m.m.m.m.m.m.m.m.m.m.m.m.m.g.4.4.4.4.4.4.4.4.+.1 5 1 5 g       ",
"      9 2 2 2 2 ,.4.4.4.4.4.4.4.7.n.m.m.m.m.m.m.m.m.m.m.m.m.m.m.m.m.m.m.m.m.m.m.m.m.m.m.m.m.c.7.4.4.4.4.4.4.4.,.5 1 5 1 9       ",
"      2 2 2 2 2 4.4.4.4.4.4.4.4.s.m.m.m.m.m.m.m.m.m.m.m.m.m.m.m.m.m.m.m.m.m.m.m.m.m.m.m.n.n.n.7.4.4.4.4.4.4.4.4.1 5 1 5 5       ",
"      5 5 1 5 e 4.4.4.4.4.4.4.4.k.m.m.m.m.m.m.m.m.m.m.m.m.m.m.m.m.m.m.m.m.m.m.m.m.m.m.m.m.m.n.q.4.4.4.4.4.4.4.4.9 1 5 1 1       ",
"      1 1 5 1 g 4.4.4.4.4.4.4.4.n.m.m.m.m.m.m.m.m.m.m.m.m.m.m.m.m.m.m.m.m.m.m.m.m.m.m.m.m.m.n.g.4.4.4.4.4.4.4.4.g 5 1 5 5       ",
"      5 5 1 5 z 4.4.4.4.4.4.4.q.m.m.m.m.m.m.m.m.m.m.m.m.m.m.m.m.m.m.m.m.m.m.m.m.m.m.m.m.m.m.m.n.4.4.4.4.4.4.4.4.x 5 5 1 5       ",
"      1 1 5 1 x 4.4.4.4.4.4.4.s.m.m.m.m.m.m.m.m.m.m.m.m.m.m.m.m.m.m.m.m.m.m.m.m.m.m.m.m.m.m.m.m.4.4.4.4.4.4.4.4.V 1 1 5 1       ",
"    U 5 1 5 1 V 4.4.4.4.4.4.4.j.n.n.m.m.m.m.m.m.m.m.m.m.m.m.m.m.m.m.m.m.m.m.m.m.m.m.m.m.m.m.m.m.e.4.4.4.4.4.4.4.x 5 5 1 5 E     ",
"      5 5 1 5 g 4.4.4.4.4.4.4.x.n.n.m.m.m.m.m.m.m.m.m.m.m.m.m.m.m.m.m.m.m.m.m.m.m.m.m.m.m.m.m.m.h.4.4.4.4.4.4.4.V 1 1 5 1       ",
"      1 1 5 5 g 4.4.4.4.4.4.4.n.m.m.m.m.m.m.m.m.m.m.m.m.m.m.m.m.m.m.m.m.m.m.m.m.m.m.m.m.m.m.m.m.j.4.4.4.4.4.4.4.g 1 5 1 2       ",
"      5 5 1 5 g 4.4.4.4.4.4.4.m.m.m.m.m.m.m.m.m.m.m.m.m.m.m.m.m.m.m.m.m.m.m.m.m.m.m.m.m.m.m.m.m.c.4.4.4.4.4.4.4.g 5 1 5 2       ",
"      1 1 5 1 9 4.4.4.4.4.4.4.n.m.m.m.m.m.m.m.m.m.m.m.m.m.m.m.m.m.m.m.m.m.m.m.m.m.m.m.m.m.m.m.m.n.7.4.4.4.4.4.4.e 1 5 1 2       ",
"      5 5 1 1 5 4.4.4.4.4.4.4.c.m.m.m.m.m.m.m.m.m.m.m.m.m.m.m.m.m.m.m.m.m.m.m.m.m.m.m.m.m.m.m.m.n.3.4.4.4.4.4.4.1 5 1 5 2       ",
"      9 5 1 5 1 1.4.4.4.4.4.4.j.m.m.m.m.m.m.m.m.m.m.m.m.m.m.m.m.m.m.m.m.m.m.m.m.m.m.m.m.m.m.m.m.n.4.4.4.4.4.4.1.5 1 5 1 9       ",
"      g 1 5 1 5 +.4.4.4.4.4.4.s.m.m.m.m.m.m.m.m.m.m.m.m.m.m.m.m.m.m.m.m.m.m.m.m.m.m.m.m.m.m.m.m.x.3.4.4.4.4.4.+.1 5 1 5 g       ",
"      V 5 1 5 1 [ 4.4.4.4.4.4.q.m.m.m.m.m.m.m.m.m.m.m.m.m.m.m.m.m.m.m.m.m.m.m.m.m.m.m.m.m.m.m.m.s.4.4.4.4.4.3.[ 5 1 1 5 V       ",
"      V 1 5 1 5 E 4.4.4.4.4.4.4.n.m.m.m.m.n.m.m.m.m.m.m.m.m.m.m.m.m.m.m.m.m.m.m.m.m.m.m.m.m.m.n.e.4.4.4.4.4.4.W 1 5 5 1 V       ",
"        5 1 1 5 g 4.4.4.4.4.4.4.x.m.m.m.n.n.m.m.m.m.m.m.m.m.m.m.m.m.m.m.m.m.m.m.m.m.m.m.m.n.n.n.4.4.4.4.4.4.4.g 5 1 5 5         ",
"        5 1 5 1 1 4.4.4.4.4.4.4.q.n.i.X.I p 5 O.m.m.m.m.m.m.m.m.m.m.m.m.m.m.m.m.[ 5 p E O.y.m.k.4.4.4.4.4.4.4.1 1 5 1 5         ",
"        g 1 1 5 5 +.4.4.4.4.4.4.6._ 2 2 2 2 1 1 ..n.m.m.m.m.m.m.m.m.m.m.m.m.m...1 4 1 1 2 2 _ 9.4.4.4.4.4.4.+.5 1 5 1 g         ",
"        V 5 5 1 1 E 4.4.4.4.4.4.I 3 5 N S ! G 1 3 i.n.n.m.m.m.m.m.m.m.m.m.m.i.3 4 H H H N 2 2 E 4.4.4.4.4.4.E 1 5 1 5 V         ",
"          5 1 5 5 9 4.4.4.4.4.+.2 e ! ! ! o.H C 3 _ n.n.m.m.m.m.m.m.m.m.n.n._ 3 C H H H ! S p 1 +.4.4.4.4.4.9 5 1 5 5           ",
"          5 5 1 1 5 +.4.4.4.4.V 2 Z ! ! ! ! H H 3 3 n.n.m.m.m.m.m.m.m.n.n.n.3 3 H ^ H G o.! S 1 V 4.4.4.4.+.5 1 5 1 5           ",
"          g 5 1 5 1 U 4.4.4.4.p i H ^ H H H H G 5 3 y.m.m.m.m.m.m.m.m.m.m.y.3 5 ! ^ ! ^ ! ^ H 5 p 4.4.4.4.I 1 5 1 5 c           ",
"          W 1 3 1 5 5 4.4.4.4.5 4 H ^ H H H H o.p 3 >.m.m.m.m.m.m.m.m.m.m.>.5 a ^ ! ^ ! ^ ! ! 1 5 4.4.4.4.5 5 1 5 1 E           ",
"            9 3 5 1 1 W 4.4.4.5 4 H H H ^ ^ H ^ C 5 [ m.m.m.m.m.m.m.m.m.n._ 5 N H ^ ! H ! H H 5 i 4.4.4.W 5 1 5 1 5             ",
"            V 2 1 5 5 p 4.4.4.g 4 G D ; % % ; C S 1 L m.m.m.m.m.m.m.m.m.n.I 5 C H ; O o ; G H 1 p 4.4.4.p 1 5 1 5 V             ",
"              5 5 1 5 1 +.4.4.V 4 C % . . . . % C 1 g n.m.m.m.m.m.m.m.m.n.z 3 V % . . . X % N 5 V 4.4.+.1 5 1 5 5               ",
"              a 1 5 1 5 x 3.4.Q 1 ; . . . . . . , 5 9 m.m.m.m.m.m.m.m.m.n.9 1 , . . . . X X ; 1 W 4.4.c 5 1 5 1 g               ",
"                5 1 5 1 2 =.4.+.1 % . . . . X X % 1 9 n.m.m.m.m.m.m.n.n.n.5 5 % . . . . X . O 5 +.4.&.3 1 5 1 5                 ",
"                p 5 1 5 5 a 4.1.1 . . . X X X X o 5 5 m.m.m.m.m.m.m.n.n.n.5 1 o . . . . . . o 1 2.4.g 5 5 1 5 p                 ",
"                  5 1 5 1 5 +.4.N O . . . . . . $ 5 5 m.m.m.m.m.m.m.m.m.m.5 3 $ X X X X X X o V 4.+.1 5 1 5 5                   ",
"                  g 5 1 5 1 p 4.+.= . X . . . . > 3 9 n.m.m.m.m.m.m.m.m.n.u 3 > X X . X X X = O.4.p 5 1 5 1 p                   ",
"                    1 5 1 5 1 E 4.1 O X o o . % N 1 L m.m.m.m.m.m.m.m.m.n.I 1 N % X . . X O 1 4.W 1 1 5 1 5                     ",
"                    c 1 5 1 5 5 2.` 1 * o o ; C N 5 ..m.m.m.m.m.m.m.m.m.n.[ 5 N S ; o X * 1 ` 1.5 5 5 1 5 g                     ",
"                      5 5 1 5 1 I 4.E 1 p S ! H 5 5 q.m.m.m.m.m.m.m.m.m.m.y.3 9 S H S p 1 E 4.I 1 5 1 5 5                       ",
"                      V 1 5 1 5 5 +.,.T 1 1 5 1 5 ` n.n.m.m.m.m.m.m.m.m.n.n._ 3 1 5 3 5 T ,.+.5 5 1 5 1 V                       ",
"                        9 5 5 1 1 p 4.4.[ V 5 a o.c.m.m.m.m.m.m.m.m.m.m.n.n.e.[ N 9 z [ 4.4.p 1 1 5 1 e                         ",
"                        E 1 1 5 1 5 U 4.4.4.4.7.4.h.m.m.m.m.m.n.m.m.m.m.m.s.4.4.4.4.4.4.4.I 1 5 5 1 1 E                         ",
"                          z 5 3 2 2 2 +.4.4.4.4.4.4.s.n.n.n.n.n.m.m.m.n.s.4.4.4.4.4.4.4.+.1 5 1 1 5 a                           ",
"                            9 1 2 2 2 5 =.4.4.4.4.4.7.q.n.n.n.n.m.m.l.8.4.4.4.4.4.4.4.=.5 5 1 5 5 5                             ",
"                            E 1 2 2 2 2 p ,.4.4.4.4.4.4.4.d.h.l.h.8.,.2.4.4.4.4.4.4.,.p 5 1 5 1 2 E                             ",
"                              V 2 2 2 2 2 g 3.4.4.4.4.4.&.H &.4.2.&.o.&.4.4.4.4.4.3.g 5 1 5 1 3 x                               ",
"                                p 2 2 2 1 5 g 4.4.4.4.4.o.G ^ 4.4.^ o.H 4.4.4.4.4.a 2 2 5 1 5 p                                 ",
"                                  5 2 2 5 1 5 g 3.4.4.4.^ H ^ 4.4.^ H H 4.4.4.3.g 2 2 2 1 5 5                                   ",
"                                    5 1 1 5 1 5 g =.4.4.&.^ &.4.4.&.H &.4.4.;.g 2 2 2 2 1 5                                     ",
"                                    E 5 5 1 5 1 2 5 W 4.2.4.4.4.4.4.6.8.3.W 9 2 2 2 2 2 3 E                                     ",
"                                      U 5 1 1 5 1 5 1 p W -.1.4.4.2.&./ p 1 5 1 1 5 1 5 I                                       ",
"                                        W 5 5 1 5 1 5 1 5 1 5 1 4 4 1 4 1 5 1 5 5 1 5 W                                         ",
"                                            e 3 1 5 1 5 1 5 1 5 1 4 1 1 1 5 5 1 3 t                                             ",
"                                              V 5 1 5 1 5 1 5 1 4 1 4 4 5 1 5 5 V                                               ",
"                                                  x 2 2 5 1 5 5 5 5 5 1 1 5 g                                                   ",
"                                                      U x p 5 1 1 5 9 V U                                                       ",
"                                                                                                                                ",
"                                                                                                                                "
};
