/* XPM */
static char *Head_up1707133379[] = {
/* columns rows colors chars-per-pixel */
"32 32 135 2 ",
"   c #FFFFFF",
".  c #374E36",
"X  c #384F37",
"o  c #3E593D",
"O  c #445F43",
"+  c #426041",
"@  c #466545",
"#  c #466645",
"$  c #4B684A",
"%  c #4B6F4A",
"&  c #4C6F4A",
"*  c #4C6E4B",
"=  c #4D6F4C",
"-  c #4C704B",
";  c #4C714B",
":  c #4D714B",
">  c #4D734B",
",  c #4D714C",
"<  c #4D724C",
"1  c #4D734C",
"2  c #4D734D",
"3  c #4E724C",
"4  c #4E734C",
"5  c #4E724D",
"6  c #4E734D",
"7  c #4F734E",
"8  c #4E744D",
"9  c #4F744D",
"0  c #4E754D",
"q  c #4F754D",
"w  c #4F744E",
"e  c #4E754E",
"r  c #4F754E",
"t  c #4F764E",
"y  c #4F774E",
"u  c #4F764F",
"i  c #50754E",
"p  c #50744F",
"a  c #50754F",
"s  c #50764E",
"d  c #50764F",
"f  c #51764F",
"g  c #50774F",
"h  c #51774F",
"j  c #50784F",
"k  c #517450",
"l  c #517550",
"z  c #527551",
"x  c #537752",
"c  c #547753",
"v  c #567755",
"b  c #517850",
"n  c #517951",
"m  c #527850",
"M  c #537B52",
"N  c #537C52",
"B  c #547C53",
"V  c #547D53",
"C  c #557E54",
"Z  c #5B7E5A",
"A  c #568055",
"S  c #588357",
"D  c #5A8658",
"F  c #5A8759",
"G  c #5D805C",
"H  c #5E815D",
"J  c #5E825D",
"K  c #5A8859",
"L  c #5B885A",
"P  c #5C895A",
"I  c #5C895B",
"U  c #5D8A5B",
"Y  c #5E8B5C",
"T  c #5E8C5D",
"R  c #5F8E5E",
"E  c #5F935E",
"W  c #608E5E",
"Q  c #60905F",
"!  c #61905F",
"~  c #61915F",
"^  c #60955F",
"/  c #629160",
"(  c #629260",
")  c #649062",
"_  c #649063",
"`  c #619660",
"'  c #619760",
"]  c #629760",
"[  c #649562",
"{  c #649662",
"}  c #659663",
"|  c #659763",
" . c #659364",
".. c #659464",
"X. c #669464",
"o. c #669664",
"O. c #629861",
"+. c #649B62",
"@. c #679965",
"#. c #679A65",
"$. c #679B65",
"%. c #659E64",
"&. c #669F64",
"*. c #669F65",
"=. c #689A66",
"-. c #689B66",
";. c #699C67",
":. c #699D67",
">. c #6A9E68",
",. c #6A9F68",
"<. c #6AA068",
"1. c #6AA168",
"2. c #6BA169",
"3. c #6BA269",
"4. c #6BA369",
"5. c #6CA46A",
"6. c #6CA66A",
"7. c #6DA76B",
"8. c #6CA96A",
"9. c #6DA86B",
"0. c #6DAB6B",
"q. c #6EA86C",
"w. c #6EA96C",
"e. c #6EAA6C",
"r. c #6FAD6D",
"t. c #70AE6E",
"y. c #70AF6E",
"u. c #70B06E",
"i. c #70B26E",
"p. c #71B26F",
"a. c #72B370",
"s. c #72B470",
"d. c #72B570",
"f. c #73B571",
"g. c #73B671",
/* pixels */
"                                                                ",
"                          t t - - t t                           ",
"                      t - - - - - - & = t                       ",
"                    6 - - - C F F C - - - 6                     ",
"                  6 - - m } o.=.$.o.} N - - 6                   ",
"                t - - A >.>.J ) _ J >.;.A - % t                 ",
"              m - - C >.>.>. .>.1.o.>.>.;.C 6 - l               ",
"              - - m $.>.>.1.t.g.g.g.7.>.>.$.d - -               ",
"            t % 6 o.( Y %.a.g.g.g.g.g.1.Y ( } 6 - t             ",
"          m % 6 F A l l l i.g.g.g.g.a.m l l A F - - m           ",
"          6 - t Y o X O l %.g.g.g.g.%.l O X o U t - 6           ",
"        d - - ~ & . . . @ ^ g.g.g.g.` @ . . . % ~ % - d         ",
"        6 % m ;.+ . . . O E g.g.g.g.E O . . . O =.m % 6         ",
"      t 6 & ( ~ = X . X 6 E g.g.g.g.^ % X X X = ( ( % % u       ",
"      6 % l >.U l v $ v l %.g.g.g.g.<.t v $ v l I >.t 6 t       ",
"      - % Y >.L v J J J 6 9.g.g.g.g.8.6 J J J c L >.Y = %       ",
"    t - 6 =.>.( l Z J Z l g.g.g.g.g.g.t Z J Z k ( >.$.- = 6     ",
"    t - m >.>.>.F 6 c 6 ` g.g.g.g.g.g.O.t m 6 F >.>.>.B - t     ",
"    - - U >.>.>.a.8.O.+.g.g.g.g.g.g.g.g.+.O.8.r.>.>.>.Y % %     ",
"    % 6 ( >.>.1.f.f.g.g.g.g.g.g.g.g.g.g.g.g.g.g.>.>.>.( = 6     ",
"    - - $.>.>.q.f.g.g.g.g.g.g.g.g.g.g.g.g.g.g.g.5.>.>.$.- -     ",
"  6 - - >.>.>.9.g.g.g.g.g.g.g.g.g.g.g.g.g.g.g.g.q.>.>.>.- - -   ",
"  t - t >.>.;.7.g.g.g.g.g.g.g.g.g.g.g.g.g.g.g.g.q.>.>.>.t - t   ",
"  t & d >.>.>.7.g.g.g.g.g.g.g.g.g.g.g.g.g.g.g.g.7.>.>.>.d - d   ",
"  d - t ;.>.>.>.g.g.g.g.g.g.g.g.g.g.g.g.g.g.g.g.1.>.>.>.d & l   ",
"  6 - t >.>.>.>.i.f.g.g.g.g.g.g.g.g.g.g.g.g.g.a.>.>.>.>.t & t   ",
"  - - - ;.>.>.>.9.f.g.g.g.g.g.g.g.g.g.g.g.g.g.r.>.>.>.=.- - 6   ",
"    - - } >.>.>.1.g.g.g.g.g.g.g.g.g.g.g.g.g.g.7.>.>.>.} - -     ",
"    - - R ;.1.>.>.g.g.g.g.g.g.g.g.g.g.g.g.g.g.1.>.>.>.Y - -     ",
"    6 - B ;.>.>.>.r.g.g.g.g.g.g.g.g.g.g.g.g.t.>.>.>.>.C - 6     ",
"    t & - $.>.>.>.q.g.g.g.g.g.g.g.g.g.g.f.f.q.>.>.>.$.& & t     ",
"      - - W >.>.>.1.g.g.g.g.g.g.g.g.g.g.f.f.1.>.>.>.R % 6       "
};
