/* XPM */
static char *Head_up1705422483[] = {
/* columns rows colors chars-per-pixel */
"64 64 146 2 ",
"   c #FFFFFF",
".  c #374E36",
"X  c #374F36",
"o  c #384F37",
"O  c #395138",
"+  c #395238",
"@  c #3A5239",
"#  c #3A5339",
"$  c #3B543A",
"%  c #3C543B",
"&  c #3C553B",
"*  c #3F5A3E",
"=  c #405D3F",
"-  c #446143",
";  c #456044",
":  c #456144",
">  c #476446",
",  c #486447",
"<  c #4A6D49",
"1  c #4B6E4A",
"2  c #4C704B",
"3  c #4C714B",
"4  c #4D714C",
"5  c #4D724C",
"6  c #4E724C",
"7  c #4E734D",
"8  c #4F734E",
"9  c #4E744D",
"0  c #4F744E",
"q  c #4F754E",
"w  c #4F764E",
"e  c #50754E",
"r  c #50744F",
"t  c #50764F",
"y  c #50774F",
"u  c #50784F",
"i  c #517550",
"p  c #517750",
"a  c #537752",
"s  c #517850",
"d  c #527850",
"f  c #527950",
"g  c #527951",
"h  c #527A51",
"j  c #537A51",
"k  c #527B51",
"l  c #537A52",
"z  c #537B52",
"x  c #547C52",
"c  c #547C53",
"v  c #547D53",
"b  c #557D53",
"n  c #557954",
"m  c #567955",
"M  c #567A55",
"N  c #577A56",
"B  c #557E54",
"V  c #567F54",
"C  c #587A57",
"Z  c #587C57",
"A  c #597C58",
"S  c #597D58",
"D  c #5A7C59",
"F  c #5A7D59",
"G  c #5B7E5A",
"H  c #5C7F5B",
"J  c #578055",
"K  c #568255",
"L  c #568355",
"P  c #578355",
"I  c #578156",
"U  c #588256",
"Y  c #588257",
"T  c #588357",
"R  c #5C805B",
"E  c #598458",
"W  c #5A8558",
"Q  c #5B8759",
"!  c #5D805C",
"~  c #5E815D",
"^  c #5F825E",
"/  c #5F835E",
"(  c #5D8A5B",
")  c #5C8C5A",
"_  c #5C8D5B",
"`  c #5D8A5C",
"'  c #5D8B5C",
"]  c #5E8C5C",
"[  c #5F8D5D",
"{  c #5D8E5C",
"}  c #5D8F5C",
"|  c #5F8E5E",
" . c #5E905C",
".. c #5E905D",
"X. c #5F925D",
"o. c #608F5E",
"O. c #61905F",
"+. c #619160",
"@. c #629160",
"#. c #629260",
"$. c #629261",
"%. c #639361",
"&. c #659263",
"*. c #649462",
"=. c #649562",
"-. c #649663",
";. c #659663",
":. c #639962",
">. c #639A62",
",. c #679965",
"<. c #679A65",
"1. c #689B66",
"2. c #699C67",
"3. c #699D67",
"4. c #6A9E68",
"5. c #6A9F68",
"6. c #6BA069",
"7. c #6BA169",
"8. c #6CA26A",
"9. c #6CA36A",
"0. c #6BA769",
"q. c #6CA46A",
"w. c #6DA56B",
"e. c #6DA66B",
"r. c #6DA76B",
"t. c #6CA96A",
"y. c #6CAA6A",
"u. c #6CAA6B",
"i. c #6DAB6B",
"p. c #6EA86C",
"a. c #6EA96C",
"s. c #6EAA6C",
"d. c #6FAA6D",
"f. c #6FAB6D",
"g. c #6FAC6D",
"h. c #70AD6E",
"j. c #70AE6E",
"k. c #70AF6E",
"l. c #71B06F",
"z. c #71B16F",
"x. c #71B26F",
"c. c #72B270",
"v. c #72B470",
"b. c #72B570",
"n. c #73B571",
"m. c #73B671",
/* pixels */
"                                                                                                                                ",
"                                                                                                                                ",
"                                                      Y v y 7 2 2 7 y v Y                                                       ",
"                                                  v 2 2 2 2 2 2 2 2 1 2 1 2 v                                                   ",
"                                              B 2 2 2 2 2 2 2 2 2 2 2 2 2 2 2 2 B                                               ",
"                                            y 2 2 2 2 2 2 2 2 2 2 2 2 2 2 2 2 2 2 u                                             ",
"                                        Y 7 2 2 2 2 2 2 2 2 2 1 2 2 2 2 2 2 2 2 2 2 2 E                                         ",
"                                      Y 2 2 2 2 2 2 2 y W ;.1.5.3.3.;.W y 2 2 2 2 2 2 2 Y                                       ",
"                                    Y 2 2 2 2 2 1 7 / 4.4.4.4.4.5.4.4.4.4.R 2 1 2 2 2 2 2 E                                     ",
"                                    7 1 2 2 1 7 z ,.4.4.&.^ &.4.5.$.o.&.4.4.;.j 2 2 2 2 1 7                                     ",
"                                  7 2 2 2 2 2 j 1.5.4.4.^ ^ ^ 4.8.^ H H 4.4.4.4.j 7 2 2 2 2 r                                   ",
"                                y 2 2 2 2 2 j 5.5.5.4.4.^ H H 4.6.^ H H 4.4.4.4.5.j 2 2 2 2 1 y                                 ",
"                              v 2 2 2 2 1 z 2.4.5.5.2.4.$.o.&.4.6.&.^ &.4.4.4.4.5.1.z 1 1 2 2 2 v                               ",
"                            Y 2 2 2 2 2 p 1.4.4.2.5.4.4.5.5.4.p.h.d.p.4.4.4.4.4.5.5.1.a 2 2 2 2 2 Y                             ",
"                            7 2 2 2 1 r $.4.4.4.4.4.4.4.w.c.m.m.n.n.n.n.p.4.4.4.2.4.4.$.y 2 2 2 2 9                             ",
"                          z 2 2 1 7 1 $.4.4.4.4.4.4.4.p.m.m.m.m.n.n.n.n.n.h.4.4.4.4.4.4.o.1 2 2 2 1 v                           ",
"                        Y 2 2 2 2 2 Y 3.5.5.5.5.5.5.w.m.m.m.m.m.m.m.m.m.m.m.w.5.5.5.5.3.3.Y 7 1 2 2 2 Y                         ",
"                        9 2 2 2 2 p 3.5.o.v 7 z [ w.n.n.m.m.m.m.m.m.m.m.m.m.m.[ z 9 j o.5.3.y 1 2 2 1 y                         ",
"                      B 7 7 1 2 2 $.,.Y 2 1 1 1 1 _ m.m.m.m.m.m.m.m.m.m.m.m.[ 1 1 1 1 7 Y 1.$.7 2 2 1 7 v                       ",
"                      7 1 1 2 2 I 5.Y 2 p G H G p 1 y.m.m.m.m.m.m.m.m.m.m.0.1 p H ! A p 1 Y 5.Z 2 2 2 1 7                       ",
"                    z 2 1 7 7 1 1.( 1 * O o ; G n 1 ..m.m.m.m.m.m.m.m.m.m...3 n A ; O O = < Q 1.7 1 2 2 2 j                     ",
"                    1 2 7 1 1 E 5.1 O . o . . % n 3 I m.m.m.m.m.m.m.m.m.m.I 3 n % o . o o o < 5.W 2 1 7 1 7                     ",
"                  z 1 1 1 1 p 5.o.= . . . . . . > 3 u m.m.m.m.m.m.m.m.m.m.y 7 ; . . . . o . * @.5.y 1 1 1 2 z                   ",
"                  1 7 7 1 7 @.5.B O . . . . . . $ 3 3 m.m.m.m.m.m.m.m.m.m.7 1 % . . . . o o O C 5.$.7 1 7 1 1                   ",
"                z 2 2 2 7 j 5.1.7 o o . . . . . . 1 1 n.m.m.m.m.m.m.m.m.m.1 3 o . . . . . . . 4 1.5.j 7 2 2 1 z                 ",
"                1 1 2 2 1 $.5.@.1 O . . . . . . % 1 i n.m.m.m.m.m.m.m.m.m.7 3 % . . . . . . % 1 $.5.$.1 2 2 1 2                 ",
"              z 2 2 2 2 n 5.5.Q 2 ; . . . . . . , 1 i n.m.m.m.m.m.m.m.m.m.9 1 , . . . . . . ; 1 Q 5.5.v 2 2 2 2 j               ",
"              2 2 2 2 2 @.5.5.B 2 n % . . . . % A 1 z n.m.m.m.m.m.m.m.m.m.z 1 A = . . . . o m 1 B 5.3.$.2 2 2 2 7               ",
"            B 2 2 2 2 p 5.5.2.p 2 G H ; o o , H A 1 I m.m.m.m.m.m.m.m.m.m.L 3 G H , % % ; D H 1 p 5.5.5.p 2 2 2 2 B             ",
"            9 2 2 2 2 W 5.5.5.r 2 R H H H H ^ ^ n 7 _ m.m.m.m.m.m.m.m.m.m.[ 3 n ^ H H H o.! H 7 r 3.4.2.W 1 2 2 2 9             ",
"          Y 2 2 2 2 7 5.5.5.2.7 2 ! ! o.^ ^ H H a 1 ,.m.m.m.m.m.m.m.m.m.m.:.1 z ^ ^ H H H H H 1 r 4.4.4.5.7 2 2 2 2 Y           ",
"          v 2 2 2 2 I 3.2.5.4.p 2 R ! ! H ^ ^ ^ i 1 y.m.m.m.m.m.m.m.m.m.m.t.1 7 H ^ ^ H H H H 1 y 4.4.4.3.Y 2 2 2 2 v           ",
"          7 2 2 1 1 $.4.4.4.5.B 1 A ^ H H o.! G 2 2 n.m.m.m.m.m.m.m.m.m.m.m.1 7 ! ! ^ ! ^ ! Z 1 B 5.5.5.4.&.1 7 1 1 7           ",
"          2 2 2 7 p 4.4.4.2.5.@.1 a H ^ H ! ! n 2 ..m.m.m.m.m.m.m.m.m.m.m.m.[ 1 n ! ! ^ ! ! p 1 $.5.5.2.2.5.p 1 1 7 7           ",
"        B 2 7 1 1 E 4.4.4.4.4.4.E 1 r a D H G 3 2 i.m.m.m.m.m.m.m.m.m.m.m.m.y.3 1 G E G n 7 1 Y 5.5.5.2.2.5.E 7 7 7 1 B         ",
"        z 2 1 1 1 $.4.4.4.4.4.4.w.[ 1 4 1 1 3 3  .m.m.m.m.m.m.m.m.m.m.m.m.m.m.{ 7 1 1 3 7 1 [ 5.2.2.5.5.5.5.@.1 1 1 3 p         ",
"        7 1 1 7 1 5.5.5.4.4.4.4.h.m.t...I 9 9  .m.m.m.m.m.m.m.m.m.m.m.m.m.m.m.m...9 9 L ..y.m.p.4.4.4.4.4.4.2.1 2 2 1 7         ",
"        1 7 7 1 j 4.5.5.4.4.4.4.m.m.m.n.m.m.m.m.m.m.m.m.m.m.m.m.m.m.m.m.m.m.m.m.m.m.m.m.m.m.m.g.4.4.4.4.4.4.5.p 2 2 2 2         ",
"      I 7 1 1 1 E 4.2.4.5.2.5.w.m.m.m.m.m.m.m.m.m.m.m.m.m.m.m.m.m.m.m.m.m.m.m.m.m.m.m.m.m.m.m.m.4.5.2.4.4.4.4.E 2 2 2 2 I       ",
"      v 1 1 7 1 o.4.4.4.5.2.5.h.m.m.m.m.m.m.m.m.m.m.m.m.m.m.m.m.m.m.m.m.m.m.m.m.m.m.m.m.m.m.m.m.w.5.4.4.4.4.4.o.2 2 2 1 v       ",
"      z 1 2 2 2 $.4.4.4.4.4.4.c.m.m.m.m.m.m.m.m.m.m.m.m.m.m.m.m.m.m.m.m.m.m.m.m.m.m.m.m.m.m.m.m.h.4.4.4.4.4.4.$.2 2 2 2 z       ",
"      y 2 2 2 2 ,.4.4.4.4.4.4.n.m.m.m.m.m.m.m.m.m.m.m.m.m.m.m.m.m.m.m.m.m.m.m.m.m.m.m.m.m.m.m.m.h.4.4.4.4.4.4.,.2 2 2 2 7       ",
"      2 2 2 2 2 4.4.4.4.4.4.4.n.m.m.m.m.m.m.m.m.m.m.m.m.m.m.m.m.m.m.m.m.m.m.m.m.m.m.m.m.m.m.m.m.c.5.4.4.4.4.4.4.2 2 2 2 2       ",
"      2 2 2 2 9 4.4.4.4.4.4.4.n.m.m.m.m.m.m.m.m.m.m.m.m.m.m.m.m.m.m.m.m.m.m.m.m.m.m.m.m.m.m.m.m.n.2.4.4.4.4.4.4.y 1 2 2 2       ",
"      2 2 2 2 z 4.4.4.4.2.5.5.m.m.m.m.m.m.m.m.m.m.m.m.m.m.m.m.m.m.m.m.m.m.m.m.m.m.m.m.m.m.m.m.m.n.5.5.2.4.4.4.4.z 2 2 2 2       ",
"      2 2 2 1 z 4.4.4.4.5.5.5.l.m.m.m.m.m.m.m.m.m.m.m.m.m.m.m.m.m.m.m.m.m.m.m.m.m.m.m.m.m.m.m.m.n.5.4.4.4.2.4.4.z 2 2 2 2       ",
"      2 2 1 2 v 4.4.5.5.5.2.5.p.m.m.m.m.m.m.m.m.m.m.m.m.m.m.m.m.m.m.m.m.m.m.m.m.m.m.m.m.m.m.m.m.c.4.4.4.5.5.5.5.j 7 2 2 2       ",
"    Y 2 2 7 1 v 4.4.2.2.5.5.7.w.m.m.m.m.m.m.m.m.m.m.m.m.m.m.m.m.m.m.m.m.m.m.m.m.m.m.m.m.m.m.m.m.h.4.4.4.2.5.5.5.v 1 2 2 2 Y     ",
"      2 2 2 2 v 5.5.4.4.4.4.4.4.n.m.m.m.m.m.m.m.m.m.m.m.m.m.m.m.m.m.m.m.m.m.m.m.m.m.m.m.m.m.m.m.p.5.5.5.4.4.4.4.j 7 2 2 2       ",
"      2 2 2 2 j 5.5.4.4.4.4.4.4.l.m.m.m.m.m.m.m.m.m.m.m.m.m.m.m.m.m.m.m.m.m.m.m.m.m.m.m.m.m.m.m.9.5.2.5.4.4.4.4.j 1 2 2 2       ",
"      2 2 2 1 z 5.4.4.4.4.4.4.4.h.m.m.m.m.m.m.m.m.m.m.m.m.m.m.m.m.m.m.m.m.m.m.m.m.m.m.m.m.m.m.m.4.4.4.4.4.4.4.4.j 1 7 2 2       ",
"      2 2 2 2 9 5.2.4.4.4.4.4.4.p.m.m.m.m.m.m.m.m.m.m.m.m.m.m.m.m.m.m.m.m.m.m.m.m.m.m.m.m.m.m.l.4.4.4.4.4.4.4.4.y 1 1 2 2       ",
"      2 2 2 2 2 4.4.4.4.4.4.4.4.4.n.n.m.m.m.m.m.m.m.m.m.m.m.m.m.m.m.m.m.m.m.m.m.m.m.m.m.m.m.m.p.4.4.4.4.4.4.4.4.2 2 2 2 2       ",
"      y 2 2 2 2 1.4.4.4.4.4.4.4.5.c.n.n.m.m.m.m.m.m.m.m.m.m.m.m.m.m.m.m.m.m.m.m.m.m.m.m.m.n.m.9.4.4.4.4.4.4.3.1.2 2 2 2 y       ",
"      z 2 2 2 2 $.4.4.4.4.4.4.4.5.h.m.m.m.m.m.m.m.m.m.m.m.m.m.m.m.m.m.m.m.m.m.m.m.m.m.m.n.n.l.5.4.4.4.4.4.4.4.$.2 2 1 2 z       ",
"      B 2 2 2 2 ` 4.4.4.4.4.4.4.5.p.m.m.m.m.m.m.m.m.m.m.m.m.m.m.m.m.m.m.m.m.m.m.m.m.m.m.n.n.p.5.4.4.4.4.4.4.4.` 2 2 7 1 v       ",
"      Y 2 2 2 2 Y 5.4.4.4.4.4.4.4.4.n.n.n.n.m.m.m.m.m.m.m.m.m.m.m.m.m.m.m.m.m.m.m.m.m.m.m.m.9.2.4.4.4.4.5.5.3.Y 2 2 2 2 Y       ",
"        2 2 2 2 y 2.4.4.4.4.4.4.2.5.c.n.m.n.m.m.m.m.m.m.m.m.m.m.m.m.m.m.m.m.m.m.m.m.m.m.n.n.5.5.4.4.4.4.5.5.5.p 2 2 2 2         ",
"        9 2 2 2 1 ;.4.4.4.4.4.4.5.5.h.n.m.m.m.m.m.m.m.m.m.m.m.m.m.m.m.m.m.m.m.m.m.m.m.m.n.h.3.5.4.4.4.4.2.5.;.1 2 2 2 7         ",
"        v 2 2 2 1 E 4.4.4.4.4.4.5.5.9.n.m.m.m.m.m.m.m.m.m.m.m.m.m.m.m.m.m.m.m.m.m.m.m.m.n.w.5.5.4.4.4.4.2.5.W 2 2 2 2 v         ",
"        Y 2 2 2 1 y 4.2.4.4.4.4.4.4.4.n.m.m.m.m.m.m.m.m.m.m.m.m.m.m.m.m.m.m.m.m.m.m.m.m.n.4.4.4.4.4.4.4.5.5.r 2 2 2 2 Y         ",
"          7 2 2 1 1 @.5.4.4.4.4.4.4.4.h.m.m.m.m.m.m.m.m.m.m.m.m.m.m.m.m.m.m.m.m.m.m.m.m.h.4.4.4.4.4.4.4.5.O.1 2 2 2 2           ",
"          v 1 7 7 1 W 5.4.4.4.4.2.4.5.t.m.m.m.m.m.m.m.m.m.m.m.m.m.m.m.m.m.m.m.m.m.m.n.n.w.5.4.4.4.4.4.4.5.W 2 2 2 2 v           ",
"            2 1 1 7 j 4.4.4.4.4.5.5.5.7.m.m.m.m.m.m.m.m.m.m.m.m.m.m.m.m.m.m.m.m.m.n.n.n.4.5.4.4.4.4.4.4.5.j 2 2 2 2             "
};
