/* XPM */
static char *Head_left1705422483[] = {
/* columns rows colors chars-per-pixel */
"64 64 146 2 ",
"   c #FFFFFF",
".  c #374E36",
"X  c #374F36",
"o  c #384F37",
"O  c #395138",
"+  c #395238",
"@  c #3A5239",
"#  c #3A5339",
"$  c #3B543A",
"%  c #3C543B",
"&  c #3C553B",
"*  c #3F5A3E",
"=  c #405D3F",
"-  c #446143",
";  c #456044",
":  c #456144",
">  c #476446",
",  c #486447",
"<  c #4A6D49",
"1  c #4B6E4A",
"2  c #4C704B",
"3  c #4C714B",
"4  c #4D714C",
"5  c #4D724C",
"6  c #4E724C",
"7  c #4E734D",
"8  c #4F734E",
"9  c #4E744D",
"0  c #4F744E",
"q  c #4F754E",
"w  c #4F764E",
"e  c #50754E",
"r  c #50744F",
"t  c #50764F",
"y  c #50774F",
"u  c #50784F",
"i  c #517550",
"p  c #517750",
"a  c #537752",
"s  c #517850",
"d  c #527850",
"f  c #527950",
"g  c #527951",
"h  c #527A51",
"j  c #537A51",
"k  c #527B51",
"l  c #537A52",
"z  c #537B52",
"x  c #547C52",
"c  c #547C53",
"v  c #547D53",
"b  c #557D53",
"n  c #557954",
"m  c #567955",
"M  c #567A55",
"N  c #577A56",
"B  c #557E54",
"V  c #567F54",
"C  c #587A57",
"Z  c #587C57",
"A  c #597C58",
"S  c #597D58",
"D  c #5A7C59",
"F  c #5A7D59",
"G  c #5B7E5A",
"H  c #5C7F5B",
"J  c #578055",
"K  c #568255",
"L  c #568355",
"P  c #578355",
"I  c #578156",
"U  c #588256",
"Y  c #588257",
"T  c #588357",
"R  c #5C805B",
"E  c #598458",
"W  c #5A8558",
"Q  c #5B8759",
"!  c #5D805C",
"~  c #5E815D",
"^  c #5F825E",
"/  c #5F835E",
"(  c #5D8A5B",
")  c #5C8C5A",
"_  c #5C8D5B",
"`  c #5D8A5C",
"'  c #5D8B5C",
"]  c #5E8C5C",
"[  c #5F8D5D",
"{  c #5D8E5C",
"}  c #5D8F5C",
"|  c #5F8E5E",
" . c #5E905C",
".. c #5E905D",
"X. c #5F925D",
"o. c #608F5E",
"O. c #61905F",
"+. c #619160",
"@. c #629160",
"#. c #629260",
"$. c #629261",
"%. c #639361",
"&. c #659263",
"*. c #649462",
"=. c #649562",
"-. c #649663",
";. c #659663",
":. c #639962",
">. c #639A62",
",. c #679965",
"<. c #679A65",
"1. c #689B66",
"2. c #699C67",
"3. c #699D67",
"4. c #6A9E68",
"5. c #6A9F68",
"6. c #6BA069",
"7. c #6BA169",
"8. c #6CA26A",
"9. c #6CA36A",
"0. c #6BA769",
"q. c #6CA46A",
"w. c #6DA56B",
"e. c #6DA66B",
"r. c #6DA76B",
"t. c #6CA96A",
"y. c #6CAA6A",
"u. c #6CAA6B",
"i. c #6DAB6B",
"p. c #6EA86C",
"a. c #6EA96C",
"s. c #6EAA6C",
"d. c #6FAA6D",
"f. c #6FAB6D",
"g. c #6FAC6D",
"h. c #70AD6E",
"j. c #70AE6E",
"k. c #70AF6E",
"l. c #71B06F",
"z. c #71B16F",
"x. c #71B26F",
"c. c #72B270",
"v. c #72B470",
"b. c #72B570",
"n. c #73B571",
"m. c #73B671",
/* pixels */
"                                                                                                                                ",
"                                                                                                                                ",
"                                                                                              Y                                 ",
"                                                                            I v z y 2 2 2 2 2 2 2 2 2 2 1 y z v Y               ",
"                                                                    v z 7 2 2 2 2 2 2 2 2 2 2 2 2 2 2 2 2 2 2 2 2 2 w v Y       ",
"                                                            Y v 7 2 1 2 1 2 2 2 2 2 2 2 2 2 2 2 2 2 2 2 2 2 2 2 2 2 1 2 2 2 v   ",
"                                                        B w 1 2 2 2 2 2 2 2 2 2 2 2 2 1 2 2 2 2 2 2 2 1 2 2 2 2 2 2 2 2 2 2 2 2 ",
"                                                    z 2 2 2 2 2 2 2 2 2 2 2 2 2 2 2 2 r z x v v v z z w 2 2 2 2 2 2 2 2 2 2 2 2 ",
"                                                z 2 2 2 2 2 1 7 2 1 2 2 2 z T | %.1.3.4.4.4.4.4.4.4.4.4.3.1.%.( Y y 1 7 1 2 2 2 ",
"                                            z 1 1 2 2 2 2 2 2 1 2 y Y %.3.4.4.4.3.3.4.4.4.4.4.4.4.4.4.4.4.4.3.4.3.3.;.W y 1 2 2 ",
"                                        z 1 7 7 1 2 2 2 2 2 7 I &.4.3.4.4.4.4.4.4.4.4.4.4.4.4.4.4.4.4.4.4.4.4.4.4.4.4.4.4.O.W z ",
"                                    B 1 1 7 1 1 2 2 2 2 p W 4.4.3.4.4.4.4.4.4.4.4.4.4.4.4.4.4.4.4.4.4.4.4.4.4.4.4.4.4.4.4.4.4.3.",
"                                I w 1 7 7 1 1 7 2 2 v %.4.4.4.4.6.3.4.4.4.4.4.4.4.4.4.4.4.4.4.4.4.4.4.4.4.4.4.4.4.4.4.4.4.4.4.4.",
"                              z 2 2 7 1 1 1 7 1 z %.4.3.4.4.4.4.6.3.4.4.4.4.4.3.4.4.4.4.4.4.4.4.4.4.4.4.4.4.4.4.4.4.4.4.4.4.4.4.",
"                          Y 7 2 2 2 2 2 2 2 z o.4.4.4.4.4.4.4.4.3.4.4.4.4.4.4.3.4.3.4.4.4.3.6.3.4.3.4.4.4.4.4.4.4.4.4.4.4.4.4.4.",
"                        v 2 2 2 2 2 2 1 7 W 4.4.1.%.W B p 7 7 p B O.4.4.4.4.6.e.d.j.c.n.n.n.x.j.d.e.4.4.4.4.4.4.4.4.4.4.4.4.4.4.",
"                      y 2 2 2 2 2 2 2 I 3.3.o.B 1 1 7 1 1 7 7 1 2 2 T 3.s.x.m.m.m.m.m.m.m.m.m.m.n.n.n.x.s.6.3.3.3.6.4.4.4.4.4.4.",
"                    7 2 2 2 2 2 2 p %.3.( 1 = + o + ; M G G H H Z p 2 _ x.m.m.m.m.m.m.m.m.m.m.m.n.n.n.n.m.m.x.g.9.3.3.3.4.4.4.4.",
"                T 7 2 2 2 2 2 2 Y 3.1.T 1 + . . . . . % D ^ H H ^ H 2 2 g.x.m.m.m.m.m.m.m.m.m.m.m.m.n.n.m.m.m.m.n.n.h.9.4.3.4.4.",
"              Y 2 2 2 2 2 2 7 O.3.4.Y 2 * . . . . . . . ; ^ ^ ^ ^ ^ v 2 X.m.m.m.m.m.m.m.m.m.m.m.m.m.m.m.m.m.m.m.n.m.n.n.n.j.e.9.",
"            Y 7 2 2 2 2 2 p ;.4.4.o.1 p + . . . . . . . + H H ^ H H Z 2 I x.m.m.m.m.m.m.m.m.m.m.m.m.m.m.m.m.m.m.m.m.m.m.n.m.m.m.",
"            7 1 2 2 2 2 z ,.3.4.4.B 1 D + . . . . . . . + ^ ^ ^ ^ ^ ^ 2 u n.m.m.m.m.m.m.m.m.m.m.m.m.m.m.m.m.m.m.m.m.m.m.n.n.m.m.",
"          w 2 2 2 2 2 z 3.3.4.4.4.7 7 H ; . . . . . o o ; H ^ H ^ ^ G 1 w x.m.m.m.m.m.m.m.m.m.m.m.m.m.m.m.m.m.m.m.m.m.m.m.m.m.m.",
"        B 2 2 2 2 1 z 4.4.4.4.4.4.z 1 D D % . . . . o % D ^ ^ H G M 2 1 X.m.m.m.m.m.m.m.m.m.m.m.m.m.m.m.m.m.m.m.m.m.m.m.m.m.m.m.",
"        2 2 2 2 2 z 1.3.4.4.4.4.4.| 2 w M M > % o + , D Z B p r 2 2 2  .x.m.m.m.m.m.m.m.m.m.m.m.m.m.m.m.m.m.m.m.m.m.m.m.m.m.m.m.",
"      v 2 2 2 2 7 ;.4.4.4.4.4.4.e.c.| 1 2 2 3 3 1 7 7 1 2 2 1 7 2 _ g.m.m.m.m.m.m.m.m.m.m.m.m.m.m.m.m.m.m.m.m.m.m.m.m.m.m.m.m.m.",
"      2 2 2 2 2 W 4.4.4.4.4.4.d.m.m.n.0. .L u 5 2 7 7 z L _ >.y.n.n.m.m.m.m.m.m.m.m.m.m.m.m.m.m.m.m.m.m.m.m.m.m.m.m.m.m.m.m.m.m.",
"    I 2 2 2 2 y 4.4.4.4.4.4.e.n.m.n.n.n.m.m.m.m.n.n.n.n.m.m.n.m.n.n.m.m.m.m.m.m.m.m.m.m.m.m.m.m.m.m.m.m.m.m.m.m.m.m.m.m.m.m.m.m.",
"    v 1 2 2 2 W 4.&.^ ^ &.4.n.n.m.m.m.m.m.m.m.m.n.m.m.m.m.m.m.m.m.m.m.m.m.m.m.m.m.m.m.m.m.m.m.m.m.m.m.m.m.m.m.m.m.m.m.m.m.m.m.m.",
"    y 2 2 2 2 ;.,.o.H ^ ^ h.n.n.m.m.m.m.m.m.m.m.m.m.m.m.m.m.m.m.m.m.m.m.m.m.m.m.m.m.m.m.m.m.m.m.m.m.m.m.m.m.m.m.m.m.m.m.m.m.m.m.",
"    7 2 2 2 2 1.2.&.^ ^ &.h.n.n.m.m.m.m.m.m.m.m.m.m.m.m.m.m.m.m.m.m.m.m.m.m.m.m.m.m.m.m.m.m.m.m.m.m.m.m.m.m.m.m.m.m.m.m.m.m.m.m.",
"    2 2 2 2 2 4.2.4.4.4.4.h.n.n.m.m.m.m.m.m.m.m.m.m.m.m.m.m.m.m.m.m.m.m.m.m.m.m.m.m.m.m.m.m.m.m.m.m.m.m.m.m.m.m.m.m.m.m.m.m.m.m.",
"    2 1 2 2 1 3.4.4.4.4.3.d.n.n.m.m.m.m.m.m.m.m.m.m.m.m.m.m.m.m.m.m.m.m.m.m.m.m.m.m.m.m.m.m.m.m.m.m.m.m.m.m.m.m.m.m.m.m.m.m.m.m.",
"    7 7 2 1 7 1.4.&.^ ^ &.e.m.n.m.m.m.m.m.m.m.m.m.m.m.m.m.m.m.m.m.m.m.m.m.m.m.m.m.m.m.m.m.m.m.m.m.m.m.m.m.m.m.m.m.m.m.m.m.m.m.m.",
"    y 1 2 2 7 ;.4.^ H ^ o.1.x.n.m.m.m.m.m.m.m.m.m.m.m.m.m.m.m.m.m.m.m.m.m.m.m.m.m.m.m.m.m.m.m.m.m.m.m.m.m.m.m.m.m.m.m.m.m.m.m.m.",
"    v 2 2 2 1 W 4.&.^ ^ &.1.9.n.m.m.m.m.m.m.m.n.m.m.m.m.m.m.m.m.m.m.m.m.m.m.m.m.m.m.m.m.m.m.m.m.m.m.m.m.m.m.m.m.m.m.m.m.m.m.m.m.",
"    I 2 2 2 2 y 4.4.4.4.4.4.4.p.m.m.m.m.n.m.m.n.m.m.m.m.n.m.m.x.m.m.m.m.m.m.m.m.m.m.m.m.m.m.m.m.m.m.m.m.m.m.m.m.m.m.m.m.m.m.m.m.",
"      2 2 1 2 2 Q 4.4.4.4.4.4.4.d.n.n.y. .I z 2 2 5 w z I _ >.s.n.m.m.m.m.m.m.m.m.m.m.m.m.m.m.m.m.m.m.m.m.m.m.m.m.m.m.m.m.m.m.m.",
"      v 1 7 1 7 7 ;.4.4.4.4.4.4.3.e._ 2 1 1 1 7 7 1 2 2 1 2 2 1 2  .y.n.m.m.m.m.m.m.m.m.m.m.m.m.m.m.m.m.m.m.m.m.m.m.m.m.m.m.m.m.",
"        2 7 1 1 1 M 1.4.4.4.4.4.3.| 1 w M M , + o % , B G C p 7 2 2 2 X.m.m.m.m.m.m.m.m.m.m.m.m.m.m.m.m.m.m.m.m.m.m.m.m.m.m.m.m.",
"        B 1 7 1 2 2 z 3.4.4.4.4.4.z 2 G D & . . . . . & D ^ H ^ R M 1 2 X.n.n.n.m.m.m.m.m.m.m.m.m.m.m.m.m.m.m.m.m.m.m.m.m.m.m.m.",
"          y 2 2 2 2 1 z 3.4.4.4.3.7 2 H - o . . . . . . ; ^ ^ ^ ^ R G 2 w m.n.n.m.m.m.m.m.m.m.m.m.m.m.m.m.m.m.m.m.m.m.m.m.m.m.m.",
"            7 1 2 2 2 2 z 1.3.4.4.v 1 D O . . . . . . . o ^ H H ^ R R 2 w n.m.m.m.m.m.m.m.m.m.m.m.m.m.m.m.m.m.m.m.m.m.m.m.m.m.m.",
"            Y 7 2 2 2 2 2 y ;.3.4.O.2 p O . . . . . . . O ^ ^ ^ ^ ^ G 2 L m.m.m.m.m.m.m.m.m.m.m.m.m.m.m.m.m.m.m.m.m.m.m.m.m.m.m.",
"              Y 2 2 2 2 2 2 7 O.6.3.L 2 * . . . . . . . ; H H ^ G ^ M 2  .n.m.m.m.m.m.m.m.m.m.m.m.m.m.m.n.m.m.m.n.n.n.n.n.k.s.6.",
"                Y 7 2 2 2 2 2 2 Y 3.,.R 1 + . . . . . & D ^ ^ ^ ^ G 2 1 y.m.m.m.m.m.m.m.m.m.m.m.m.m.m.m.n.n.m.m.n.c.g.0.6.3.3.3.",
"                    7 2 2 2 2 2 2 u %.4.` 1 = + . # - M G H H H M p 1 _ m.n.m.m.m.m.m.m.m.m.m.m.n.n.m.m.n.n.g.e.6.4.4.4.4.4.6.3.",
"                      y 2 2 2 2 2 2 1 Y 1.4.o.B 1 7 1 1 7 1 7 1 3 3 R 0.k.n.m.m.m.m.m.m.m.m.m.m.m.c.d.y.6.4.4.4.4.4.4.4.4.4.4.4.",
"                        v 2 2 2 7 1 2 2 7 T 4.4.1.%.W B z 7 7 y B o.4.4.4.4.e.h.x.n.n.n.c.j.h.e.6.4.4.4.4.4.4.4.4.4.4.4.4.4.4.4.",
"                          Y 7 2 1 1 2 2 2 2 y %.4.4.4.4.4.4.3.4.4.4.4.4.4.4.3.4.3.3.6.6.4.4.1.4.6.3.4.4.4.4.4.4.4.4.4.4.4.4.4.4.",
"                              z 1 7 2 2 2 2 2 2 z &.4.4.4.4.4.4.4.4.4.4.4.4.4.4.4.4.4.4.4.4.4.4.4.4.4.4.4.4.4.4.4.4.4.4.4.4.4.4.",
"                                Y w 2 1 2 2 2 2 2 1 x %.4.4.4.4.4.4.4.4.4.4.4.4.4.4.4.4.4.4.4.4.4.4.4.4.4.4.4.4.4.4.4.4.4.4.4.4.",
"                                    B 7 2 2 2 2 2 2 2 2 y W 4.4.4.4.4.4.4.4.4.4.4.4.4.4.4.4.4.4.4.4.4.4.4.4.4.4.4.4.4.4.4.4.4.4.",
"                                        x 2 2 1 2 2 2 2 2 2 2 Y &.3.4.4.4.4.4.4.4.4.4.4.4.4.4.4.4.4.4.4.4.4.4.4.4.4.4.4.4. .W z ",
"                                            z 1 2 2 2 2 2 2 2 2 1 w T %.3.4.4.3.4.3.4.4.4.4.4.4.4.4.4.4.4.4.4.4.4.4.%.Y t 1 3 1 ",
"                                                z 1 2 2 2 2 2 2 2 2 2 2 1 z W _ &.1.4.4.4.4.4.4.4.4.4.4.4.,.%.( I t 7 1 3 3 1 7 ",
"                                                    x 2 2 1 2 2 2 2 2 2 2 2 2 2 2 2 2 y p x v v v z z w 2 2 2 2 3 1 1 3 1 3 1 7 ",
"                                                        B w 2 2 2 2 2 2 2 2 2 2 2 2 2 2 7 1 2 2 2 1 1 2 2 2 2 2 1 7 7 1 7 1 3 1 ",
"                                                            Y v w 2 2 1 2 2 2 2 2 2 2 2 1 1 2 2 2 2 2 2 2 2 2 2 3 1 3 3 1 7 c   ",
"                                                                    B z 2 2 2 2 2 2 2 2 1 7 2 2 2 2 2 2 2 2 2 2 1 7 7 c R       ",
"                                                                            Y v z 7 2 2 2 2 2 2 2 2 2 2 2 w z B T               ",
"                                                                                              T                                 ",
"                                                                                                                                ",
"                                                                                                                                "
};
