/* XPM */
static char *Head_right1707133380[] = {
/* columns rows colors chars-per-pixel */
"32 32 137 2 ",
"   c #FFFFFF",
".  c #374E36",
"X  c #374F36",
"o  c #384F37",
"O  c #3E593D",
"+  c #445F43",
"@  c #426041",
"#  c #436042",
"$  c #466545",
"%  c #466645",
"&  c #4B694A",
"*  c #4B6F4A",
"=  c #4C6E4B",
"-  c #4D6F4C",
";  c #4E6F4D",
":  c #4C704B",
">  c #4C714B",
",  c #4D714B",
"<  c #4D734B",
"1  c #4D714C",
"2  c #4D734C",
"3  c #4D734D",
"4  c #4E724C",
"5  c #4E734C",
"6  c #4E724D",
"7  c #4E734D",
"8  c #4F734E",
"9  c #4E744D",
"0  c #4F744D",
"q  c #4E754D",
"w  c #4F754D",
"e  c #4F744E",
"r  c #4E754E",
"t  c #4F754E",
"y  c #4F764E",
"u  c #4F764F",
"i  c #50754E",
"p  c #50744F",
"a  c #50754F",
"s  c #50764E",
"d  c #50764F",
"f  c #51764F",
"g  c #50774F",
"h  c #51774F",
"j  c #50784F",
"k  c #517450",
"l  c #517550",
"z  c #537752",
"x  c #547753",
"c  c #567755",
"v  c #517850",
"b  c #517951",
"n  c #527850",
"m  c #537B52",
"M  c #537C52",
"N  c #547C52",
"B  c #547C53",
"V  c #547D53",
"C  c #557E54",
"Z  c #5B7E5A",
"A  c #568055",
"S  c #578055",
"D  c #588357",
"F  c #5A8658",
"G  c #5A8659",
"H  c #5A8759",
"J  c #5D805C",
"K  c #5E815D",
"L  c #5E825D",
"P  c #5B8959",
"I  c #5B885A",
"U  c #5C895A",
"Y  c #5C895B",
"T  c #5C8A5B",
"R  c #5D8A5B",
"E  c #5E8B5C",
"W  c #5E8C5D",
"Q  c #5F8E5E",
"!  c #5F935E",
"~  c #608E5E",
"^  c #60905F",
"/  c #61905F",
"(  c #61915F",
")  c #60955F",
"_  c #619160",
"`  c #629260",
"'  c #629361",
"]  c #649062",
"[  c #649063",
"{  c #619660",
"}  c #619760",
"|  c #629760",
" . c #649562",
".. c #649662",
"X. c #659663",
"o. c #659763",
"O. c #659364",
"+. c #669464",
"@. c #669664",
"#. c #669764",
"$. c #629961",
"%. c #649B62",
"&. c #679965",
"*. c #679A65",
"=. c #679B65",
"-. c #659E64",
";. c #669F64",
":. c #669F65",
">. c #689A66",
",. c #689B66",
"<. c #699C67",
"1. c #699D67",
"2. c #6A9E68",
"3. c #6A9F68",
"4. c #69A168",
"5. c #6AA068",
"6. c #6BA169",
"7. c #6BA269",
"8. c #6BA369",
"9. c #6CA56A",
"0. c #6DA76B",
"q. c #6CAA6A",
"w. c #6DAB6B",
"e. c #6EA86C",
"r. c #6EA96C",
"t. c #6EAA6C",
"y. c #6FAD6D",
"u. c #70AE6E",
"i. c #70AF6E",
"p. c #70B06E",
"a. c #70B26E",
"s. c #71B26F",
"d. c #72B370",
"f. c #72B470",
"g. c #72B570",
"h. c #73B571",
"j. c #73B671",
/* pixels */
"                                                                ",
"          : w h u w 7                                           ",
"  w 7 : : : : : 7 = = * 7 - w w                                 ",
": : : : : : 7 w w w > 7 * * : : 7 w w                           ",
": : V W  .<.2.2.2.2.2.>.` R n 7 * = > 7 w                       ",
"W *.2.2.2.2.2.2.2.2.2.2.2.2.2.>.R u = 7 - 7 n                   ",
"5.2.2.2.2.2.2.2.2.2.2.2.2.2.2.2.2.2.` n > = > w                 ",
"2.2.2.2.2.2.2.2.5.0.t.t.5.2.2.` R R ` *.` w = > 7 n             ",
"2.2.2.2.7.t.u.f.j.j.j.j.j.f.U 7 x l = @ > W T > * = w           ",
"7.0.u.f.j.j.j.j.j.j.j.j.f.w.7 L L c o . . O A +.n > = 7         ",
"j.j.j.j.j.j.j.j.j.j.j.j.j.$.n L L & . . . . l ` *.C > > 7       ",
"j.j.j.j.j.j.j.j.j.j.j.j.f.%.p Z L c o . . + n T 2.2.C > 7 u     ",
"j.j.j.j.j.j.j.j.j.j.j.j.j.j.| l 7 u 7 + % h w =.2.2.2.M * 7     ",
"j.j.j.j.j.j.j.j.j.j.j.j.j.j.j.j.t.=.) ! ! 4.p.f.5.2.2. .: * w   ",
"j.j.j.j.j.j.j.j.j.j.j.j.j.j.j.j.j.j.f.f.j.j.j.j.p.+.L O.C : w   ",
"j.j.j.j.j.j.j.j.j.j.j.j.j.j.j.j.j.j.j.j.j.j.j.j.f.2.] >.F : :   ",
"j.j.j.j.j.j.j.j.j.j.j.j.j.j.j.j.j.j.j.j.j.j.j.j.j.9.[ *.F > =   ",
"j.j.j.j.j.j.j.j.j.j.j.j.j.j.j.j.j.j.j.j.j.f.j.j.f.+.L O.C = w   ",
"j.j.j.j.j.j.j.j.j.j.j.j.j.j.f.f.w.=.$.) ) =.a.f.t.2.2.*.7 * u   ",
"j.j.j.j.j.j.j.j.j.j.j.j.j.j.$.u w l - @ % u b 4.2.2.2.M * 7     ",
"j.j.j.j.j.j.j.j.j.j.j.j.j.=.w Z L c o . . + x I 2.<.A = * u     ",
"j.j.j.j.j.j.j.j.j.j.j.j.f.$.n L L & . o . . p ` *.C 7 > 7       ",
"2.t.i.f.f.f.j.j.j.j.j.j.j.t.7 L L c o o . O D  .n : > 7         ",
"2.2.2.2.0.u.f.j.j.j.j.j.j.w.F l x l = @ * R I 7 : : w           ",
"2.2.2.2.2.2.2.5.0.t.0.9.2.2.2.` I I ` =.` w = > : h             ",
"2.2.2.2.2.2.2.5.2.2.2.2.2.2.2.2.2.2.` n = > > w                 ",
"[ *.2.2.2.2.2.2.2.2.2.2.2.2.2.*.W n > = > 7 n                   ",
"* : V W | 2.2.2.2.2.2.*.` R V > > > * 7 l                       ",
"= > = * - > 7 w u w 7 > > = : - = w u                           ",
"  w 7 7 > = = > > = * = > > w w                                 ",
"          7 w u h w 7                                           ",
"                                                                "
};
