/* XPM */
static char *Head_down1707133379[] = {
/* columns rows colors chars-per-pixel */
"32 32 133 2 ",
"   c #FFFFFF",
".  c #374E36",
"X  c #374F36",
"o  c #384F37",
"O  c #3E593D",
"+  c #445F43",
"@  c #426041",
"#  c #436042",
"$  c #466545",
"%  c #4B694A",
"&  c #4B6F4A",
"*  c #4C6E4B",
"=  c #4D6F4C",
"-  c #4C704B",
";  c #4C714B",
":  c #4D714B",
">  c #4D734B",
",  c #4D714C",
"<  c #4D724C",
"1  c #4E724C",
"2  c #4E734C",
"3  c #4E724D",
"4  c #4E734D",
"5  c #4F734E",
"6  c #4E744D",
"7  c #4F744D",
"8  c #4E754D",
"9  c #4F744E",
"0  c #4F754E",
"q  c #4F764E",
"w  c #4F774E",
"e  c #4F764F",
"r  c #50754E",
"t  c #50744F",
"y  c #50754F",
"u  c #50764E",
"i  c #50764F",
"p  c #51764F",
"a  c #50774F",
"s  c #51774F",
"d  c #50784F",
"f  c #517450",
"g  c #517550",
"h  c #537752",
"j  c #547753",
"k  c #567755",
"l  c #517850",
"z  c #517951",
"x  c #527850",
"c  c #537B52",
"v  c #537C52",
"b  c #547C52",
"n  c #547C53",
"m  c #547D53",
"M  c #557E54",
"N  c #5B7E5A",
"B  c #568055",
"V  c #578055",
"C  c #588357",
"Z  c #5A8659",
"A  c #5A8759",
"S  c #5D805C",
"D  c #5E815D",
"F  c #5E825D",
"G  c #5A8859",
"H  c #5B885A",
"J  c #5C895A",
"K  c #5C895B",
"L  c #5C8A5B",
"P  c #5E8B5C",
"I  c #5E8C5C",
"U  c #5E8C5D",
"Y  c #5F8E5E",
"T  c #5F935E",
"R  c #60905F",
"E  c #61915F",
"W  c #60955F",
"Q  c #619160",
"!  c #629260",
"~  c #629361",
"^  c #649062",
"/  c #649063",
"(  c #619660",
")  c #619760",
"_  c #649562",
"`  c #659663",
"'  c #659763",
"]  c #659364",
"[  c #659464",
"{  c #669664",
"}  c #669764",
"|  c #629860",
" . c #629961",
".. c #649B62",
"X. c #679965",
"o. c #679A65",
"O. c #679B65",
"+. c #669E64",
"@. c #669F64",
"#. c #689A66",
"$. c #689B66",
"%. c #699C67",
"&. c #699D67",
"*. c #6A9E68",
"=. c #6A9F68",
"-. c #69A168",
";. c #6AA068",
":. c #6BA069",
">. c #6BA169",
",. c #6BA269",
"<. c #6BA369",
"1. c #6CA36A",
"2. c #6CA46A",
"3. c #6CA56A",
"4. c #6DA66B",
"5. c #6DA76B",
"6. c #6DA86B",
"7. c #6CAA6A",
"8. c #6DAB6B",
"9. c #6EA86C",
"0. c #6EA96C",
"q. c #6EAA6C",
"w. c #6FAD6D",
"e. c #70AE6E",
"r. c #70AF6E",
"t. c #70B06E",
"y. c #70B26E",
"u. c #71B26F",
"i. c #72B370",
"p. c #72B470",
"a. c #72B570",
"s. c #73B571",
"d. c #73B671",
/* pixels */
"      - - Y *.*.*.>.s.d.d.d.d.d.d.d.d.d.d.d.>.>.%.>.Y - -       ",
"    0 - - O.*.*.*.6.s.s.d.d.d.d.d.d.d.d.d.d.6.%.*.%.O.- - u     ",
"    4 - M *.*.*.%.t.d.d.d.d.d.d.d.d.d.d.d.d.t.%.*.*.*.v & 4     ",
"    - - Y *.*.*.>.u.d.d.d.d.d.d.d.d.d.d.s.s.s.;.*.*.*.Y & 4     ",
"    - - _ *.*.*.4.d.d.d.d.d.d.d.d.d.d.d.d.d.d.2.*.*.%.` = -     ",
"  - - - $.*.*.*.w.d.d.d.d.d.d.d.d.d.d.d.d.d.d.9.*.%.>.%.- - -   ",
"  0 - 4 *.*.*.*.u.d.d.d.d.d.d.d.d.d.d.d.d.d.d.t.*.*.>.%.0 - 0   ",
"  0 - 0 *.*.*.>.d.d.d.d.d.d.d.d.d.d.d.d.d.d.d.u.*.*.%.%.0 - d   ",
"  0 4 0 *.*.*.4.s.s.d.d.d.d.d.d.d.d.d.d.d.d.d.d.<.*.*.*.u - u   ",
"  u - 0 *.*.*.9.s.s.d.d.d.d.d.d.d.d.d.d.d.d.d.d.6.*.%.>.u - u   ",
"  4 - - *.*.*.6.d.d.d.d.d.d.d.d.d.d.d.d.d.d.d.d.9.*.*.%.- - 4   ",
"    - - O.*.*.2.d.d.d.d.d.d.d.d.d.d.d.d.d.d.d.d.6.*.*.$.- -     ",
"    - - ! *.*.>.s.d.s.s.s.s.d.d.d.d.d.d.s.s.s.s.4.*.%._ - -     ",
"    - - J *.*.*.y.8. ...d.d.d.d.d.d.d.d... .6.s.%.*.*.J - -     ",
"    0 - m %.*.*.A 4 j t  .s.s.d.d.d.d.W f h 4 G *.*.%.m - 0     ",
"    u * - %.*.! 0 N D N w s.d.d.d.d.d.d N D N u ! *.O.- - 0     ",
"      - * P *.P k D D N - 7.d.d.d.d.8.0 N D D k G *.P - -       ",
"      4 - a *.G h k % j u -.d.d.d.d.@.u k % k k P *.a - 4       ",
"      0 - - ! E & o X X 4 _ d.d.d.s._ - . X X & Y ! * & a       ",
"        4 - c O.+ X X X + T d.d.d.s.T @ X X X + O.c - 4         ",
"        u * - E & X X X $ T s.d.d.d.T $ X X X & ! * 4 u         ",
"          4 - 0 J O X + 0 -.s.d.d.d.-.0 + X O P 0 & 4           ",
"          c - - A C t h d t.d.d.d.d.y.0 h 0 C A & 4 c           ",
"            0 * 4 ` ! J >.d.d.d.d.d.s.O.G ! ` 4 & 4             ",
"              - - d O.*.*.6.s.d.s.r.>.*.*.$.d - &               ",
"              c - - M %.*.*.` <.*.` *.*.%.M - - h               ",
"                0 - - V %.*.D / / D *.%.V - & 0                 ",
"                  4 - - v ../ $.$.` ` m - - 4                   ",
"                    0 - - - m A A M 4 & 4 4                     ",
"                      0 - - - - = = = & 0                       ",
"                          0 0 - - 0 0                           ",
"                                                                "
};
