/* XPM */
static char *Head_left1707133379[] = {
/* columns rows colors chars-per-pixel */
"32 32 140 2 ",
"   c #FFFFFF",
".  c #374E36",
"X  c #384F37",
"o  c #3E593D",
"O  c #445F43",
"+  c #426041",
"@  c #436042",
"#  c #446043",
"$  c #466545",
"%  c #466645",
"&  c #4B684A",
"*  c #4B6F4A",
"=  c #4C6E4B",
"-  c #4D6F4C",
";  c #4C704B",
":  c #4C714B",
">  c #4D714B",
",  c #4D734B",
"<  c #4D714C",
"1  c #4D724C",
"2  c #4D734C",
"3  c #4E724C",
"4  c #4E734C",
"5  c #4E724D",
"6  c #4E734D",
"7  c #4F734E",
"8  c #4D744C",
"9  c #4E744D",
"0  c #4F744D",
"q  c #4E754D",
"w  c #4F744E",
"e  c #4F754E",
"r  c #4F764E",
"t  c #4F774E",
"y  c #4F764F",
"u  c #50754E",
"i  c #50744F",
"p  c #50754F",
"a  c #50764E",
"s  c #50764F",
"d  c #51764F",
"f  c #50774F",
"g  c #51774F",
"h  c #50784F",
"j  c #517450",
"k  c #517550",
"l  c #537752",
"z  c #547753",
"x  c #567755",
"c  c #517850",
"v  c #517951",
"b  c #527850",
"n  c #537B52",
"m  c #537C52",
"M  c #547C53",
"N  c #547D53",
"B  c #557D53",
"V  c #557E54",
"C  c #5B7E5A",
"Z  c #568055",
"A  c #588357",
"S  c #588457",
"D  c #5A8658",
"F  c #5A8759",
"G  c #5D805C",
"H  c #5E815D",
"J  c #5E825D",
"K  c #5A8859",
"L  c #5B885A",
"P  c #5C895A",
"I  c #5C895B",
"U  c #5C8A5B",
"Y  c #5D8A5B",
"T  c #5E8B5C",
"R  c #5E8C5C",
"E  c #5E8C5D",
"W  c #5F8E5E",
"Q  c #5F935E",
"!  c #608E5E",
"~  c #60905F",
"^  c #61905F",
"/  c #61915F",
"(  c #60955F",
")  c #619160",
"_  c #629160",
"`  c #629260",
"'  c #629360",
"]  c #649062",
"[  c #649063",
"{  c #619660",
"}  c #619760",
"|  c #649562",
" . c #649663",
".. c #659663",
"X. c #659763",
"o. c #659364",
"O. c #669464",
"+. c #669664",
"@. c #629860",
"#. c #629861",
"$. c #649B62",
"%. c #679965",
"&. c #679A65",
"*. c #679B65",
"=. c #669E64",
"-. c #669F64",
";. c #669F65",
":. c #689A66",
">. c #689B66",
",. c #699C67",
"<. c #699D67",
"1. c #6A9E68",
"2. c #6A9F68",
"3. c #69A168",
"4. c #6AA068",
"5. c #6BA169",
"6. c #6BA269",
"7. c #6CA26A",
"8. c #6CA36A",
"9. c #6CA46A",
"0. c #6CA56A",
"q. c #6DA66B",
"w. c #6DA76B",
"e. c #6CA96A",
"r. c #6DA86B",
"t. c #6DAB6B",
"y. c #6EA86C",
"u. c #6EA96C",
"i. c #6EAA6C",
"p. c #6FAD6D",
"a. c #70AE6E",
"s. c #70AF6E",
"d. c #70B06E",
"f. c #70B26E",
"g. c #71B26F",
"h. c #72B370",
"j. c #72B470",
"k. c #72B570",
"l. c #73B571",
"z. c #73B671",
/* pixels */
"                                                                ",
"                                          ; u h y y 8           ",
"                                u y ; ; ; ; ; 6 = ; ; ; ; y u   ",
"                          y y = = ; ; ; = ; y u y ; ; ; ; ; ; ; ",
"                      u 6 * * 6 ; N P _ :.<.1.1.<.6.<.O.R V ; ; ",
"                  b 6 ; * * l Y <.<.1.1.1.1.1.1.1.<.<.1.<.1.*.! ",
"                y * ; ; b _ 1.1.<.1.1.<.1.1.1.1.1.1.1.1.1.1.1.1.",
"            b ; ; ; y _ *._ Y P _ 1.1.6.0.y.y.0.6.1.1.1.1.1.1.1.",
"          y = ; ; P R ; O * l x 6 D f.z.z.z.z.z.z.h.p.0.1.1.1.1.",
"        6 ; ; h O.S o . . X x C J 6 e.z.z.z.z.z.z.z.z.z.z.p.t.1.",
"      6 ; ; V :._ u X . . . & J J l ( z.z.z.z.z.z.z.z.z.z.z.z.z.",
"    y ; ; Z <.1.P l @ . . X x J C 6 %.z.z.z.z.z.z.z.z.z.z.z.z.z.",
"    ; ; N <.6.<.6.h y $ O * u 6 u { z.z.z.z.z.z.z.z.z.z.z.z.z.z.",
"  y ; ; %.<.<.t.z.f.3.Q Q ( =.t.z.z.z.z.z.z.z.z.z.z.z.z.z.z.z.z.",
"  y * V O.J O.g.z.z.z.z.z.z.z.z.z.z.z.z.z.z.z.z.z.z.z.z.z.z.z.z.",
"  ; ; S :.] 6.z.z.z.z.z.z.z.z.z.z.z.z.z.z.z.z.z.z.z.z.z.z.z.z.z.",
"  ; ; D *.[ 1.z.z.z.z.z.z.z.z.z.z.z.z.z.z.z.z.z.z.z.z.z.z.z.z.z.",
"  y ; V o.J +.p.z.z.z.z.z.z.z.z.z.z.z.z.z.z.z.z.z.z.z.z.z.z.z.z.",
"  y ; ; +.1.1.6.f.g.*.Q Q { *.t.z.z.z.z.z.z.z.z.z.z.z.z.z.z.z.z.",
"    ; ; b 1.1.1.*.h y $ O 6 j 6 l { z.z.z.z.z.z.z.z.z.z.z.z.z.z.",
"    y ; ; Z <.1.R z # . . . x J C 6 $.z.z.z.z.z.z.z.z.z.z.z.z.z.",
"      6 ; ; V *.Q 6 X . . . & J J l { z.z.z.z.z.z.z.z.z.z.z.z.z.",
"        6 * ; b +.Z o . . . x J C 6 e.z.z.z.z.z.z.z.z.z.z.p.y.6.",
"          y ; * 6 U R * O - l l l D h.z.z.z.z.z.z.f.y.6.1.1.1.1.",
"            u 6 * ; y _ *.R Y U _ 1.1.6.y.y.w.8.1.1.1.1.1.1.1.1.",
"                y ; * ; M { 1.1.1.1.1.1.1.1.1.1.1.1.1.1.1.1.1.1.",
"                  b 6 6 - = u Y *.1.1.1.1.1.1.1.1.1.1.1.1.1.*.R ",
"                      u 6 * 6 * ; N U _ *.1.1.1.1.1.:. .Y V = 6 ",
"                          y 6 ; ; ; ; ; ; ; u u u 6 ; ; 6 ; ; ; ",
"                                y y ; ; ; ; ; ; ; ; ; ; * 6 u   ",
"                                          ; u u h y 6           ",
"                                                                "
};
