/* XPM */
static char *Head_right1705422483[] = {
/* columns rows colors chars-per-pixel */
"64 64 146 2 ",
"   c #FFFFFF",
".  c #374E36",
"X  c #374F36",
"o  c #384F37",
"O  c #395138",
"+  c #395238",
"@  c #3A5239",
"#  c #3A5339",
"$  c #3B543A",
"%  c #3C543B",
"&  c #3C553B",
"*  c #3F5A3E",
"=  c #405D3F",
"-  c #446143",
";  c #456044",
":  c #456144",
">  c #476446",
",  c #486447",
"<  c #4A6D49",
"1  c #4B6E4A",
"2  c #4C704B",
"3  c #4C714B",
"4  c #4D714C",
"5  c #4D724C",
"6  c #4E724C",
"7  c #4E734D",
"8  c #4F734E",
"9  c #4E744D",
"0  c #4F744E",
"q  c #4F754E",
"w  c #4F764E",
"e  c #50754E",
"r  c #50744F",
"t  c #50764F",
"y  c #50774F",
"u  c #50784F",
"i  c #517550",
"p  c #517750",
"a  c #537752",
"s  c #517850",
"d  c #527850",
"f  c #527950",
"g  c #527951",
"h  c #527A51",
"j  c #537A51",
"k  c #527B51",
"l  c #537A52",
"z  c #537B52",
"x  c #547C52",
"c  c #547C53",
"v  c #547D53",
"b  c #557D53",
"n  c #557954",
"m  c #567955",
"M  c #567A55",
"N  c #577A56",
"B  c #557E54",
"V  c #567F54",
"C  c #587A57",
"Z  c #587C57",
"A  c #597C58",
"S  c #597D58",
"D  c #5A7C59",
"F  c #5A7D59",
"G  c #5B7E5A",
"H  c #5C7F5B",
"J  c #578055",
"K  c #568255",
"L  c #568355",
"P  c #578355",
"I  c #578156",
"U  c #588256",
"Y  c #588257",
"T  c #588357",
"R  c #5C805B",
"E  c #598458",
"W  c #5A8558",
"Q  c #5B8759",
"!  c #5D805C",
"~  c #5E815D",
"^  c #5F825E",
"/  c #5F835E",
"(  c #5D8A5B",
")  c #5C8C5A",
"_  c #5C8D5B",
"`  c #5D8A5C",
"'  c #5D8B5C",
"]  c #5E8C5C",
"[  c #5F8D5D",
"{  c #5D8E5C",
"}  c #5D8F5C",
"|  c #5F8E5E",
" . c #5E905C",
".. c #5E905D",
"X. c #5F925D",
"o. c #608F5E",
"O. c #61905F",
"+. c #619160",
"@. c #629160",
"#. c #629260",
"$. c #629261",
"%. c #639361",
"&. c #659263",
"*. c #649462",
"=. c #649562",
"-. c #649663",
";. c #659663",
":. c #639962",
">. c #639A62",
",. c #679965",
"<. c #679A65",
"1. c #689B66",
"2. c #699C67",
"3. c #699D67",
"4. c #6A9E68",
"5. c #6A9F68",
"6. c #6BA069",
"7. c #6BA169",
"8. c #6CA26A",
"9. c #6CA36A",
"0. c #6BA769",
"q. c #6CA46A",
"w. c #6DA56B",
"e. c #6DA66B",
"r. c #6DA76B",
"t. c #6CA96A",
"y. c #6CAA6A",
"u. c #6CAA6B",
"i. c #6DAB6B",
"p. c #6EA86C",
"a. c #6EA96C",
"s. c #6EAA6C",
"d. c #6FAA6D",
"f. c #6FAB6D",
"g. c #6FAC6D",
"h. c #70AD6E",
"j. c #70AE6E",
"k. c #70AF6E",
"l. c #71B06F",
"z. c #71B16F",
"x. c #71B26F",
"c. c #72B270",
"v. c #72B470",
"b. c #72B570",
"n. c #73B571",
"m. c #73B671",
/* pixels */
"                                                                                                                                ",
"                                                                                                                                ",
"                                T                                                                                               ",
"              T B g 9 6 2 2 2 2 2 1 6 2 6 1 9 g B I                                                                             ",
"      T c 9 2 2 2 2 2 2 2 2 2 2 2 2 2 2 2 2 2 2 1 6 2 6 g B                                                                     ",
"  c 6 2 2 2 2 2 2 2 2 2 2 2 2 2 2 1 2 2 2 2 2 2 6 1 2 2 2 2 2 6 c R                                                             ",
"2 2 2 2 2 2 2 2 2 2 2 2 2 2 2 2 1 6 2 2 2 2 2 2 1 2 2 2 2 2 2 2 2 2 9 B                                                         ",
"2 2 2 2 2 2 2 2 2 2 2 2 e u c c B B g g 9 2 2 2 6 1 2 2 2 2 2 2 2 2 2 1 6 c                                                     ",
"2 2 2 2 1 6 e I ( %.,.4.4.4.4.4.4.4.4.4.4.4.,.%.' W g 1 2 2 1 6 2 2 2 2 2 2 2 g                                                 ",
"2 2 2 9 T =.4.4.4.4.4.4.4.4.4.4.4.4.4.4.4.4.4.4.4.4.4.4.%.T t 1 2 2 2 2 2 2 2 2 2 g                                             ",
"g W %.2.4.4.4.4.4.4.4.4.4.4.4.4.4.4.4.4.4.4.4.4.4.4.4.4.4.4.4.%.I 6 2 2 2 2 2 2 2 1 2 g                                         ",
"4.4.4.4.4.4.4.4.4.4.4.4.4.4.4.4.4.4.4.4.4.4.4.4.4.4.4.4.4.4.4.4.6.2.W g 2 2 2 2 2 6 1 6 6 B                                     ",
"4.4.4.4.4.4.4.4.4.4.4.4.4.4.4.4.4.4.4.4.4.4.4.4.4.4.4.4.4.4.4.4.2.6.4.4.%.g 2 2 2 2 2 2 2 2 9 T                                 ",
"4.4.4.4.4.4.4.4.4.4.4.4.4.4.4.4.4.4.4.4.4.4.4.4.4.4.4.4.4.4.4.4.6.2.4.4.4.4.*.g 2 2 2 2 2 2 2 2 g                               ",
"4.4.4.4.4.4.4.4.4.4.4.4.4.4.4.4.4.4.4.2.6.4.4.4.4.4.4.4.4.4.4.4.2.4.4.4.4.4.4.4.%.i 2 2 2 2 2 2 2 9 R                           ",
"4.4.4.4.4.4.4.4.4.4.4.4.4.4.4.6.r.a.k.m.m.m.c.c.a.r.4.4.4.4.O.B u 9 9 g B W %.2.4.4.W 6 2 2 2 2 2 2 2 c                         ",
"4.4.4.4.4.4.4.4.4.4.4.6.r.a.c.m.m.m.m.m.m.m.m.m.m.m.m.g.e.T 1 6 6 1 6 1 2 2 1 6 v %.4.,.I 2 1 6 2 2 2 2 u                       ",
"4.4.4.4.4.4.4.6.r.g.c.m.m.m.m.m.m.m.m.m.m.m.m.m.m.m.m.m._ 2 i B H H H H m : @ . @ = 1 ' 4.%.i 1 2 2 2 2 2 9                     ",
"4.4.4.4.q.a.c.m.m.m.m.m.m.m.m.m.m.m.m.m.m.m.m.m.m.m.m.y.2 2 R ~ ~ ~ ~ D & X . . X X @ 1 T ,.4.I 2 2 2 2 2 2 2 T                 ",
"6.a.k.m.m.m.m.m.m.m.m.m.m.m.m.m.m.m.m.m.m.m.m.m.m.m.m.X.2 m ~ ~ ~ ~ H ; X X . . X X X * 2 T 4.4.O.9 2 2 2 2 2 2 T               ",
"m.m.m.m.m.m.m.m.m.m.m.m.m.m.m.m.m.m.m.m.m.m.m.m.m.m.m.I 2 A ~ ~ ~ ~ ~ @ . . . . . . . o i 2 ..4.6.*.u 2 2 2 2 2 6 T             ",
"m.m.m.m.m.m.m.m.m.m.m.m.m.m.m.m.m.m.m.m.m.m.m.m.m.m.m.9 2 ~ ~ ~ ~ ~ ~ O . . . . . . . o A 2 B 4.6.2.<.c 2 2 2 2 2 6             ",
"m.m.m.m.m.m.m.m.m.m.m.m.m.m.m.m.m.m.m.m.m.m.m.m.m.m.m.9 2 A ~ ~ ~ ~ ~ ; . . . . . . . ; ~ 1 9 4.2.6.2.2.g 2 2 2 2 2 e           ",
"m.m.m.m.m.m.m.m.m.m.m.m.m.m.m.m.m.m.m.m.m.m.m.m.m.m.m...2 2 m R ~ ~ ~ D % . . . . o & A A 6 g 4.6.2.6.2.2.c 2 2 2 2 2 B         ",
"m.m.m.m.m.m.m.m.m.m.m.m.m.m.m.m.m.m.m.m.m.m.m.m.m.m.m.m.} 2 2 2 8 a m A Z , & . $ > m m 9 6 } 4.4.4.4.4.4.4.g 2 2 2 2 2         ",
"m.m.m.m.m.m.m.m.m.m.m.m.m.m.m.m.m.m.m.m.m.m.m.m.m.m.m.m.m.g.} 1 2 1 2 2 2 2 2 2 2 2 2 2 1 ) q.6.4.4.4.4.4.4.=.6 2 2 2 2 c       ",
"m.m.m.m.m.m.m.m.m.m.m.m.m.m.m.m.m.m.m.m.m.m.m.m.m.m.m.m.m.m.m.m.u.:._ I g t 6 1 6 u I ..q.m.m.a.4.4.4.4.4.4.4.W 2 2 2 2 2       ",
"m.m.m.m.m.m.m.m.m.m.m.m.m.m.m.m.m.m.m.m.m.m.m.m.m.m.m.m.m.m.m.m.m.m.m.m.m.m.m.m.m.m.m.m.m.m.m.m.a.4.4.4.4.4.4.4.t 2 2 2 2 I     ",
"m.m.m.m.m.m.m.m.m.m.m.m.m.m.m.m.m.m.m.m.m.m.m.m.m.m.m.m.m.m.m.m.m.m.m.m.m.m.m.m.m.m.m.m.m.m.m.m.m.6.6.&./ / &.4.W 2 2 2 2 c     ",
"m.m.m.m.m.m.m.m.m.m.m.m.m.m.m.m.m.m.m.m.m.m.m.m.m.m.m.m.m.m.m.m.m.m.m.m.m.m.m.m.m.m.m.m.m.m.m.m.m.l.4.~ ~ ~ ~ 6.=.2 2 2 2 u     ",
"m.m.m.m.m.m.m.m.m.m.m.m.m.m.m.m.m.m.m.m.m.m.m.m.m.m.m.m.m.m.m.m.m.m.m.m.m.m.m.m.m.m.m.m.m.m.m.m.m.m.e.&./ / &.4.2.2 2 2 2 6     ",
"m.m.m.m.m.m.m.m.m.m.m.m.m.m.m.m.m.m.m.m.m.m.m.m.m.m.m.m.m.m.m.m.m.m.m.m.m.m.m.m.m.m.m.m.m.m.m.m.m.m.a.4.4.4.4.4.4.2 2 2 2 2     ",
"m.m.m.m.m.m.m.m.m.m.m.m.m.m.m.m.m.m.m.m.m.m.m.m.m.m.m.m.m.m.m.m.m.m.m.m.m.m.m.m.m.m.m.m.m.m.m.m.m.m.g.6.4.4.4.4.4.1 2 2 2 2     ",
"m.m.m.m.m.m.m.m.m.m.m.m.m.m.m.m.m.m.m.m.m.m.m.m.m.m.m.m.m.m.m.m.m.m.m.m.m.m.m.m.m.m.m.m.m.m.m.m.m.m.g.*./ / &.4.2.2 2 2 2 6     ",
"m.m.m.m.m.m.m.m.m.m.m.m.m.m.m.m.m.m.m.m.m.m.m.m.m.m.m.m.m.m.m.m.m.m.m.m.m.m.m.m.m.m.m.m.m.m.m.m.m.m.w./ ~ ~ / 4.-.2 2 2 1 t     ",
"m.m.m.m.m.m.m.m.m.m.m.m.m.m.m.m.m.m.m.m.m.m.m.m.m.m.m.m.m.m.m.m.m.m.m.m.m.m.m.m.m.m.m.m.m.m.m.m.m.m.4.*./ / &.4.W 2 2 2 6 B     ",
"m.m.m.m.m.m.m.m.m.m.m.m.m.m.m.m.m.m.m.m.m.m.m.m.m.m.m.m.m.m.m.m.m.m.m.m.m.m.m.m.m.m.m.m.m.m.m.m.m.w.4.4.4.4.4.4.t 2 2 2 1 T     ",
"m.m.m.m.m.m.m.m.m.m.m.m.m.m.m.m.m.m.m.m.m.m.m.m.m.m.m.m.m.m.m.m.u.:._ I c 9 2 2 2 u I ..q.m.m.m.a.4.4.4.4.4.4.W 2 2 2 2 2       ",
"m.m.m.m.m.m.m.m.m.m.m.m.m.m.m.m.m.m.m.m.m.m.m.m.m.m.m.m.m.y._ 2 2 2 2 2 2 2 2 2 2 2 2 2 2 _ m.w.4.4.4.4.4.4.-.6 2 2 2 2 B       ",
"m.m.m.m.m.m.m.m.m.m.m.m.m.m.m.m.m.m.m.m.m.m.m.m.m.m.m.m. .2 2 2 8 g m Z Z , & O & , m m t 2 | 4.4.4.4.4.4.1.g 2 2 2 1 6         ",
"m.m.m.m.m.m.m.m.m.m.m.m.m.m.m.m.m.m.m.m.m.m.m.m.m.m.m...2 2 m R ~ ~ ~ A @ . . . . . @ D A 6 g 4.4.4.4.4.4.g 2 2 2 2 2 B         ",
"m.m.m.m.m.m.m.m.m.m.m.m.m.m.m.m.m.m.m.m.m.m.m.m.m.m.m.9 6 A ~ ~ ~ ~ ~ ; . . . . . . o ; ~ 1 9 4.4.4.4.4.g 2 2 2 2 2 i           ",
"m.m.m.m.m.m.m.m.m.m.m.m.m.m.m.m.m.m.m.m.m.m.m.m.m.m.m.9 2 ~ ~ ~ ~ ~ ~ @ . . . . . . . @ A 6 c 4.4.4.,.g 2 2 2 2 2 6             ",
"m.m.m.m.m.m.m.m.m.m.m.m.m.m.m.m.m.m.m.m.m.m.m.m.m.m.m.T 2 A ~ ~ ~ ~ ~ @ . . . X . . . o i 1 } 4.4.*.g 2 2 2 2 2 6 T             ",
"6.w.g.m.m.m.m.m.m.m.m.m.m.m.m.m.m.m.m.m.m.m.m.m.m.m.m...6 m ~ ~ ~ ~ ~ ; . . X X . . . * 1 T 4.4...6 2 2 2 2 2 2 T               ",
"6.4.4.4.q.g.c.m.m.m.m.m.m.m.m.m.m.m.m.m.m.m.m.m.m.m.m.u.1 1 H ~ ~ ~ ~ A & . X X . . @ < T ,.4.T 6 2 2 2 2 2 6 T                 ",
"4.4.4.4.4.4.4.6.a.x.m.m.m.m.m.m.m.m.m.m.m.m.m.m.m.m.m.m.} 1 i B H ~ H H m : @ X @ = 1 ' 4.%.i 2 2 2 2 2 6 6                     ",
"4.4.4.4.4.4.4.6.4.4.6.a.g.m.m.m.m.m.m.m.m.m.m.m.m.m.g.r.4.W 2 2 1 2 1 2 1 6 2 2 B O.4.1.T 1 2 2 2 2 2 2 e                       ",
"4.4.4.4.4.4.4.4.4.4.4.4.4.4.q.a.g.c.m.m.m.l.k.a.q.6.2.6.4.4.O.B t 6 9 t B W %.4.4.4.W 6 2 2 2 1 2 2 2 v                         ",
"4.4.4.4.4.4.4.4.4.4.4.4.4.4.4.4.4.4.2.6.4.4.4.4.4.4.6.2.4.4.4.4.4.4.4.4.4.4.4.4.%.g 2 2 2 2 2 6 2 9 R                           ",
"4.4.4.4.4.4.4.4.4.4.4.4.4.4.4.4.4.4.4.4.4.4.4.4.2.6.2.6.4.4.4.4.4.4.4.4.4.4.%.g 1 1 2 2 2 2 6 1 c                               ",
"4.4.4.4.4.4.4.4.4.4.4.4.4.4.4.4.4.4.4.4.4.4.4.4.6.2.6.2.4.4.4.4.4.4.4.4.%.v 2 2 2 2 2 2 2 2 6 T                                 ",
"4.4.4.4.4.4.4.4.4.4.4.4.4.4.4.4.4.4.4.4.4.4.4.4.2.6.4.4.4.4.4.4.4.4.W i 2 2 2 2 2 2 2 2 6 B                                     ",
"g W ..6.4.4.4.4.4.4.4.4.4.4.4.4.4.4.4.4.4.4.4.4.6.2.4.4.4.4.4.*.T 6 2 2 2 2 2 2 2 2 2 g                                         ",
"2 2 2 9 W -.4.4.4.4.4.4.4.4.4.4.4.4.4.4.4.4.4.4.2.4.4.2.%.T 9 2 2 2 2 2 2 2 2 1 6 g                                             ",
"2 2 2 2 2 2 t I ' %.,.4.4.4.4.4.4.4.4.4.4.4.,.*.} W g 2 1 2 2 2 2 2 2 2 2 2 2 g                                                 ",
"2 2 2 2 2 2 2 2 1 2 2 2 9 g g B B c g g 9 2 2 2 2 2 2 2 2 2 2 2 2 2 2 2 2 g                                                     ",
"2 2 2 2 2 2 2 2 2 2 2 2 6 2 2 2 2 2 6 2 2 2 2 2 2 2 2 2 2 2 2 2 2 2 9 I                                                         ",
"  c 6 2 2 2 2 2 2 2 2 2 2 2 2 2 2 2 2 2 2 2 2 2 2 2 2 2 2 2 2 9 v R                                                             ",
"      T c 9 2 2 2 2 2 2 2 2 2 2 2 2 2 1 2 2 2 2 2 2 2 6 e I                                                                     ",
"              T B g 9 2 2 2 2 2 1 2 2 6 1 6 9 g c I                                                                             ",
"                                W                                                                                               ",
"                                                                                                                                ",
"                                                                                                                                "
};
