/* XPM */
static char *Tail_up1707133380[] = {
/* columns rows colors chars-per-pixel */
"32 32 94 2 ",
"   c #FFFFFF",
".  c #4C704B",
"X  c #4C714B",
"o  c #4D714C",
"O  c #4D724C",
"+  c #4C734C",
"@  c #4D734C",
"#  c #4D734D",
"$  c #4E724C",
"%  c #4E734C",
"&  c #4E724D",
"*  c #4E734D",
"=  c #4E744D",
"-  c #4F744D",
";  c #4F754D",
":  c #4E744E",
">  c #4F744E",
",  c #4F754E",
"<  c #4F754F",
"1  c #4F774E",
"2  c #4F764F",
"3  c #4F774F",
"4  c #50754E",
"5  c #50764E",
"6  c #50774E",
"7  c #50764F",
"8  c #50774F",
"9  c #51774F",
"0  c #517750",
"q  c #527750",
"w  c #517850",
"e  c #527951",
"r  c #527A51",
"t  c #537B52",
"y  c #547C52",
"u  c #547C53",
"i  c #547D53",
"p  c #557F54",
"a  c #567F54",
"s  c #568055",
"d  c #578055",
"f  c #578155",
"g  c #578156",
"h  c #578256",
"j  c #588357",
"k  c #598457",
"l  c #598458",
"z  c #598558",
"x  c #5A8558",
"c  c #5B8759",
"v  c #5B875A",
"b  c #5C895A",
"n  c #5C895B",
"m  c #5F8D5D",
"M  c #5F8E5E",
"N  c #608E5E",
"B  c #639462",
"V  c #639562",
"C  c #649562",
"Z  c #659764",
"A  c #669764",
"S  c #679A65",
"D  c #689B66",
"F  c #689C66",
"G  c #699C67",
"H  c #6A9E68",
"J  c #6A9F68",
"K  c #6AA068",
"L  c #6BA069",
"P  c #6BA169",
"I  c #6BA269",
"U  c #6BA369",
"Y  c #6CA36A",
"T  c #6CA46A",
"R  c #6CA56A",
"E  c #6DA56B",
"W  c #6DA76B",
"Q  c #6DA86B",
"!  c #6EA96C",
"~  c #6EAA6C",
"^  c #6EAB6C",
"/  c #6FAB6D",
"(  c #6FAC6D",
")  c #6FAD6D",
"_  c #70AE6E",
"`  c #70AF6E",
"'  c #70B06E",
"]  c #71B16F",
"[  c #71B26F",
"{  c #71B36F",
"}  c #72B470",
"|  c #72B570",
" . c #73B571",
".. c #73B671",
/* pixels */
"      X X l H H H H ......................} H H H H l . #       ",
"      # . k H H H H ......................} H H H H j . X       ",
"      # . g H H H H ......................[ H H H H k . #       ",
"      : . k H H H H .................... .} H H H H g . :       ",
"      : . p H H H H } ....................` H H H H a X 4       ",
"      : . p H H H H } ..................} ` H H H H p X 4       ",
"      0 . p H H H H } ...................._ D H H H i X 4       ",
"      4 . t H H H H } ....................~ H H H H e # :       ",
"      0 . e H H H H [ ..................} ~ H H H H e . 4       ",
"      4 X 4 H H H H [ ....................E H H H H 0 . 4       ",
"      : . 4 H H H H [ ....................T H H H H 4 . 4       ",
"      # . # H H H H ` ....................P H H H H # . :       ",
"        X X D G H H ` } ..................P H H H D . .         ",
"        . X B H H H ` ..................} L H H H C . .         ",
"        . . N H H H ~ ....................L H H H N . .         ",
"        . . v H H H Q ..................} H H H H l X X         ",
"        : X g G G L T ..................[ H H H H g X :         ",
"        4 X 9 G L G L ..................` H H H H 4 X 4         ",
"        # X . D G L H [ ................Q H H H G X . :         ",
"          . . m L G H ~ ..............} H H H H m X .           ",
"          : X i G G L K } ............[ H H H H t X #           ",
"          : X X C L L G ~ ..........} T H H H V # X 4           ",
"            X . e G G L G [ ........[ G H H G e . .             ",
"            4 . . k L G L P { ....} L L H H k . . 0             ",
"              # . . v H H H L Q ` T H G G v . . #               ",
"                # . . p D H H H G H H G g . . #                 ",
"                  # . . 4 b C D G S b # X . 4                   ",
"                    4 X . . X X . . . . . 4                     ",
"                        : X . X . X . 4                         ",
"                                                                ",
"                                                                ",
"                                                                "
};
