/* XPM */
static char *Tail_down1707133380[] = {
/* columns rows colors chars-per-pixel */
"32 32 84 1 ",
"  c #FFFFFF",
". c #4C704B",
"X c #4C714B",
"o c #4C714C",
"O c #4D714C",
"+ c #4D724C",
"@ c #4D734C",
"# c #4D734D",
"$ c #4E734C",
"% c #4E724D",
"& c #4E734D",
"* c #4E744D",
"= c #4F744D",
"- c #4F754D",
"; c #4E744E",
": c #4F754E",
"> c #4F754F",
", c #4F774F",
"< c #50754E",
"1 c #50764E",
"2 c #50774E",
"3 c #50764F",
"4 c #50774F",
"5 c #51774F",
"6 c #507750",
"7 c #517850",
"8 c #527951",
"9 c #527A51",
"0 c #537B52",
"q c #547C52",
"w c #547D53",
"e c #557F54",
"r c #568055",
"t c #568155",
"y c #578156",
"u c #578256",
"i c #588356",
"p c #588357",
"a c #598457",
"s c #598458",
"d c #598558",
"f c #5A8558",
"g c #5B8759",
"h c #5B885A",
"j c #5C895A",
"k c #5F8D5D",
"l c #5F8E5E",
"z c #5F8F5E",
"x c #639462",
"c c #639562",
"v c #659764",
"b c #679A65",
"n c #689B66",
"m c #689C66",
"M c #689C67",
"N c #699C67",
"B c #6A9E68",
"V c #6A9F68",
"C c #6AA068",
"Z c #6BA169",
"A c #6BA269",
"S c #6CA36A",
"D c #6CA46A",
"F c #6CA56A",
"G c #6DA76B",
"H c #6DA86B",
"J c #6EA96C",
"K c #6EAA6C",
"L c #6EAB6C",
"P c #6FAB6D",
"I c #6FAC6D",
"U c #6FAD6D",
"Y c #6FAE6D",
"T c #70AE6E",
"R c #70AF6E",
"E c #71B06F",
"W c #71B16F",
"Q c #71B26F",
"! c #71B36F",
"~ c #72B370",
"^ c #72B470",
"/ c #72B570",
"( c #73B571",
") c #73B671",
/* pixels */
"                                ",
"                                ",
"                                ",
"            <.....#*            ",
"          <..........<          ",
"         #..*jvmmvj*..#         ",
"        #..rnBBBBmBnr..#        ",
"       *..gBBBSTLABBBg..#       ",
"      7..pBBBA/))~SBBBa..6      ",
"      #.7NBBBQ/)))TBBBm7.#      ",
"     *..xBBBA/)))))LBBBx..<     ",
"     #.qBBBBT))))))/BBBBq.#     ",
"     ..kBBBB//))))))LBBBk..     ",
"    #..nBBBG))))))))QBBBm..<    ",
"    <.7BBBBY)))))))))BBBB<.<    ",
"    *.rBBBBQ))))))))/GBBAr.*    ",
"    ..hVBBB/)))))))))GBBBh..    ",
"    ..kVBBB))))))))))GBBBk..    ",
"    ..xnBBB))))))))))TBBBx..    ",
"    ..nVBBB))))))))))TBBBn..    ",
"   #..VVBBS/)))))))))QBBBB#.#   ",
"   <.#VVBBS))))))))))QBBBm<.<   ",
"   <.6BBBBG/)))))))))QBBBB7.<   ",
"   <.7BBBBG))))))))))~BBBB7.6   ",
"   6.0BBBBL))))))))))/BBBBq.<   ",
"   <.qBBBBT()))))))))~BBBBq.<   ",
"   6.rBBBBT))))))))))/BBBBe.*   ",
"   *.rBBBmT))))))))))/BBBBr#*   ",
"   *.pBBBBE)))))))))))BBBBp.*   ",
"   #.rBBBB~)))))))))))BBBmp.*   ",
"   #.aBBBB~)))))))))))BBBBs.#   ",
"   ..gBBBB/)))))))))))BBBBp.#   "
};
