/* XPM */
static char *Tail_right1707133380[] = {
/* columns rows colors chars-per-pixel */
"32 32 92 1 ",
"  c #FFFFFF",
". c #4C704B",
"X c #4C714B",
"o c #4D714C",
"O c #4D724C",
"+ c #4C734C",
"@ c #4D734C",
"# c #4D734D",
"$ c #4E724C",
"% c #4E734C",
"& c #4E724D",
"* c #4E734D",
"= c #4E744D",
"- c #4F744D",
"; c #4F754D",
": c #4E744E",
"> c #4F754E",
", c #4F754F",
"< c #4F764E",
"1 c #4F774E",
"2 c #4F774F",
"3 c #50754E",
"4 c #50764E",
"5 c #50774E",
"6 c #50764F",
"7 c #50774F",
"8 c #51774F",
"9 c #527750",
"0 c #517850",
"q c #527951",
"w c #527A51",
"e c #537B52",
"r c #547C52",
"t c #547D53",
"y c #557F54",
"u c #567F54",
"i c #568055",
"p c #578055",
"a c #578155",
"s c #578156",
"d c #578256",
"f c #588356",
"g c #588357",
"h c #598457",
"j c #598458",
"k c #598558",
"l c #5A8558",
"z c #5B8759",
"x c #5B875A",
"c c #5C895A",
"v c #5F8D5D",
"b c #5F8E5E",
"n c #608E5E",
"m c #639462",
"M c #639562",
"N c #659764",
"B c #679A65",
"V c #689B66",
"C c #689C66",
"Z c #689C67",
"A c #699C67",
"S c #6A9E68",
"D c #6A9F68",
"F c #6AA068",
"G c #6BA069",
"H c #6BA169",
"J c #6BA269",
"K c #6CA36A",
"L c #6CA46A",
"P c #6CA56A",
"I c #6DA56B",
"U c #6DA76B",
"Y c #6DA86B",
"T c #6EA96C",
"R c #6EAA6C",
"E c #6EAB6C",
"W c #6FAB6D",
"Q c #6FAC6D",
"! c #6FAD6D",
"~ c #6FAE6D",
"^ c #70AE6E",
"/ c #70AF6E",
"( c #70B06E",
") c #71B06F",
"_ c #71B16F",
"` c #71B26F",
"' c #71B36F",
"] c #72B370",
"[ c #72B470",
"{ c #72B570",
"} c #73B571",
"| c #73B671",
/* pixels */
"                                ",
"                                ",
"                                ",
"                    *>5959>>>***",
"             *>>.........*.*.*..",
"          >*.......***5wwwyiiffg",
"        5*....9ixvMBASSSSSSSSSSS",
"       *...rvVSSSSSSSSSSSSSSSSSS",
"      *..wMSSSSSSSSSSSSSSSSSSSSS",
"     *..fASSSSSSSSSSSSSSSSSFSSSS",
"    *..cSSSSSSFUEEQ___[[][[[||[|",
"    .*ySSSSSE[[|[[||[[||[[||||||",
"   >.>BSSSQ[[|||[|||||||||||||||",
"   ..cSSF_||||||||||||||||||||||",
"   ..BAF[|||||||||||||||||||||||",
"   ..BSE[[||||||||||||||||||||||",
"   ..VSE||||||||||||||||||||||||",
"   ..NSU'|||||||||||||||||||||||",
"   ..cSSU^||||||||||||||||||||||",
"   >.>VSFAF_[|||||||||||||||||||",
"    ..ySASSSFU^_[||||||||[[[|[[|",
"    5..zFSSSSSASSFSHFIIIEQ^]]][[",
"     >..hASSSSSSSSSSSSSSSSSSSSSS",
"      ...wMSSSSSSSSSSSSSSSSSSSSS",
"       >*..wnVSSSSFASSSSSSSSSSSS",
"        5*....7icnMBSSSSSSSSSSSS",
"          >*.........>7weyyyffgx",
"             >5*........*.......",
"                    *>>1>5>>***.",
"                                ",
"                                ",
"                                "
};
