/* XPM */
static char *Tail_up1705422484[] = {
/* columns rows colors chars-per-pixel */
"64 64 92 1 ",
"  c #FFFFFF",
". c #4C704B",
"X c #4C714B",
"o c #4D714C",
"O c #4D724C",
"+ c #4E734D",
"@ c #4E744D",
"# c #4F744E",
"$ c #4F754E",
"% c #50754E",
"& c #50764F",
"* c #50774F",
"= c #517750",
"- c #517850",
"; c #527951",
": c #527A51",
"> c #537A52",
", c #537B52",
"< c #547C52",
"1 c #547C53",
"2 c #547D53",
"3 c #557D53",
"4 c #557E54",
"5 c #567F54",
"6 c #567F55",
"7 c #568055",
"8 c #578155",
"9 c #578156",
"0 c #588256",
"q c #588357",
"w c #598458",
"e c #598558",
"r c #5A8558",
"t c #5A8559",
"y c #5A8659",
"u c #5B8759",
"i c #5C885A",
"p c #5C895B",
"a c #5D8B5C",
"s c #5E8B5C",
"d c #5E8C5D",
"f c #5F8E5E",
"g c #608E5E",
"h c #608F5F",
"j c #61905F",
"k c #629261",
"l c #639361",
"z c #649462",
"x c #649562",
"c c #649563",
"v c #659663",
"b c #659764",
"n c #669764",
"m c #669965",
"M c #679965",
"N c #679A65",
"B c #689A66",
"V c #689B66",
"C c #689C67",
"Z c #699C67",
"A c #699D67",
"S c #6A9E68",
"D c #6A9F68",
"F c #6B9F69",
"G c #6BA069",
"H c #6BA169",
"J c #6BA269",
"K c #6CA26A",
"L c #6CA36A",
"P c #6CA46A",
"I c #6CA56A",
"U c #6DA56B",
"Y c #6DA66B",
"T c #6DA76B",
"R c #6EA86C",
"E c #6EA96C",
"W c #6FAA6D",
"Q c #6FAB6D",
"! c #6FAC6D",
"~ c #6FAD6D",
"^ c #70AD6E",
"/ c #70AE6E",
"( c #70AF6E",
") c #71B06F",
"_ c #71B16F",
"` c #71B26F",
"' c #72B270",
"] c #72B370",
"[ c #72B470",
"{ c #72B570",
"} c #73B571",
"| c #73B671",
/* pixels */
"      o....VSSSSSSSS|||||||||||||||||||||||}SSSSSSSSV....o      ",
"      #....VSSSSSSSS|||||||||||||||||||||||]SSSSSSSSV...oo      ",
"      o....mSSSSSSSS|||||||||||||||||||||||]SSSSSSSSV....o      ",
"      *....mSSSSSSSS|||||||||||||||||||||||]SSSSSSSSm....*      ",
"      *....mSSSSSSSS|||||||||||||||||||||||/SSSSSSSSn....=      ",
"      *....xSSSSSSSS|||||||||||||||||||||||/SSSSSSSSx....=      ",
"      -....xSSSSGAAG|||||||||||||||||||||||^SSSSSSSSx....=      ",
"      -o...lSSSSAAGG|||||||||||||||||||||||^SSSSSSSSl...o-      ",
"      -....kASSSSSSS}}|||||||||||||||||||||^SSSSSSSSk....-      ",
"      -o...kSSSSSSSS`||||||||||||||||||||||ISSSSSSSSj...o>      ",
"      -o...gSSSSSSSS|||||||||||||||||||||||RSSSSSSSSj....3      ",
"      3....gSSSSSSSS`||||||||||||||||||||||ISSSSSSSAg....>      ",
"      3....fSSSSSSSS}||||||||||||||||||||||JSSSSSSSSa....3      ",
"      4....iSSSSSSSS`||||||||||||||||||||||JSSSSSSSSf....4      ",
"      7....iSSSSSSSA}}|||||||||||||||||||||SSSSSSSSSi....4      ",
"      7....iSSSSSSSG`}||||||||||||||||||||]SSSSSSSSSy....7      ",
"      7o...yASSSSSSS`|||||||||||||||||||}}]SSSSSSSSSy....7      ",
"      7o...qSSSSSSSS`|||||||||||||||||||}}]SSSSSSSSSq...o7      ",
"      qo...qSSSSSSSS`|||||||||||||||||||}}/SSSSSSSSS7o...q      ",
"      q....7SSSSSSSS/|||||||||||||||||||||/SSSSSSSSS4....q      ",
"       ....:SSSSSSSS/}}}||||||||||||||||||~SSSSSSSSS3....       ",
"       ....:SSSSSSSS/}||||||||||||||||||||QSSSSSSSSS*....       ",
"       ...o#SSSSSSSS~|||||||||||||||||||||ISSSSSSSSS#....       ",
"       ....oSSSSSSSAQ|||||||||||||||||||||ISSSSSSSSSo....       ",
"       oo...VSSSSSSST|||||||||||||||||||||ISSSSSSSSm....#       ",
"       =....xSSSSSSST}||||||||||||||||||||JSSSSSSSSx....=       ",
"       3....hSSSSSSSI}||||||||||||||||||||GSSSSSSSSk....-       ",
"       4....pSSSSSSSI|||||||||||||||||||||GSSSSSSSSi....7       ",
"       7....qSSSSSSSJ|||||||||||||||||||||GSSSSSSSSq....7       ",
"        ....3SSSSSSSG||||||||||||||||||||}SSSSSSSSS3....        ",
"        ....#SSSSSSSA}}|||||||||||||||||}}SSSSSSSSS*...o        ",
"        o...oASSSSSSS`}|||||||||||||||||}]SSSSSSSSV....o        ",
"        *....nSSSSSSA^||||||||||||||||||}`SSSSSSSSx....*        ",
"        >....gSSSSSSA^||||||||||||||||||}/SSSSSSSSh....3        ",
"        7o...ySSSSSSSI||||||||||||||||||}QSSSSSSSSy....7        ",
"         ...o-SSSSSSSS||||||||||||||||||}ISSSSSSSA3....         ",
"         .....ASSSSSSS]|||||||||||||||||}SSSSSSSSSo....         ",
"         *....lSSSSSSS^|||||||||||||||||/SSSSSSSSx....*         ",
"         3....ySSSSSSSJ||||||||||||||}||ISSSSSSSSw....3         ",
"         q....*ASSSSSSS/|||||||||||||}}}SSSSSSSSS*....q         ",
"          o....xSSSSSSSR|||||||||||||||~SSSSSSSSk....o          ",
"          3....4SSSSSSSS]||||||||||||||GSSSSSSSS7....3          ",
"          q.....VSSSSSSSR|||||||||||||/SSSSSSSSm.....7          ",
"           *....4SSSSSSSS/|||||||||||}JSSSSSSSS7...o-           ",
"           q.....kSSSSSSSJ}||||||||||`SSSSSSSSk.....7           ",
"            %....*VSSSSSSSI|||||||||}PSSSSSSSm*....*            ",
"            q.....>SSSSSSSA^|||||||}(GASSSSSS-.....q            ",
"             >.....ySSSSSSSA^||||||}GASSSSSSy....o-             ",
"              #.....fASSSSSSSI||||}JSSSSSSAf.....*              ",
"               ......ySSSSSSSSSIIJSSSSSSSAy.....o               ",
"               7......>SSSSSSSSSSSSSSSSSS>......7               ",
"                4......-xSSSSSSSSSSSSSSx>......4                ",
"                 4......oqVASSASSSSSSVq.......4                 ",
"                  7........3gxVSSVxg4........7                  ",
"                   qo.......................q                   ",
"                     -....................-                     ",
"                      qo................#7                      ",
"                        7*............*q                        ",
"                           q3*oo.%*37                           ",
"                                                                ",
"                                                                ",
"                                                                ",
"                                                                ",
"                                                                "
};
