/* XPM */
static char *Tail_left1707133380[] = {
/* columns rows colors chars-per-pixel */
"32 32 92 1 ",
"  c #FFFFFF",
". c #4C704B",
"X c #4C714B",
"o c #4C714C",
"O c #4D714C",
"+ c #4D724C",
"@ c #4D734C",
"# c #4D734D",
"$ c #4E734C",
"% c #4E724D",
"& c #4E734D",
"* c #4E744D",
"= c #4F744D",
"- c #4F754D",
"; c #4E744E",
": c #4F744E",
"> c #4E754E",
", c #4F754E",
"< c #4F754F",
"1 c #4F774F",
"2 c #50754E",
"3 c #50764E",
"4 c #50774E",
"5 c #50764F",
"6 c #50774F",
"7 c #507750",
"8 c #517850",
"9 c #527951",
"0 c #527A51",
"q c #537B52",
"w c #547C52",
"e c #547C53",
"r c #547D53",
"t c #557F54",
"y c #567F54",
"u c #568055",
"i c #578055",
"p c #578155",
"a c #578156",
"s c #578256",
"d c #588356",
"f c #588357",
"g c #598457",
"h c #598458",
"j c #598558",
"k c #5A8558",
"l c #5B8759",
"z c #5B875A",
"x c #5B885A",
"c c #5C895A",
"v c #5C895B",
"b c #5F8D5D",
"n c #5F8E5E",
"m c #608F5E",
"M c #639462",
"N c #639562",
"B c #649562",
"V c #659764",
"C c #669764",
"Z c #679A65",
"A c #689B66",
"S c #689C66",
"D c #689C67",
"F c #699C67",
"G c #699D67",
"H c #6A9E68",
"J c #6A9F68",
"K c #6AA068",
"L c #6BA069",
"P c #6BA169",
"I c #6BA269",
"U c #6CA36A",
"Y c #6CA46A",
"T c #6CA56A",
"R c #6DA76B",
"E c #6DA86B",
"W c #6EA96C",
"Q c #6EAA6C",
"! c #6EAB6C",
"~ c #6FAB6D",
"^ c #6FAD6D",
"/ c #6FAE6D",
"( c #70AE6E",
") c #70AF6E",
"_ c #71B06F",
"` c #71B16F",
"' c #71B26F",
"] c #72B370",
"[ c #72B470",
"{ c #72B570",
"} c #73B571",
"| c #73B671",
/* pixels */
"                                ",
"                                ",
"                                ",
"X%%>5>55>5>X                    ",
"XX......X..X...X>5%             ",
"jjaayyrqq5%X...X.X..%>          ",
"HHHHHHHHHHHHZMnxyq..X.%>        ",
"HHHHHHHHHHHHHGHHHHZnwX..>       ",
"HHHHHHHHHHHHHHHHHHHHHNqX.%      ",
"HHHHHGHHHHHHHGHHHHHHHHZg.X%     ",
"'}```^^!EYYPPKGKHHHHHHHHj..%    ",
"|}}}}}}||}}}||}}`^EHHHHGJd..    ",
"||||||||||||||||}||}^IKGGG%.5   ",
"||||||||||||||||||||||`PHHc..   ",
"||||||||||||||||||||||}}YHVXX   ",
"||||||||||||||||||||||}}^HA..   ",
"||||||||||||||||||||||||^GA%.   ",
"|||||||||||||||||||||||'KPV..   ",
"||||||||||||||||||||}}`PGGc.X   ",
"|||||||||||||||}||||}!HHHG>X%   ",
"||||||||||||}}}}||`!PGHHHy..    ",
"||||'}}'''``((!EIPHHHHHHj..5    ",
"HHPGHHHHHHPGHHHHPGHHHHGa%X>     ",
"HHHHHHHHHHHHHHHHGPHHHBq..%      ",
"HHHHHHHHHHHHHHHHGGAnq.XX%       ",
"HHHHHHHHHGHHABmzd5....%7        ",
"jjddyywqq55XX...X.X.%>          ",
"XXX.%.....XXX...>55             ",
"X%X>5>55555%                    ",
"                                ",
"                                ",
"                                "
};
