/* XPM */
static char *Wall1705507127[] = {
/* columns rows colors chars-per-pixel */
"64 64 8 1 ",
"  c #593237",
". c #784F40",
"X c #7A5247",
"o c #916546",
"O c #A1744A",
"+ c #B18155",
"@ c #BF9769",
"# c #BFA769",
/* pixels */
"@@@..oooo..oooooooooooooOOOOOO.oo  .OOOOO@@@########@@@..oooo..o",
"ooo  .     oOOooOOOOooOOoOOOOOO    .OOoOO..@@@@@@@@@ooo  .     o",
"ooo  .     oOOooOOOOooOOoOOOOOO    .OOoOO..@@@@@@@@@ooo  .     o",
"Ooooo+@@+oo.ooOOOOOOOOOOOooO@@@++...ooOoo..oooooooooOOooo+@@+oo.",
"Ooooo+@@+oo.ooOOOOOOOOOOOooO@@@++...ooOoo..oooooooooOOooo+@@+oo.",
"oOOoo+++Ooo ..ooOOOOOOoooOO++++ooooo..ooooo.ooOOOOOOooOoo+++Ooo ",
"Ooo..OOOo...  ooOOOOOOOOo..oooo..##Ooo......ooOooOOOOOo..OOOo...",
"Ooo..OOOo...  ooOOOOOOOOo..oooo..##Ooo......ooOooOOOOOo..OOOo...",
"OOOoo.ooO+++ooooo...    +++ ..#########  .. ..ooooOOOOOoo.ooO@@@",
"ooooooOOOoo@++oo....  ++@++.@@@#####@@@@@     ...oooooooooOOOoo@",
"ooooooOOOoo@++oo....  ++@++.@@@#####@@@@@     ...oooooooooOOOoo@",
"OOOOOOOOoooO++oo####oo+++oo.ooO@@@@@OOOOO  ####  ...OOOOOOOOoooO",
"OOOOOOOOOOOo..@@####@@oooOO ..oOOOOOOO#########@@ OOOOOOOOOOOOOo",
"OOOOOOOOOOOo..@@####@@oooOO ..oOOOOOOO#########@@ OOOOOOOOOOOOOo",
"OOOOOOOOo  .@@@@###@OOOOOooO.. ..oo#@@@@@@@@@@@oo.ooOOOOOOOOo  .",
"O########.. ..@@@@@XXXOOooooOO @@@@@@@@@@@@ooooOOoOOOO######@.. ",
"O########.. ..@@@@@XXXOOooooOO @@@@@@@@@@@@ooooOOoOOOO######@.. ",
"@@@@@@@@@##o..XXXXXooo#####Ooo.oo@@@oooooooOooOOO @@@@@@@@@@@@@o",
"@@@@@@@@@##o..XXXXXooo#####Ooo.oo@@@oooooooOooOOO @@@@@@@@@@@@@o",
"XXX@@@@@@ooo  ...oo#####@@@@ooo....oOOOOOOOOOOOOO ..XXX@@@@@@ooo",
"oooXXXXXXooo    #########@@@@@o  ..oOOoOOOOOOOO###..oooXXXXXXooo",
"oooXXXXXXooo    #########@@@@@o  ..oOOoOOOOOOOO###..oooXXXXXXooo",
".ooooooooooo@@@@@@@@@@@@@XXXoooOO  .ooOooOOOOO@@@@@@..oooooooooo",
".oooooooooo@@@@@XXXXXXXXXooooooOOOO.oooOOOOO@@@@@@oo..ooooooooo@",
".oooooooooo@@@@@XXXXXXXXXooooooOOOO.oooOOOOO@@@@@@oo..ooooooooo@",
".ooooooo.  .XXXXooooooooooooooOoo...ooOOOOOo@@@oooOO..oooooo.  .",
" ..oo@@@####..ooooooooooooooooo..  .oooOOOOo..oOOOOO  .oo######@",
" ..oo@@@####..ooooooooooooooooo..  .oooOOOOo..oOOOOO  .oo######@",
"o@@########@@@@@oooooooooooo.. ##########@@o..oOOOOOoo@@@@@@@@@@",
".@@@@@@@@@@OooOO.oooooooooo.@@@@@@@#########@@.ooOOO..@@@@@@@@@O",
".@@@@@@@@@@OooOO.oooooooooo.@@@@@@@#########@@.ooOOO..@@@@@@@@@O",
".OOOOOOOOOOoOOoo ..oooooooo.@@@@@@@@@@@@@@@@@@@..Ooo..OOOOOOOOOo",
".OOOOOOOOOOoOOoo ..oooooooo.@@@@@@@@@@@@@@@@@@@..Ooo..OOOOOOOOOo",
" ..OOoOOOOOOOOOO ..oooooo...ooooooo@@@@@@@@@@@@  o    .OOoOOOOOO",
"@..OOOooOOOOOOOO@@@@@@  ......oOOOOoooooooooooo@@@@@@@.OOOooOOOO",
"@..OOOooOOOOOOOO@@@@@@  ......oOOOOoooooooooooo@@@@@@@.OOOooOOOO",
"@@@..oOOOOOO@@@@@@@@@@@@   .oo.ooOOOOOoOOooOoo@@@@@@@@@..oOOOOOO",
"@oo..oooOOO@@@@@@@@@oooo.+++...ooooOOOOooOOo@@@@@@@@@@o..oooOOO@",
"@oo..oooOOO@@@@@@@@@oooo.+++...ooooOOOOooOOo@@@@@@@@@@o..oooOOO@",
"ooo  .ooo@@@@@@@ooooooOOO+++++.ooOOoOOOOOOOoooooooooooo  .ooo@@@",
"Ooo@@@@@@oo@ooooOOOoOOooX+++  .ooooOOOOOOoooooOOOOooOOo@@@@@@oo@",
"Ooo@@@@@@oo@ooooOOOoOOooX+++  .ooooOOOOOOoooooOOOOooOOo@@@@@@oo@",
"o@@@@@@@@@@oooOOOOOOOOOOoXXXXX.ooOOOOOOoooo.ooOOOoOOoo@@@@@@@@@o",
"o@@@@@@@@@@oooOOOOOOOOOOoXXXXX.ooOOOOOOoooo.ooOOOoOOoo@@@@@@@@@o",
"o..XX@@@@XX.ooOOOOOOoooo.ooooo.....@@@@oo.. ooOooOOOoo.XX@@@@XX.",
"o..ooXXXXoo.ooooOOO@@@@@@@@@.. ..@@@@@@@@@@o..oOOOOOoo.ooXXXXoo.",
"o..ooXXXXoo.ooooOOO@@@@@@@@@.. ..@@@@@@@@@@o..oOOOOOoo.ooXXXXoo.",
"o..oooooooo.oo@@@@@@@@@@@@@@@@ ..@@@@@@@@@@@oooooooooo.oooooooo.",
"@..oooooooo@@@@@@@@@@@@@@@@@@@.oo..@@@@@@@@o  @@@@@@@@.oooooooo@",
"@..oooooooo@@@@@@@@@@@@@@@@@@@.oo..@@@@@@@@o  @@@@@@@@.oooooooo@",
"@  oooooo@@@@@@@@@@@@@oooooooo.oo..oooooooo@@@@@@@@@@@ oooooo@@@",
"@@@..oooo..oooooooooooooOOOOOO.oo  .OOOOO@@@@@@@@@@@@@@..oooo..o",
"@@@..oooo..oooooooooooooOOOOOO.oo  .OOOOO@@@@@@@@@@@@@@..oooo..o",
"ooo  .     oOOooOOOOooOOoOOOOOO    .OOoOO..@@@@@@@@@ooo  .     o",
"Ooooo++++oo.ooOOOOOOOOOOOooO+++++...ooOoo..oooooooooOOooo++++oo.",
"Ooooo++++oo.ooOOOOOOOOOOOooO+++++...ooOoo..oooooooooOOooo++++oo.",
"oOOoo+++Ooo ..ooOOOOOOoooOO++++ooooo..ooooo.ooOOOOOOooOoo+++Ooo ",
"oOOoo+++Ooo ..ooOOOOOOoooOO++++ooooo..ooooo.ooOOOOOOooOoo+++Ooo ",
"Ooo..OOOo...  ooOOOOOOOOo..oooo..@@Ooo......ooOooOOOOOo..OOOo...",
"OOOoo.ooO+++ooooo...    +++ ..@@@@@@@@@  .. ..ooooOOOOOoo.ooO@@@",
"OOOoo.ooO+++ooooo...    +++ ..@@@@@@@@@  .. ..ooooOOOOOoo.ooO@@@",
"ooooooOOOoo+++oo....  +++++.@@@@@@@@@@@@@     ...oooooooooOOOoo@",
"OOOOOOOOoooO++oo@@@@oo+++oo.ooO@@@@@OOOOO  @@@@  ...OOOOOOOOoooO",
"OOOOOOOOoooO++oo@@@@oo+++oo.ooO@@@@@OOOOO  @@@@  ...OOOOOOOOoooO"
};
